<svg width="20" height="21" viewBox="0 0 20 21" fill="none" xmlns="http://www.w3.org/2000/svg">
<path d="M9.79004 20.4905H9.62598C7.85775 20.4905 6.23535 20.0074 4.75879 19.0413C3.30046 18.0569 2.18848 16.7991 1.42285 15.2678C0.657227 13.7366 0.274414 12.1689 0.274414 10.5647V10.4006C0.274414 8.66886 0.68457 7.03735 1.50488 5.5061C2.3252 3.95662 3.47363 2.70793 4.9502 1.76001C6.44499 0.812093 8.0765 0.338135 9.84473 0.338135H9.98145C11.7679 0.338135 13.3903 0.848551 14.8486 1.86938C16.3252 2.87199 17.4372 4.1298 18.1846 5.64282C18.9502 7.15584 19.333 8.70532 19.333 10.2913V10.4553C19.333 12.1689 18.9229 13.8004 18.1025 15.3499C17.3005 16.8811 16.1611 18.1207 14.6846 19.0686C13.208 20.0165 11.5765 20.4905 9.79004 20.4905ZM9.9541 17.6741C11.1755 17.6741 12.2692 17.3095 13.2354 16.5803C14.2197 15.8512 14.9398 14.9579 15.3955 13.9006C15.8695 12.8251 16.1064 11.7222 16.1064 10.592V10.4006C16.1064 8.39543 15.5049 6.691 14.3018 5.28735C13.1169 3.88371 11.6221 3.18188 9.81738 3.18188C7.90332 3.18188 6.36296 3.91105 5.19629 5.36938C4.04785 6.82772 3.47363 8.5048 3.47363 10.4006C3.47363 12.3694 4.05697 14.0738 5.22363 15.5139C6.40853 16.954 7.93978 17.6741 9.81738 17.6741H9.9541Z" fill="black"/>
</svg>
