<svg width="15" height="21" viewBox="0 0 15 21" fill="none" xmlns="http://www.w3.org/2000/svg">
<path d="M3.46899 20.3497H0.324463V0.470825H8.66431C10.4143 0.470825 11.8726 1.13619 13.0393 2.46692C14.2242 3.79765 14.8167 5.29244 14.8167 6.95129C14.8167 8.68306 14.2607 10.1961 13.1487 11.4904C12.0367 12.7846 10.5966 13.4318 8.82837 13.4318H3.46899V20.3497ZM8.63696 10.67C9.58488 10.67 10.3232 10.2963 10.8518 9.54895C11.3805 8.80155 11.6448 7.93567 11.6448 6.95129C11.6448 5.80286 11.3167 4.90051 10.6604 4.24426C10.0406 3.56978 9.31144 3.23254 8.4729 3.23254H3.46899V10.67H8.63696Z" fill="black"/>
</svg>
