<svg width="18" height="21" viewBox="0 0 18 21" fill="none" xmlns="http://www.w3.org/2000/svg">
<path d="M9.95483 20.7806H9.79077C8.51473 20.7806 7.27515 20.4889 6.07202 19.9056C4.88713 19.304 3.88452 18.5202 3.06421 17.554C2.26213 16.5696 1.6241 15.4577 1.15015 14.2181C0.694417 12.9785 0.466553 11.748 0.466553 10.5267C0.466553 8.88605 0.849365 7.30922 1.61499 5.7962C2.39884 4.28318 3.51994 3.0436 4.97827 2.07745C6.45483 1.11131 8.15926 0.628234 10.0916 0.628234C11.878 0.628234 13.4184 1.02016 14.7126 1.80402C16.0069 2.56964 16.9913 3.62693 17.6658 4.97589L15.1775 6.61651C14.2113 4.50193 12.4796 3.44464 9.98218 3.44464C8.04989 3.44464 6.50952 4.17381 5.36108 5.63214C4.23088 7.07224 3.66577 8.74021 3.66577 10.636C3.66577 12.6048 4.27645 14.3183 5.4978 15.7767C6.71916 17.235 8.24129 17.9642 10.0642 17.9642C11.158 17.9642 12.1879 17.6907 13.1541 17.1439C14.1202 16.5788 14.8585 15.7584 15.3689 14.6829L17.9666 16.1595C17.2921 17.6543 16.1801 18.8027 14.6306 19.6048C13.0811 20.3886 11.5225 20.7806 9.95483 20.7806Z" fill="black"/>
</svg>
