<svg width="15" height="21" viewBox="0 0 15 21" fill="none" xmlns="http://www.w3.org/2000/svg">
<path d="M7.87231 20.4832H0.0793457V0.604248H3.22388V7.93237H7.65356C9.91398 7.93237 11.6002 8.51571 12.7122 9.68237C13.8241 10.849 14.3801 12.3529 14.3801 14.1941C14.3801 15.379 14.134 16.4454 13.6418 17.3933C13.1679 18.3412 12.4478 19.0977 11.4817 19.6628C10.5155 20.2097 9.31242 20.4832 7.87231 20.4832ZM7.40747 17.8855C8.71997 17.8855 9.66789 17.5391 10.2512 16.8464C10.8528 16.1355 11.1536 15.2514 11.1536 14.1941C11.1536 13.1186 10.8619 12.2436 10.2786 11.5691C9.69523 10.8764 8.72909 10.53 7.38013 10.53H3.22388V17.8855H7.40747Z" fill="black"/>
</svg>
