<svg width="18" height="25" viewBox="0 0 18 25" fill="none" xmlns="http://www.w3.org/2000/svg">
<path d="M17.0586 25H13.9414V9.79688L3.44141 25H0.378906V5.12109H3.52344V20.5703L14.1328 5.12109H17.0586V25ZM8.71875 3.78125C7.13281 3.78125 5.92969 3.42578 5.10938 2.71484C4.30729 1.98568 3.90625 1.10156 3.90625 0.0625H6.17578C6.17578 0.609375 6.3763 1.07422 6.77734 1.45703C7.19661 1.83984 7.84375 2.03125 8.71875 2.03125C10.4141 2.03125 11.2617 1.375 11.2617 0.0625H13.5312C13.5312 1.10156 13.1211 1.98568 12.3008 2.71484C11.4987 3.42578 10.3047 3.78125 8.71875 3.78125Z" fill="black"/>
</svg>
