<?xml version="1.0" standalone="no"?>
<!DOCTYPE svg PUBLIC "-//W3C//DTD SVG 20010904//EN"
 "http://www.w3.org/TR/2001/REC-SVG-20010904/DTD/svg10.dtd">
<svg version="1.0" xmlns="http://www.w3.org/2000/svg"
 width="700.000000pt" height="700.000000pt" viewBox="0 0 700.000000 700.000000"
 preserveAspectRatio="xMidYMid meet">
<metadata>
Created by potrace 1.14, written by Peter Selinger 2001-2017
</metadata>
<g transform="translate(0.000000,700.000000) scale(0.100000,-0.100000)"
fill="#000000" stroke="none">
<path d="M2918 6542 c-9 -2 -57 -101 -123 -250 -150 -344 -155 -355 -165 -377
-5 -11 -21 -47 -36 -80 -14 -33 -135 -310 -269 -615 -134 -305 -309 -706 -390
-890 -80 -184 -154 -353 -164 -375 -10 -22 -31 -69 -46 -105 -15 -36 -38 -87
-50 -115 -13 -27 -78 -176 -145 -330 -67 -154 -130 -298 -140 -320 -31 -68
-172 -389 -180 -410 -4 -11 -19 -45 -33 -75 -13 -30 -39 -89 -57 -130 -18 -41
-43 -97 -55 -125 -13 -27 -52 -117 -88 -200 -98 -226 -451 -1032 -481 -1097
-14 -31 -26 -59 -26 -62 0 -3 -13 -34 -29 -68 -15 -35 -39 -85 -51 -113 -39
-86 -80 -188 -77 -191 2 -3 5708 -6 6595 -4 l92 0 0 760 0 760 -411 0 -410 0
-25 58 c-14 31 -32 71 -39 87 -7 17 -27 60 -44 98 -17 37 -31 69 -31 71 0 4
-106 245 -180 411 -44 98 -61 137 -110 250 -28 66 -60 138 -70 160 -10 22
-100 227 -200 455 -100 228 -190 433 -200 455 -10 22 -51 114 -90 205 -40 91
-80 183 -90 205 -45 101 -173 392 -220 500 -28 66 -60 138 -70 160 -10 22 -35
78 -55 125 -21 47 -46 104 -56 128 -11 23 -28 63 -40 90 -11 26 -27 61 -34 77
-7 17 -32 73 -55 125 -22 52 -47 109 -55 125 -7 17 -20 46 -28 65 -21 47 -204
464 -228 518 -11 23 -25 42 -32 43 -32 3 -1295 4 -1309 1z m673 -1417 c5 -11
47 -114 94 -230 47 -115 89 -219 94 -230 5 -11 32 -76 60 -145 122 -303 192
-476 201 -495 8 -18 75 -183 350 -860 l97 -241 -918 1 c-504 0 -920 3 -924 7
-3 3 3 26 14 51 12 25 21 49 21 52 0 3 9 25 19 48 10 23 58 139 106 257 48
118 93 229 100 245 7 17 31 75 53 130 23 55 75 182 116 283 42 100 76 185 76
188 0 3 8 24 19 47 10 23 42 101 71 172 28 72 58 144 65 160 22 50 84 201 150
365 77 191 85 209 98 238 l11 24 9 -24 c5 -12 13 -32 18 -43z"/>
</g>
</svg>
