<svg width="150" height="30" viewBox="0 0 345 96" fill="none" xmlns="http://www.w3.org/2000/svg">
<g clip-path="url(#clip0_918_77)">
<path fill-rule="evenodd" clip-rule="evenodd" d="M30.097 24.4994C36.2721 20.624 41.0242 19.4316 44.9172 19.8923C48.8102 20.353 52.2468 22.494 55.6834 26.0442C62.3954 32.9549 65.5098 37.2639 67.3624 40.516C67.0402 40.7599 66.5569 41.0581 65.8589 41.3833C64.2748 42.1692 62.1269 42.9551 60.1133 43.6597C59.5495 43.4158 58.8783 43.1177 58.234 42.8738C57.697 42.657 57.0795 42.4131 56.5694 42.2234C57.5359 39.974 57.9118 37.5078 57.5896 34.9875C57.0526 32.4942 54.9316 27.2637 50.8238 26.0713C50.7433 26.0442 50.6359 26.0713 50.5554 26.1255C45.4005 29.5131 41.2122 29.5131 38.2857 28.402C38.1515 28.3478 38.0441 28.2936 37.9098 28.2665C37.0238 27.887 36.2721 27.4263 35.6546 26.9114C35.5472 26.8301 35.4398 26.7217 35.3324 26.6404C34.9834 26.3423 34.4464 26.6133 34.527 27.074C34.5538 27.2366 34.5807 27.3721 34.5807 27.5347C34.688 28.3478 34.7149 29.2692 34.6612 30.1906C34.6612 30.3532 34.6343 30.4887 34.6343 30.6513C34.3122 34.6894 32.4328 39.3236 26.741 41.6814C26.6067 41.7356 26.5262 41.8711 26.553 42.0337C27.7612 49.9742 34.2316 53.1992 43.1989 51.9797C48.0316 51.3022 52.1126 48.8631 54.7168 45.4755C54.8511 45.5297 54.9853 45.5839 55.1196 45.611C55.1196 45.611 55.1733 45.6381 55.2806 45.6652C55.388 45.6923 55.5223 45.7465 55.7102 45.8278C56.0592 45.9633 56.462 46.1259 56.9184 46.3156C57.7775 46.6679 58.7172 47.0744 59.3347 47.3454C59.9522 47.6707 60.8919 48.4566 62.0733 49.92C63.2546 51.3564 64.5433 53.3076 65.9126 55.7196C68.6242 60.5436 71.4164 67.102 73.6717 74.8528C75.5779 81.4383 77.162 85.5847 78.2627 88.2948C78.4507 88.7284 78.6118 89.1349 78.746 89.4873L78.7997 89.5957C78.6923 89.5686 78.5849 89.5414 78.4775 89.5143C76.3834 88.9723 73.4301 88.2677 70.1009 87.7799C65.295 87.0753 59.469 86.7772 54.1262 88.2135C54.6094 87.2921 55.0659 86.3436 55.5223 85.3679C57.5359 80.9505 59.2542 75.991 60.2207 72.6847C60.5429 71.6278 60.8919 69.7307 61.1067 67.8337C61.2947 66.1805 61.4289 64.2564 61.2141 62.82C61.241 62.3593 61.1067 61.8715 60.7577 61.465C60.1402 60.7875 59.1199 60.7062 58.3413 61.2211C52.5958 65.0965 48.0316 67.373 45.0246 68.2402C43.4674 68.6738 42.6083 68.6738 42.2324 68.5654C42.2592 68.5112 42.2861 68.4299 42.3935 68.2944C42.5814 67.9963 42.9036 67.6169 43.3869 67.1291C44.3266 66.1805 45.6958 65.0694 47.3067 63.9041C49.7231 62.1425 52.4884 60.3267 54.9048 58.7549C55.5491 58.3213 56.1935 57.9148 56.7841 57.5354C57.0795 57.4541 57.3748 57.2915 57.6164 57.0475C58.2608 56.4242 58.3145 55.3944 57.8044 54.6627C56.7036 53.0908 55.2001 52.332 53.455 51.9797C51.7904 51.6274 49.6962 51.6274 47.3067 51.6274C45.5347 51.6274 43.4674 52.0339 41.6149 52.6301C40.2456 53.0637 38.8764 53.6599 37.7487 54.3375C37.6145 54.2562 37.4803 54.1478 37.3192 54.0665C37.2118 54.0123 37.1044 53.931 36.9701 53.8767C34.6612 52.4946 31.7347 50.7602 26.3651 51.0583C25.5328 51.1125 24.7005 51.1938 23.9219 51.3835C23.9756 50.5433 23.9756 49.6761 23.9756 48.8902C23.9487 47.0202 23.8682 45.3129 23.8414 44.798C23.8414 44.6625 23.8145 44.527 23.8145 44.3644C23.6803 42.4944 23.4386 38.89 24.1098 35.0688C24.6736 30.8681 26.3919 26.8301 30.097 24.4994ZM20.0289 52.8469C20.19 51.8984 20.2437 50.4078 20.2168 48.8631C20.19 47.1015 20.1094 45.4755 20.0826 44.9606C20.0826 44.8251 20.0557 44.6896 20.0557 44.527C19.9215 42.657 19.653 38.6461 20.3779 34.3912C21.1565 29.7841 23.197 24.5265 28.1639 21.3828C34.7149 17.2635 40.2993 15.6646 45.3468 16.2608C50.3943 16.857 54.5289 19.6213 58.2877 23.4967C65.5367 30.9765 68.8659 35.665 70.8795 39.3507C71.2554 40.0282 71.3091 40.787 71.0674 41.4917C70.8526 42.115 70.4768 42.6028 70.1277 42.928C69.4297 43.6055 68.4363 44.2018 67.4698 44.6625C66.3421 45.2045 65.0266 45.7465 63.711 46.2343C64.0869 46.6137 64.4627 47.0473 64.8118 47.5081C66.1542 49.1612 67.5771 51.3022 69.0001 53.8496C71.846 58.9446 74.7725 65.774 77.0814 73.7688C78.934 80.1917 80.4912 84.2568 81.5382 86.8314C81.6993 87.2108 81.8336 87.5631 81.9678 87.9154C82.29 88.7013 82.5585 89.3517 82.7464 89.8938C82.8806 90.2732 83.0149 90.6797 83.0954 91.0591C83.176 91.4385 83.2297 91.9263 83.0954 92.4412C82.9075 93.2543 82.2631 93.6066 81.9678 93.7421C81.6725 93.8505 81.4308 93.8776 81.3234 93.8776C81.1087 93.8776 80.8939 93.8505 80.7865 93.8505C80.5448 93.8234 80.2495 93.7421 79.9542 93.6608C79.632 93.5795 79.2293 93.4711 78.7729 93.3627C78.3701 93.2543 77.9406 93.1459 77.4841 93.0375C75.4437 92.5225 72.6246 91.845 69.4565 91.3843C63.0935 90.4629 55.7639 90.4087 50.3674 93.5795C49.6694 94.3112 48.8908 94.9345 48.0853 95.3139C46.5281 96.0457 45.1589 94.9074 44.8367 93.7421C43.9775 90.4629 42.5546 85.9099 40.9705 82.4139C40.1651 80.6253 39.3865 79.2431 38.6884 78.403C38.3931 78.0507 38.1783 77.861 38.0441 77.7797C37.7219 77.9694 37.1849 78.4843 36.4869 79.5141C35.7083 80.6524 34.9297 82.1158 34.1511 83.7961C32.6207 87.1566 31.2783 91.032 30.446 93.7692C30.0701 94.9616 28.6203 95.9914 27.1168 95.2055C25.1301 94.1757 22.2036 91.303 19.9484 85.5847C18.418 81.6822 16.8071 77.2919 15.7332 73.0912C14.6861 68.9719 14.0954 64.7984 14.7935 61.4379C15.4915 58.0503 16.8071 55.4486 18.8476 53.6599C19.2503 53.416 19.6262 53.1179 20.0289 52.8469ZM38.1246 32.1961C37.534 36.2612 35.574 40.787 30.7414 43.741C31.4126 45.3942 32.4596 46.5053 33.7484 47.237C35.7083 48.3482 38.6884 48.8902 42.6888 48.3211C50.0989 47.2912 54.69 41.302 54.0188 35.6379C53.804 34.7436 53.2939 33.3072 52.4884 32.0064C51.9783 31.1933 51.4413 30.5971 50.9312 30.1635C47.3604 32.169 44.0044 32.8736 40.9974 32.6839C39.9503 32.6297 39.0106 32.4671 38.1246 32.1961ZM26.4456 54.6627C30.7145 54.4188 32.8892 55.7196 35.0371 56.9933C35.1445 57.0475 35.2519 57.1288 35.3861 57.1831C35.7351 57.3999 36.0305 57.6167 36.3795 57.9148C36.9433 58.4026 37.7487 58.4568 38.3663 58.1587C38.5542 58.1045 38.7153 57.9961 38.8764 57.8877C39.6281 57.2915 40.9974 56.6139 42.6083 56.099C44.2192 55.5841 45.9106 55.2589 47.1993 55.2589C49.6962 55.2589 51.3877 55.286 52.6227 55.5299C52.7301 55.557 52.8375 55.5841 52.918 55.5841C50.4748 57.1831 47.5752 59.053 45.0783 60.8959C43.4406 62.1154 41.8834 63.3349 40.7557 64.4732C40.1919 65.0423 39.655 65.6385 39.2791 66.2347C38.9032 66.8038 38.5273 67.5627 38.5273 68.457C38.5273 69.2429 38.7153 70.0288 39.2254 70.7335C39.7355 71.4381 40.4336 71.8446 41.1585 72.0614C42.5277 72.4679 44.2192 72.2511 45.9375 71.7362C48.9176 70.8961 52.8643 68.9719 57.5359 66.045C57.5091 66.4786 57.4554 66.9123 57.4017 67.4001C57.1869 69.1887 56.8647 70.8419 56.6499 71.6007C55.7102 74.7986 54.0725 79.5954 52.1394 83.7961C51.1729 85.9099 50.1526 87.8341 49.1592 89.3246C48.7028 90.0022 48.2733 90.5442 47.8974 90.9507C47.0114 87.807 45.7495 84.0129 44.3534 80.8963C43.5211 79.0263 42.5546 77.2648 41.5343 76.0452C41.0242 75.4219 40.3799 74.8528 39.655 74.4734C38.8495 74.094 37.883 73.9314 36.9164 74.3379C35.5472 74.8799 34.4464 76.1807 33.5604 77.4816C32.6207 78.8366 31.7347 80.544 30.9293 82.3055C29.6137 85.1782 28.4324 88.4303 27.5733 91.032C26.3919 89.9209 24.8079 87.8341 23.3849 84.2839C21.9083 80.544 20.4316 76.4517 19.4114 72.6034C22.1768 73.2538 25.0495 73.5249 27.439 73.4436C29.0499 73.3894 30.6071 73.1454 31.8153 72.6576C32.9429 72.1969 34.4464 71.1129 34.2585 69.1616C34.1779 68.186 33.5604 67.5085 33.104 67.102C32.6207 66.6683 32.0032 66.316 31.3857 66.0179C30.1507 65.3946 28.5129 64.8255 26.8215 64.3377C24.0561 63.5246 20.888 62.8471 18.3643 62.3864C18.3643 62.3593 18.3643 62.3322 18.3912 62.3051C19.0087 59.4053 20.0289 57.6167 21.2639 56.5326C22.5258 55.3944 24.1904 54.7982 26.4456 54.6627ZM18.2032 66.0721C18.2569 66.8581 18.3643 67.6982 18.4985 68.5925C21.425 69.4868 24.7005 69.8662 27.2511 69.7849C28.4324 69.7307 29.3452 69.5952 29.9628 69.4055C29.8822 69.3784 29.8017 69.3242 29.7211 69.2971C28.7546 68.8093 27.3853 68.3215 25.7476 67.8608C23.3581 67.1291 20.5659 66.5057 18.2032 66.0721ZM30.7145 69.0803C30.7414 69.0532 30.7414 69.0532 30.7414 69.0532C30.7682 69.0532 30.7414 69.0532 30.7145 69.0803Z" fill="#606060"/>
<path d="M89.2704 91.8718C88.3039 91.8718 87.5253 91.0859 87.5253 90.1103C87.5253 89.1347 88.3039 88.3487 89.2704 88.3487C92.0627 88.3487 94.3448 86.0452 94.3448 83.2267V11.7889C94.3448 7.23592 90.6665 3.52311 86.156 3.52311H11.679C7.16848 3.52311 3.49027 7.23592 3.49027 11.7889V82.251C3.49027 85.6115 6.20195 88.3487 9.53113 88.3487C10.4977 88.3487 11.2763 89.1347 11.2763 90.1103C11.2763 91.0859 10.4977 91.8718 9.53113 91.8718C4.26887 91.8718 0 87.5357 0 82.2239V11.7618C0 5.28466 5.23541 0 11.679 0H86.156C92.5996 0 97.835 5.28466 97.835 11.7889V83.2267C97.835 87.9964 93.9957 91.8718 89.2704 91.8718Z" fill="#606060"/>
<path d="M156.203 54.7977L140.228 16.5042C140.014 15.908 139.691 15.4473 139.235 15.1221C138.805 14.7969 138.268 14.6343 137.678 14.6343C137.087 14.6343 136.55 14.7969 136.094 15.095C135.637 15.4202 135.288 15.8809 135.02 16.45L119.099 54.7435C118.723 55.6378 118.777 56.5322 119.233 57.3994C119.26 57.4265 119.26 57.4536 119.287 57.4807C119.314 57.5078 119.314 57.562 119.34 57.5891C119.797 58.3479 120.468 58.7002 121.408 58.7002C121.515 58.7002 121.623 58.7002 121.73 58.6731C122.186 58.646 122.616 58.5376 123.046 58.2937C123.529 57.9956 123.851 57.562 124.066 56.9929L127.502 48.5916H147.719L151.129 57.02C151.397 57.5349 151.746 57.9414 152.23 58.2395C152.632 58.4834 153.089 58.6189 153.572 58.646C153.679 58.6731 153.76 58.6731 153.867 58.6731C154.753 58.7002 155.398 58.3208 155.854 57.6162C155.908 57.5078 155.961 57.4265 156.015 57.3181C156.552 56.5322 156.606 55.6649 156.203 54.7977ZM129.516 43.9303L137.731 23.9028L145.813 43.9303H129.516Z" fill="#606060"/>
<path d="M321.561 37.6159C322.367 35.9628 323.494 34.6891 324.944 33.7676C326.421 32.8462 328.112 32.3855 330.072 32.3855C332.999 32.3855 335.415 33.4966 337.375 35.6918C337.858 36.2067 338.395 36.559 339.013 36.6945H339.039H339.066C339.711 36.7758 340.301 36.6403 340.811 36.288C341.402 35.8544 341.805 35.3124 341.939 34.6891C342.127 33.9844 341.912 33.334 341.429 32.7378C339.979 30.9762 338.288 29.6212 336.355 28.754C334.448 27.8325 332.354 27.3989 330.099 27.3989C327.173 27.3989 324.595 28.1035 322.313 29.5128C320.085 30.8678 318.339 32.7649 317.024 35.1498C315.735 37.5346 315.118 40.2447 315.118 43.2529C315.118 46.234 315.762 48.917 317.078 51.3019C318.42 53.6867 320.273 55.5838 322.582 56.993C324.917 58.3481 327.575 59.0527 330.502 59.0527C334.583 59.0527 337.992 57.779 340.758 55.2315C341.268 54.7166 341.51 54.0933 341.402 53.4157C341.322 52.7653 340.999 52.1691 340.462 51.6813H340.436H340.409C339.899 51.3019 339.335 51.1122 338.717 51.1664C338.1 51.2206 337.536 51.4645 336.972 51.9252C336.14 52.6569 335.173 53.226 334.099 53.5783C333.052 53.9306 331.844 54.1204 330.475 54.1204C328.488 54.1204 326.716 53.6596 325.186 52.7382C323.682 51.7897 322.474 50.4888 321.588 48.8899C320.756 47.2638 320.326 45.3939 320.326 43.3071C320.353 41.0848 320.756 39.2149 321.561 37.6159Z" fill="#606060"/>
<path d="M295.787 33.9842C294.579 31.8161 292.914 30.1901 290.82 29.0789C288.753 27.9407 286.39 27.3716 283.786 27.3716C281.343 27.3716 279.141 27.9136 277.127 29.0247C276.107 29.5939 275.221 30.2443 274.389 31.0031V30.2985C274.389 29.4854 274.147 28.7808 273.61 28.293C273.127 27.751 272.456 27.5071 271.677 27.5071C270.845 27.5071 270.147 27.751 269.637 28.293C269.127 28.8079 268.912 29.4854 268.912 30.2985V56.2069C268.912 56.9928 269.154 57.6703 269.637 58.2123C270.174 58.7002 270.872 58.9441 271.677 58.9441C272.456 58.9441 273.127 58.7002 273.61 58.2123C274.147 57.6703 274.389 56.9928 274.389 56.2069V39.9193C274.389 38.4829 274.765 37.2363 275.517 36.1794C276.268 35.0682 277.289 34.1739 278.604 33.5506C279.92 32.8731 281.423 32.5478 283.088 32.5478C284.86 32.5478 286.417 32.9002 287.786 33.6048C289.129 34.2552 290.203 35.285 290.954 36.6401C291.733 37.968 292.162 39.7025 292.162 41.8976V56.0443C292.162 56.8031 292.431 57.4806 292.941 57.9955C293.478 58.5375 294.149 58.7815 294.928 58.7815C295.68 58.7815 296.351 58.5104 296.861 57.9955C297.371 57.4806 297.639 56.8031 297.639 56.0443V41.9247C297.639 38.8081 297.022 36.1523 295.787 33.9842ZM271.677 28.1304C270.952 28.1304 270.362 28.3472 269.932 28.7808C270.362 28.3472 270.925 28.1304 271.677 28.1304ZM269.905 57.7245C270.335 58.131 270.925 58.3207 271.65 58.3207C270.925 58.3207 270.362 58.131 269.905 57.7245Z" fill="#606060"/>
<path d="M256.427 21.8973C257.126 22.6019 257.985 22.9542 258.951 22.9542C259.918 22.9542 260.777 22.6019 261.475 21.8973C262.173 21.1655 262.522 20.2983 262.522 19.2956C262.522 18.2657 262.146 17.3985 261.421 16.7481C260.723 16.0977 259.918 15.7725 258.978 15.7725C258.038 15.7725 257.206 16.0977 256.481 16.7481C255.783 17.4256 255.434 18.2928 255.434 19.2956C255.38 20.2983 255.729 21.1655 256.427 21.8973Z" fill="#606060"/>
<path d="M258.978 27.48C258.2 27.48 257.502 27.7239 256.991 28.2659C256.455 28.7808 256.213 29.4583 256.213 30.2985V56.1527C256.213 56.9928 256.455 57.6974 256.991 58.2123C257.528 58.7001 258.2 58.9441 258.978 58.9441C259.757 58.9441 260.428 58.7001 260.911 58.2123C261.448 57.6703 261.69 56.9657 261.69 56.1527V30.2985C261.69 29.4854 261.448 28.7808 260.911 28.293C260.428 27.751 259.784 27.48 258.978 27.48Z" fill="#606060"/>
<path d="M304.271 21.8973C304.969 22.6019 305.828 22.9542 306.795 22.9542C307.761 22.9542 308.621 22.6019 309.319 21.8973C310.017 21.1655 310.366 20.2983 310.366 19.2956C310.366 18.2657 309.99 17.3985 309.265 16.7481C308.567 16.0977 307.762 15.7725 306.822 15.7725C305.882 15.7725 305.05 16.0977 304.325 16.7481C303.627 17.4256 303.278 18.2928 303.278 19.2956C303.224 20.2983 303.573 21.1655 304.271 21.8973Z" fill="#606060"/>
<path d="M306.768 27.48C305.989 27.48 305.291 27.7239 304.781 28.2659C304.244 28.7808 304.002 29.4583 304.002 30.2985V56.1527C304.002 56.9928 304.244 57.6974 304.781 58.2123C305.318 58.7001 305.989 58.9441 306.768 58.9441C307.546 58.9441 308.218 58.7001 308.701 58.2123C309.238 57.6703 309.479 56.9657 309.479 56.1527V30.2985C309.479 29.4854 309.238 28.7808 308.701 28.293C308.218 27.751 307.546 27.48 306.768 27.48Z" fill="#606060"/>
<path d="M236.774 50.6242C236.345 50.1635 235.808 49.8925 235.19 49.7841C234.546 49.7028 233.928 49.9196 233.365 50.3532C231.781 51.5456 230.143 52.4671 228.425 53.1175C226.706 53.7679 224.907 54.0931 223.001 54.0931C220.746 54.0931 218.625 53.6324 216.638 52.7381C214.678 51.8438 212.933 50.5971 211.43 48.9982C209.926 47.3992 208.745 45.5564 207.886 43.4696C207.053 41.3828 206.651 39.1064 206.651 36.6944C206.651 34.3366 207.053 32.1143 207.886 30.0276C208.745 27.9408 209.926 26.098 211.43 24.499C212.933 22.9001 214.678 21.6534 216.638 20.7591C218.625 19.8106 220.746 19.3498 223.001 19.3498C225.23 19.3498 227.136 19.648 228.693 20.2713C230.25 20.8404 231.7 21.7347 233.069 22.9543C233.606 23.3608 234.143 23.5776 234.734 23.5776C235.271 23.5776 235.754 23.4421 236.157 23.1711C236.56 22.873 236.855 22.4935 236.962 22.0328C237.15 21.7889 237.285 21.5179 237.365 21.1927C237.499 20.8133 237.499 20.461 237.365 20.0816C237.258 19.648 237.016 19.2956 236.64 18.9975C234.6 17.2631 232.506 16.0435 230.331 15.2847C228.156 14.4988 225.713 14.0923 223.001 14.0923C219.941 14.0923 217.095 14.6885 214.437 15.908C211.832 17.0734 209.55 18.6994 207.563 20.7591C205.577 22.7917 204.046 25.1765 202.919 27.9137C201.845 30.6238 201.308 33.5236 201.308 36.6402C201.308 39.7839 201.845 42.7379 202.919 45.4751C204.046 48.1851 205.577 50.57 207.563 52.6297C209.577 54.6893 211.886 56.3154 214.49 57.4807C217.148 58.6461 219.967 59.2423 222.974 59.2423C225.498 59.2423 227.914 58.8629 230.223 58.104C232.586 57.3181 234.734 56.0715 236.667 54.3641L236.694 54.337L236.721 54.3099C236.962 53.9847 237.123 53.6866 237.258 53.3885C237.392 53.0633 237.446 52.7381 237.446 52.3587C237.499 51.7082 237.258 51.0849 236.774 50.6242Z" fill="#606060"/>
<path d="M187.884 38.483C186.515 36.8299 184.796 35.6645 182.729 34.9599C184.098 34.1198 185.226 33.0628 186.112 31.7349C187.213 30.163 187.777 28.3473 187.777 26.3147C187.777 24.0654 187.24 22.1141 186.139 20.4067C185.038 18.6994 183.561 17.3444 181.682 16.3416C179.829 15.3389 177.735 14.8511 175.426 14.8511H162.163C161.385 14.8511 160.714 15.095 160.203 15.637C159.693 16.1519 159.425 16.8294 159.425 17.6154V17.6425V55.9901V56.0172C159.425 56.8032 159.693 57.4807 160.257 58.0227C160.848 58.5376 161.519 58.7815 162.324 58.7815H176.393C179.078 58.7815 181.467 58.2124 183.535 57.0742C185.629 55.9359 187.266 54.3912 188.448 52.4128C189.656 50.4345 190.247 48.1309 190.247 45.5292C190.22 42.7107 189.468 40.353 187.884 38.483ZM164.875 53.3072V37.941H176.286C177.95 37.941 179.4 38.2391 180.635 38.8353C181.924 39.4315 182.917 40.2717 183.615 41.3828C184.34 42.4939 184.689 43.7948 184.689 45.3395C184.689 47.0469 184.313 48.4561 183.615 49.6214C182.89 50.7597 181.897 51.6811 180.608 52.3315C179.373 52.9549 177.923 53.2801 176.259 53.2801H164.875V53.3072ZM164.875 20.0273H175.507C177.628 20.0273 179.319 20.5694 180.635 21.6263C181.924 22.6561 182.595 24.1738 182.595 26.2876C182.595 28.4286 181.924 30.0275 180.635 31.1387C179.319 32.2498 177.628 32.846 175.507 32.846H164.875V20.0273Z" fill="#606060"/>
<path d="M129.086 78.8633C128.979 78.7549 128.845 78.6736 128.683 78.6465C128.549 78.6194 128.388 78.6736 128.254 78.782C127.744 79.1614 127.234 79.4595 126.67 79.6763C126.106 79.8931 125.515 79.9744 124.898 79.9744C124.173 79.9744 123.475 79.8389 122.831 79.5408C122.186 79.2427 121.622 78.8362 121.139 78.3213C120.656 77.8064 120.28 77.2102 119.985 76.5326C119.716 75.8551 119.582 75.1234 119.582 74.3646C119.582 73.6057 119.716 72.9011 119.985 72.2236C120.28 71.5461 120.656 70.9499 121.139 70.4349C121.622 69.92 122.186 69.5135 122.831 69.2154C123.475 68.9173 124.173 68.7818 124.898 68.7818C125.596 68.7818 126.187 68.8902 126.724 69.0799C127.234 69.2696 127.717 69.5406 128.173 69.9471C128.281 70.0284 128.388 70.0826 128.522 70.1097C128.657 70.1097 128.764 70.1097 128.845 70.0555C128.925 70.0013 128.979 69.9471 129.006 69.8387C129.086 69.7845 129.167 69.7303 129.22 69.6219C129.274 69.5135 129.274 69.4051 129.247 69.3238C129.247 69.2154 129.167 69.107 129.086 69.0257C128.469 68.5108 127.824 68.1043 127.153 67.8875C126.482 67.6707 125.73 67.5352 124.925 67.5352C123.985 67.5352 123.126 67.7249 122.32 68.0772C121.515 68.4295 120.817 68.9173 120.226 69.5406C119.636 70.1639 119.152 70.8957 118.803 71.7358C118.481 72.5488 118.32 73.4431 118.32 74.3646C118.32 75.3131 118.481 76.2074 118.83 77.0475C119.179 77.8606 119.636 78.5923 120.253 79.2427C120.871 79.866 121.569 80.3538 122.347 80.7062C123.153 81.0585 124.012 81.2482 124.925 81.2482C125.703 81.2482 126.428 81.1398 127.153 80.923C127.878 80.7062 128.522 80.2996 129.086 79.7847C129.167 79.7034 129.194 79.6221 129.22 79.5679C129.247 79.4866 129.274 79.4053 129.274 79.324C129.247 79.1072 129.194 78.9717 129.086 78.8633Z" fill="#606060"/>
<path d="M138.403 73.8497C138.054 73.1451 137.543 72.6031 136.899 72.2237C136.255 71.8172 135.53 71.6274 134.644 71.6274C133.785 71.6274 133.006 71.8443 132.335 72.2508C131.664 72.6573 131.127 73.2264 130.751 73.9581C130.375 74.6627 130.187 75.5029 130.187 76.4243C130.187 77.3457 130.375 78.1858 130.778 78.8905C131.18 79.6222 131.744 80.1642 132.442 80.5978C133.167 81.0043 133.973 81.194 134.885 81.194C135.422 81.194 135.959 81.0856 136.55 80.8959C137.141 80.6791 137.597 80.4081 137.973 80.0829C138.107 79.9745 138.161 79.839 138.161 79.6764C138.161 79.5138 138.08 79.3783 137.946 79.2428C137.839 79.1615 137.705 79.1073 137.543 79.1344C137.382 79.1344 137.248 79.1886 137.114 79.297C136.872 79.5138 136.523 79.7035 136.12 79.839C135.718 79.9745 135.315 80.0558 134.885 80.0558C134.214 80.0558 133.597 79.8932 133.087 79.5951C132.577 79.297 132.147 78.8634 131.852 78.3214C131.61 77.8877 131.476 77.3999 131.422 76.8579H138.268C138.617 76.8579 138.591 76.8579 138.698 76.7495C138.805 76.6411 138.859 76.4785 138.859 76.3159C138.94 75.3403 138.752 74.5543 138.403 73.8497ZM132.952 73.2535C133.436 72.9554 133.999 72.7928 134.644 72.7928C135.288 72.7928 135.825 72.9283 136.282 73.2264C136.738 73.5245 137.114 73.931 137.355 74.473C137.517 74.7982 137.597 75.1235 137.651 75.5029H131.503C131.556 75.1506 131.664 74.8524 131.798 74.5543C132.093 74.0123 132.469 73.5787 132.952 73.2535Z" fill="#606060"/>
<path d="M150.753 71.9255C150.645 71.79 150.484 71.7358 150.269 71.7358C149.974 71.7358 149.732 71.8713 149.571 72.1424L145.866 77.5625L142.161 72.1424C141.973 71.8713 141.759 71.7358 141.463 71.7358C141.248 71.7358 141.087 71.79 140.98 71.9255C140.873 72.0339 140.819 72.1966 140.819 72.4134V80.4352C140.819 80.6249 140.873 80.7875 140.98 80.923C141.114 81.0314 141.248 81.0856 141.463 81.0856C141.651 81.0856 141.812 81.0314 141.92 80.923C142.027 80.8146 142.081 80.652 142.081 80.4352V74.0665L145.249 78.6466C145.41 78.9176 145.625 79.026 145.866 79.026C146.108 79.026 146.323 78.8905 146.484 78.6466L149.679 73.9852V80.4081C149.679 80.5978 149.732 80.7604 149.84 80.8959C149.947 81.0043 150.108 81.0585 150.296 81.0585C150.484 81.0585 150.645 81.0043 150.753 80.8959C150.86 80.7875 150.941 80.6249 150.941 80.4081V72.3863C150.941 72.1966 150.86 72.0339 150.753 71.9255Z" fill="#606060"/>
<path d="M161.304 73.8497C160.955 73.1451 160.445 72.6031 159.801 72.2237C159.156 71.8172 158.431 71.6274 157.545 71.6274C156.686 71.6274 155.908 71.8443 155.236 72.2508C154.565 72.6573 154.028 73.2264 153.652 73.9581C153.277 74.6627 153.089 75.5029 153.089 76.4243C153.089 77.3457 153.277 78.1858 153.679 78.8905C154.082 79.6222 154.646 80.1642 155.344 80.5978C156.069 81.0043 156.874 81.194 157.787 81.194C158.324 81.194 158.861 81.0856 159.452 80.8959C160.042 80.6791 160.499 80.4081 160.875 80.0829C161.009 79.9745 161.063 79.839 161.063 79.6764C161.063 79.5138 160.982 79.3783 160.848 79.2428C160.74 79.1615 160.606 79.1073 160.445 79.1344C160.284 79.1344 160.15 79.1886 160.015 79.297C159.774 79.5138 159.425 79.7035 159.022 79.839C158.619 79.9745 158.217 80.0558 157.787 80.0558C157.116 80.0558 156.498 79.8932 155.988 79.5951C155.478 79.297 155.049 78.8634 154.753 78.3214C154.512 77.8877 154.377 77.3999 154.324 76.8579H161.17C161.438 76.8579 161.492 76.8579 161.6 76.7495C161.707 76.6411 161.761 76.4785 161.761 76.3159C161.841 75.3403 161.653 74.5543 161.304 73.8497ZM154.431 75.5029C154.485 75.1506 154.592 74.8524 154.726 74.5543C154.995 74.0123 155.371 73.5787 155.854 73.2806C156.337 72.9825 156.901 72.8199 157.545 72.8199C158.19 72.8199 158.727 72.9554 159.183 73.2535C159.64 73.5516 160.015 73.9581 160.257 74.5001C160.418 74.8253 160.499 75.1506 160.552 75.53H154.431V75.5029Z" fill="#606060"/>
<path d="M166.352 70.2184C166.781 70.4081 167.291 70.4894 167.855 70.4894C168.419 70.4894 168.902 70.4081 169.359 70.2184C169.788 70.0287 170.137 69.7577 170.406 69.4325C170.674 69.1072 170.809 68.7278 170.809 68.3213C170.809 68.1316 170.755 67.9961 170.647 67.8606C170.54 67.7251 170.379 67.6709 170.218 67.6709C170.057 67.6709 169.896 67.7251 169.788 67.8606C169.681 67.9961 169.627 68.1587 169.627 68.3755C169.627 68.7007 169.466 68.9446 169.144 69.1343C168.822 69.3241 168.419 69.4325 167.936 69.4325C167.452 69.4325 167.05 69.3241 166.728 69.1343C166.405 68.9446 166.244 68.6736 166.244 68.3755C166.244 68.1587 166.191 67.9961 166.083 67.8606C165.976 67.7251 165.815 67.6709 165.654 67.6709C165.493 67.6709 165.331 67.7251 165.224 67.8606C165.117 67.9961 165.063 68.1316 165.063 68.3213C165.063 68.7278 165.197 69.1072 165.439 69.4325C165.573 69.7577 165.922 70.0287 166.352 70.2184Z" fill="#606060"/>
<path d="M171.883 72.0344C171.775 71.8989 171.614 71.8447 171.426 71.8447C171.238 71.8447 171.077 71.8989 170.97 72.0344C170.862 72.1428 170.809 72.3054 170.809 72.4951V77.6443C170.809 78.1321 170.567 78.5657 170.325 78.918C170.084 79.2975 169.735 79.5956 169.278 79.8124C168.849 80.0292 168.365 80.1376 167.828 80.1376C167.265 80.1376 166.755 80.0292 166.325 79.7853C165.895 79.5685 165.546 79.2162 165.278 78.7554C165.036 78.2947 164.902 77.7256 164.902 76.9939V72.5222C164.902 72.3325 164.848 72.197 164.714 72.0615C164.58 71.926 164.446 71.8718 164.258 71.8718C164.07 71.8718 163.935 71.926 163.801 72.0615C163.667 72.197 163.613 72.3325 163.613 72.5222V76.9939C163.613 77.9424 163.801 78.7283 164.15 79.3788C164.499 80.0292 165.009 80.517 165.627 80.8693C166.244 81.1945 166.942 81.3571 167.721 81.3571C168.446 81.3571 169.09 81.1945 169.654 80.8693C170.111 80.5983 170.513 80.2731 170.809 79.8666V80.246C170.809 80.4357 170.862 80.5983 170.97 80.7338C171.104 80.8422 171.238 80.8964 171.426 80.8964C171.614 80.8964 171.775 80.8422 171.883 80.7338C172.017 80.6254 172.07 80.4628 172.07 80.246V72.4409C172.07 72.3054 172.017 72.1428 171.883 72.0344Z" fill="#606060"/>
<path d="M182.89 71.9797C182.783 71.8442 182.622 71.79 182.434 71.79C182.246 71.79 182.085 71.8442 181.977 71.9797C181.843 72.0882 181.789 72.2508 181.789 72.4405V75.5029H175.883V72.4405C175.883 72.2508 175.829 72.0882 175.695 71.9797C175.587 71.8442 175.426 71.79 175.238 71.79C175.05 71.79 174.889 71.8442 174.782 71.9797C174.675 72.0882 174.621 72.2508 174.621 72.4405V80.3539C174.621 80.5436 174.675 80.7062 174.782 80.8417C174.916 80.9501 175.05 81.0043 175.238 81.0043C175.426 81.0043 175.587 80.9501 175.695 80.8417C175.829 80.7062 175.883 80.5436 175.883 80.3539V76.8037H181.789V80.3539C181.789 80.5436 181.843 80.7062 181.977 80.8417C182.112 80.9501 182.246 81.0043 182.434 81.0043C182.622 81.0043 182.783 80.9501 182.89 80.8417C182.997 80.7062 183.051 80.5436 183.051 80.3539V72.4405C183.051 72.2508 182.997 72.0882 182.89 71.9797Z" fill="#606060"/>
<path d="M194.22 73.9581C193.817 73.2264 193.254 72.6844 192.529 72.2508C191.831 71.8172 191.025 71.6274 190.139 71.6274C189.253 71.6274 188.448 71.8443 187.723 72.2508C186.998 72.6573 186.434 73.2264 186.031 73.9581C185.629 74.6898 185.414 75.5029 185.414 76.3972C185.414 77.2915 185.602 78.1045 186.004 78.8363C186.407 79.568 186.971 80.1371 187.642 80.5436C188.34 80.9501 189.119 81.1669 189.978 81.1669C190.81 81.1669 191.535 80.9772 192.18 80.5978C192.77 80.2455 193.254 79.7848 193.603 79.2157V80.3539C193.603 80.5436 193.656 80.7062 193.79 80.8146C193.898 80.923 194.059 80.9772 194.247 80.9772C194.435 80.9772 194.596 80.923 194.703 80.8146C194.811 80.7062 194.891 80.5436 194.891 80.3539V76.7766V76.4785V76.343C194.891 75.4487 194.623 74.6627 194.22 73.9581ZM193.092 78.2401C192.797 78.7821 192.394 79.1886 191.857 79.5138C191.347 79.8119 190.757 79.9745 190.112 79.9745C189.468 79.9745 188.877 79.8119 188.367 79.5138C187.857 79.2157 187.427 78.7821 187.132 78.2401C186.837 77.698 186.676 77.0747 186.676 76.3972C186.676 75.7197 186.837 75.0964 187.132 74.5543C187.427 74.0123 187.857 73.6058 188.367 73.2806C188.877 72.9554 189.468 72.7928 190.112 72.7928C190.757 72.7928 191.347 72.9554 191.857 73.2806C192.368 73.5787 192.797 74.0123 193.092 74.5543C193.388 75.0964 193.549 75.6926 193.549 76.3972C193.576 77.0747 193.415 77.698 193.092 78.2401Z" fill="#606060"/>
<path d="M203.59 71.844C203.483 71.7085 203.322 71.6543 203.134 71.6543H200.288C199.697 71.6543 199.16 71.7898 198.677 72.0337C198.221 72.2776 197.845 72.657 197.576 73.0906C197.335 73.5243 197.201 74.0392 197.201 74.6354C197.201 75.2045 197.308 75.6923 197.55 76.0988C197.791 76.5324 198.113 76.8577 198.543 77.1016C198.65 77.1558 198.785 77.21 198.892 77.2642L196.717 80.0556C196.61 80.1911 196.556 80.3266 196.556 80.4892C196.556 80.6247 196.637 80.7873 196.771 80.8957C196.878 81.0041 197.039 81.0583 197.227 81.0583C197.442 81.0583 197.603 80.977 197.737 80.8144L200.315 77.6165H202.516V80.3537C202.516 80.5705 202.57 80.7331 202.678 80.8415C202.812 80.9499 202.946 81.0041 203.134 81.0041C203.322 81.0041 203.483 80.9499 203.59 80.8415C203.725 80.706 203.778 80.5434 203.778 80.3537V72.3047C203.778 72.1421 203.725 71.9795 203.59 71.844ZM202.516 76.7764H200.1C199.509 76.7764 199.026 76.6138 198.623 76.2614C198.221 75.9091 198.033 75.4213 198.033 74.8251C198.033 74.256 198.221 73.7953 198.623 73.4701C199.026 73.1177 199.509 72.9551 200.1 72.9551H202.516V76.7764Z" fill="#606060"/>
<path d="M215.108 81.1669C214.222 81.1669 213.416 80.9501 212.718 80.5436C212.02 80.11 211.483 79.5409 211.081 78.8363C210.678 78.1045 210.49 77.2915 210.49 76.3972C210.49 75.4758 210.678 74.6627 211.081 73.9581C211.457 73.2264 211.993 72.6844 212.665 72.2508C213.336 71.8172 214.115 71.6274 214.974 71.6274C215.672 71.6274 216.289 71.7629 216.88 72.034C217.471 72.305 217.981 72.7115 218.437 73.2806C218.571 73.4161 218.598 73.5787 218.571 73.7142C218.544 73.8497 218.437 73.9852 218.276 74.1207C218.142 74.202 218.008 74.2562 217.846 74.2291C217.712 74.202 217.578 74.1207 217.444 73.9852C216.799 73.2264 215.967 72.847 214.974 72.847C214.329 72.847 213.765 73.0096 213.282 73.3077C212.799 73.6058 212.423 74.0394 212.155 74.5814C211.886 75.1235 211.752 75.7468 211.752 76.4243C211.752 77.1018 211.886 77.7251 212.181 78.2671C212.477 78.8092 212.853 79.2157 213.363 79.5409C213.873 79.839 214.464 80.0016 215.108 80.0016C215.537 80.0016 215.94 79.9474 216.316 79.839C216.692 79.7035 217.014 79.5138 217.309 79.2699C217.444 79.1615 217.578 79.0802 217.739 79.0802C217.873 79.0802 218.034 79.1073 218.142 79.2157C218.276 79.3512 218.357 79.4867 218.357 79.6493C218.383 79.8119 218.33 79.9474 218.195 80.0558C217.363 80.7875 216.343 81.1669 215.108 81.1669Z" fill="#606060"/>
<path d="M233.365 73.4972C233.097 72.9009 232.694 72.4673 232.184 72.1421C231.7 71.8169 231.11 71.6543 230.465 71.6543C229.794 71.6543 229.177 71.8169 228.64 72.1421C228.103 72.4673 227.673 72.9009 227.378 73.4972C227.109 72.9551 226.733 72.5486 226.277 72.2505C225.794 71.9253 225.203 71.7627 224.559 71.7627C223.914 71.7627 223.351 71.9253 222.84 72.2505C222.491 72.4673 222.196 72.7654 221.954 73.0906V72.4944C221.954 72.3047 221.901 72.1421 221.767 72.0337C221.659 71.8982 221.498 71.844 221.31 71.844C221.122 71.844 220.961 71.8982 220.827 72.0337C220.719 72.1692 220.666 72.3047 220.666 72.4944V80.2995C220.666 80.4892 220.719 80.6518 220.827 80.7602C220.961 80.8686 221.095 80.9228 221.31 80.9228C221.498 80.9228 221.632 80.8686 221.767 80.7602C221.901 80.6518 221.954 80.4892 221.954 80.2995V75.5026C221.954 74.7709 222.304 74.1476 222.76 73.714C223.19 73.2532 223.753 73.0093 224.451 73.0093C225.096 73.0093 225.606 73.2532 226.009 73.7411C226.411 74.2018 226.626 74.8522 226.626 75.6652V80.5976C226.626 80.7873 226.68 80.9499 226.814 81.0854C226.948 81.1938 227.082 81.248 227.27 81.248C227.458 81.248 227.593 81.1938 227.727 81.0854C227.861 80.9499 227.915 80.7873 227.915 80.5976V75.6652C227.915 75.611 227.915 75.5839 227.915 75.5297C227.915 74.7438 228.291 74.1205 228.72 73.6327C229.15 73.1448 229.714 72.9009 230.412 72.9009C231.056 72.9009 231.566 73.1448 231.969 73.6327C232.372 74.0934 232.586 74.7438 232.586 75.5568V80.4892C232.586 80.6789 232.64 80.8415 232.774 80.977C232.882 81.0854 233.043 81.1396 233.231 81.1396C233.419 81.1396 233.553 81.0854 233.687 80.977C233.821 80.8415 233.875 80.6789 233.875 80.4892V75.5568C233.795 74.7438 233.66 74.0663 233.365 73.4972Z" fill="#606060"/>
<path d="M240.533 81.1667C239.621 81.1667 238.815 80.9499 238.117 80.5434C237.392 80.1369 236.855 79.5677 236.426 78.836C236.023 78.1043 235.808 77.2913 235.808 76.3969C235.808 75.4755 236.023 74.6354 236.426 73.9308C236.828 73.199 237.392 72.657 238.117 72.2234C238.842 71.8169 239.647 71.6001 240.533 71.6001C241.419 71.6001 242.252 71.8169 242.95 72.2234C243.675 72.6299 244.212 73.199 244.641 73.9308C245.044 74.6625 245.259 75.4755 245.259 76.3969C245.259 77.3184 245.044 78.1314 244.641 78.836C244.238 79.5677 243.675 80.1098 242.95 80.5434C242.252 80.977 241.446 81.1667 240.533 81.1667ZM240.533 79.9743C241.178 79.9743 241.768 79.8116 242.305 79.5135C242.816 79.2154 243.245 78.7818 243.54 78.2398C243.836 77.6978 243.97 77.1016 243.97 76.3969C243.97 75.7194 243.836 75.0961 243.54 74.5541C243.245 74.0121 242.842 73.5785 242.305 73.2803C241.795 72.9822 241.205 72.8196 240.533 72.8196C239.862 72.8196 239.298 72.9822 238.761 73.2803C238.251 73.5785 237.822 74.0121 237.526 74.5541C237.231 75.0961 237.097 75.6923 237.097 76.3969C237.097 77.0745 237.231 77.6978 237.526 78.2398C237.822 78.7818 238.251 79.1883 238.761 79.5135C239.298 79.8116 239.889 79.9743 240.533 79.9743Z" fill="#606060"/>
<path d="M257.287 71.9255C257.179 71.79 257.018 71.7358 256.803 71.7358C256.508 71.7358 256.266 71.8713 256.105 72.1424L252.4 77.5625L248.695 72.1424C248.507 71.8713 248.292 71.7358 247.997 71.7358C247.782 71.7358 247.621 71.79 247.514 71.9255C247.406 72.0339 247.353 72.1966 247.353 72.4134V80.4352C247.353 80.6249 247.406 80.7875 247.514 80.923C247.648 81.0314 247.782 81.0856 247.997 81.0856C248.185 81.0856 248.346 81.0314 248.454 80.923C248.561 80.8146 248.615 80.652 248.615 80.4352V74.0665L251.783 78.6466C251.944 78.9176 252.159 79.026 252.4 79.026C252.642 79.026 252.857 78.8905 253.018 78.6466L256.213 73.9852V80.4081C256.213 80.5978 256.266 80.7604 256.374 80.8959C256.481 81.0043 256.642 81.0585 256.83 81.0585C257.018 81.0585 257.179 81.0043 257.287 80.8959C257.421 80.7875 257.475 80.6249 257.475 80.4081V72.3863C257.475 72.1966 257.421 72.0339 257.287 71.9255Z" fill="#606060"/>
<path d="M268.59 73.9581C268.187 73.2264 267.623 72.6844 266.898 72.2508C266.2 71.8172 265.395 71.6274 264.509 71.6274C263.623 71.6274 262.817 71.8443 262.092 72.2508C261.368 72.6573 260.804 73.2264 260.401 73.9581C259.998 74.6898 259.783 75.5029 259.783 76.3972C259.783 77.2915 259.971 78.1045 260.374 78.8363C260.777 79.568 261.341 80.1371 262.012 80.5436C262.71 80.9501 263.489 81.1669 264.348 81.1669C265.18 81.1669 265.905 80.9772 266.549 80.5978C267.167 80.2455 267.65 79.7577 268.026 79.1615V80.3539C268.026 80.5436 268.08 80.7062 268.214 80.8146C268.321 80.923 268.482 80.9772 268.67 80.9772C268.858 80.9772 269.019 80.923 269.127 80.8146C269.234 80.7062 269.315 80.5436 269.315 80.3539V76.7766C269.315 75.8823 268.992 74.6627 268.59 73.9581ZM267.462 78.2401C267.167 78.7821 266.764 79.1886 266.227 79.5138C265.717 79.8119 265.126 79.9745 264.482 79.9745C263.838 79.9745 263.247 79.8119 262.737 79.5138C262.227 79.2157 261.797 78.7821 261.502 78.2401C261.206 77.698 261.045 77.0747 261.045 76.3972C261.045 75.7197 261.206 75.0964 261.502 74.5543C261.797 74.0123 262.227 73.6058 262.737 73.2806C263.247 72.9554 263.838 72.7928 264.482 72.7928C265.126 72.7928 265.717 72.9554 266.227 73.2806C266.737 73.5787 267.167 74.0123 267.462 74.5543C267.757 75.0964 267.918 75.6926 267.918 76.3972C267.945 77.0747 267.784 77.698 267.462 78.2401Z" fill="#606060"/>
<path d="M284.108 73.4972C283.839 72.9009 283.437 72.4673 282.927 72.1421C282.443 71.8169 281.853 71.6543 281.208 71.6543C280.537 71.6543 279.92 71.8169 279.383 72.1421C278.846 72.4673 278.416 72.9009 278.121 73.4972C277.852 72.9551 277.476 72.5486 277.02 72.2505C276.537 71.9253 275.946 71.7627 275.302 71.7627C274.657 71.7627 274.094 71.9253 273.583 72.2505C273.234 72.4673 272.939 72.7654 272.697 73.0906V72.4944C272.697 72.3047 272.644 72.1421 272.509 72.0337C272.402 71.8982 272.241 71.844 272.053 71.844C271.865 71.844 271.704 71.8982 271.57 72.0337C271.462 72.1692 271.409 72.3047 271.409 72.4944V80.2995C271.409 80.4892 271.462 80.6518 271.57 80.7602C271.704 80.8686 271.838 80.9228 272.053 80.9228C272.241 80.9228 272.375 80.8686 272.509 80.7602C272.644 80.6518 272.697 80.4892 272.697 80.2995V75.5026C272.697 74.7709 273.046 74.1476 273.503 73.714C273.932 73.2532 274.496 73.0093 275.194 73.0093C275.839 73.0093 276.349 73.2532 276.751 73.7411C277.154 74.2018 277.369 74.8522 277.369 75.6652V80.5976C277.369 80.7873 277.423 80.9499 277.557 81.0854C277.691 81.1938 277.825 81.248 278.013 81.248C278.201 81.248 278.336 81.1938 278.47 81.0854C278.604 80.9499 278.658 80.7873 278.658 80.5976V75.6652C278.658 75.611 278.658 75.5839 278.658 75.5297C278.658 74.7438 279.034 74.1205 279.463 73.6327C279.893 73.1448 280.457 72.9009 281.155 72.9009C281.799 72.9009 282.309 73.1448 282.712 73.6327C283.115 74.0934 283.329 74.7438 283.329 75.5568V80.4892C283.329 80.6789 283.383 80.8415 283.517 80.977C283.651 81.0854 283.786 81.1396 283.974 81.1396C284.162 81.1396 284.296 81.0854 284.43 80.977C284.564 80.8415 284.618 80.6789 284.618 80.4892V75.5568C284.537 74.7438 284.403 74.0663 284.108 73.4972Z" fill="#606060"/>
<path d="M291.25 81.1667C290.337 81.1667 289.531 80.9499 288.833 80.5434C288.108 80.1369 287.572 79.5677 287.142 78.836C286.739 78.1043 286.524 77.2913 286.524 76.3969C286.524 75.4755 286.739 74.6354 287.142 73.9308C287.545 73.199 288.108 72.657 288.833 72.2234C289.558 71.8169 290.364 71.6001 291.25 71.6001C292.163 71.6001 292.968 71.8169 293.666 72.2234C294.391 72.6299 294.928 73.199 295.357 73.9308C295.76 74.6625 295.975 75.4755 295.975 76.3969C295.975 77.3184 295.76 78.1314 295.357 78.836C294.955 79.5677 294.391 80.1098 293.666 80.5434C292.941 80.977 292.136 81.1667 291.25 81.1667ZM291.25 79.9743C291.894 79.9743 292.485 79.8116 293.022 79.5135C293.532 79.2154 293.961 78.7818 294.257 78.2398C294.552 77.6978 294.686 77.1016 294.686 76.3969C294.686 75.7194 294.552 75.0961 294.257 74.5541C293.961 74.0121 293.559 73.5785 293.022 73.2803C292.512 72.9822 291.921 72.8196 291.25 72.8196C290.605 72.8196 290.015 72.9822 289.478 73.2803C288.968 73.5785 288.538 74.0121 288.243 74.5541C287.947 75.0961 287.813 75.6923 287.813 76.3969C287.813 77.0745 287.947 77.6978 288.243 78.2398C288.538 78.7818 288.968 79.1883 289.478 79.5135C289.988 79.8116 290.579 79.9743 291.25 79.9743Z" fill="#606060"/>
<path d="M305.882 80.3539L302.204 72.2508C302.123 72.0882 302.043 71.9797 301.935 71.8984C301.828 71.8171 301.694 71.79 301.559 71.79C301.291 71.79 301.076 71.9255 300.942 72.2237L297.21 80.2997C297.129 80.4623 297.129 80.6249 297.183 80.7604C297.264 80.8959 297.371 81.0043 297.532 81.0856C297.693 81.1669 297.854 81.194 298.015 81.1398C298.177 81.0856 298.311 80.9772 298.391 80.7875L301.586 73.7413L304.728 80.7875C304.808 80.9501 304.942 81.0856 305.077 81.1398C305.211 81.194 305.399 81.1669 305.56 81.0856C305.721 81.0043 305.828 80.8959 305.882 80.7604C305.963 80.6791 305.963 80.5165 305.882 80.3539Z" fill="#606060"/>
<path d="M311.869 81.1667C310.956 81.1667 310.151 80.9499 309.453 80.5434C308.728 80.1369 308.191 79.5677 307.761 78.836C307.359 78.1043 307.144 77.2913 307.144 76.3969C307.144 75.4755 307.359 74.6354 307.761 73.9308C308.164 73.199 308.728 72.657 309.453 72.2234C310.178 71.8169 310.983 71.6001 311.869 71.6001C312.782 71.6001 313.587 71.8169 314.285 72.2234C315.01 72.6299 315.547 73.199 315.977 73.9308C316.38 74.6625 316.594 75.4755 316.594 76.3969C316.594 77.3184 316.38 78.1314 315.977 78.836C315.574 79.5677 315.01 80.1098 314.285 80.5434C313.587 80.977 312.782 81.1667 311.869 81.1667ZM311.869 79.9743C312.513 79.9743 313.104 79.8116 313.641 79.5135C314.151 79.2154 314.581 78.7818 314.876 78.2398C315.171 77.6978 315.306 77.1016 315.306 76.3969C315.306 75.7194 315.171 75.0961 314.876 74.5541C314.581 74.0121 314.178 73.5785 313.641 73.2803C313.131 72.9822 312.54 72.8196 311.869 72.8196C311.198 72.8196 310.634 72.9822 310.097 73.2803C309.587 73.5785 309.157 74.0121 308.862 74.5541C308.567 75.0961 308.433 75.6923 308.433 76.3969C308.433 77.0745 308.567 77.6978 308.862 78.2398C309.157 78.7818 309.587 79.1883 310.097 79.5135C310.634 79.8116 311.225 79.9743 311.869 79.9743Z" fill="#606060"/>
<path d="M321.561 81.1669C320.89 81.1669 320.299 81.0585 319.762 80.8688C319.226 80.652 318.796 80.381 318.501 80.0016C318.205 79.6222 318.044 79.1886 318.044 78.6737C318.044 78.24 318.152 77.8335 318.393 77.4812C318.635 77.1289 319.011 76.8308 319.521 76.5598C320.031 76.2888 320.729 76.0449 321.561 75.8823C322.313 75.7197 322.85 75.5029 323.119 75.2319C323.414 74.9608 323.548 74.6085 323.548 74.202C323.548 73.7955 323.387 73.4703 323.038 73.2264C322.689 72.9554 322.233 72.8199 321.615 72.8199C321.132 72.8199 320.702 72.9012 320.299 73.0909C319.897 73.2535 319.575 73.4974 319.306 73.7955C319.172 73.931 319.038 74.0123 318.876 74.0394C318.715 74.0665 318.581 74.0665 318.474 73.9852C318.286 73.8768 318.178 73.7413 318.152 73.5787C318.125 73.4161 318.152 73.2535 318.259 73.118C318.581 72.6844 319.038 72.305 319.601 72.034C320.165 71.7629 320.836 71.6274 321.588 71.6274C322.206 71.6274 322.769 71.7358 323.253 71.9256C323.736 72.1153 324.112 72.4134 324.38 72.7928C324.649 73.1722 324.783 73.66 324.783 74.2291C324.783 74.8253 324.568 75.3674 324.112 75.8281C323.655 76.2888 322.904 76.6411 321.857 76.885C320.89 77.1018 320.219 77.3457 319.87 77.6167C319.494 77.8877 319.333 78.2401 319.333 78.6466C319.333 79.0802 319.521 79.4325 319.87 79.6493C320.246 79.8661 320.783 79.9745 321.534 79.9745C322.098 79.9745 322.608 79.8932 323.038 79.7577C323.494 79.6222 323.87 79.3783 324.166 79.026C324.273 78.8905 324.407 78.8092 324.568 78.7821C324.729 78.7279 324.89 78.7821 325.052 78.8905C325.186 79.026 325.266 79.1615 325.293 79.3241C325.293 79.4867 325.24 79.6222 325.132 79.7577C324.756 80.1913 324.219 80.5165 323.575 80.7604C322.877 81.0585 322.233 81.1669 321.561 81.1669Z" fill="#606060"/>
<path d="M344.812 71.844C344.705 71.7085 344.544 71.6543 344.356 71.6543H341.51C340.919 71.6543 340.382 71.7898 339.899 72.0337C339.442 72.2776 339.067 72.657 338.798 73.0906C338.556 73.5243 338.422 74.0392 338.422 74.6354C338.422 75.2045 338.53 75.6923 338.771 76.0988C339.013 76.5324 339.335 76.8577 339.765 77.1016C339.872 77.1558 339.979 77.21 340.087 77.2642L337.912 80.0556C337.805 80.1911 337.751 80.3266 337.751 80.4892C337.751 80.6247 337.832 80.7873 337.966 80.8957C338.073 81.0041 338.234 81.0583 338.422 81.0583C338.637 81.0583 338.798 80.977 338.932 80.8144L341.51 77.6165H343.765V80.3537C343.765 80.5705 343.819 80.7331 343.926 80.8415C344.06 80.9499 344.195 81.0041 344.382 81.0041C344.57 81.0041 344.732 80.9499 344.839 80.8415C344.973 80.706 345.027 80.5434 345.027 80.3537V72.3047C345 72.1421 344.946 71.9795 344.812 71.844ZM343.738 76.7764H341.322C340.731 76.7764 340.248 76.6138 339.845 76.2614C339.442 75.9091 339.254 75.4213 339.254 74.8251C339.254 74.256 339.442 73.7953 339.845 73.4701C340.248 73.1177 340.731 72.9551 341.322 72.9551H343.738V76.7764Z" fill="#606060"/>
<path d="M253.045 54.1471C252.588 53.6051 251.998 53.334 251.273 53.334H249.85C249.017 53.334 248.319 52.9275 247.755 52.0332C247.192 51.0847 246.896 49.8651 246.896 48.3475V18.2927C246.896 18.1843 246.896 18.0759 246.869 17.9404C246.869 17.9404 246.869 16.3414 246.064 15.2574C246.064 15.2303 246.037 15.2303 246.037 15.2032C245.984 15.1219 245.903 15.0406 245.822 14.9593L245.796 14.9322L245.769 14.9051C245.715 14.8509 245.688 14.8238 245.634 14.7696C245.259 14.4172 244.775 14.2275 244.185 14.2275C244.158 14.2275 244.158 14.2275 244.131 14.2275C244.104 14.2275 244.104 14.2275 244.077 14.2275C241.231 14.2275 241.419 17.4254 241.419 17.4254V48.2933C241.419 50.3258 241.768 52.1416 242.466 53.7135C243.164 55.2853 244.158 56.559 245.42 57.4805C246.708 58.3748 248.185 58.8084 249.85 58.8084H250.36C251.299 58.8084 252.078 58.5916 252.696 58.1038C253.367 57.5618 253.689 56.8572 253.689 56.017C253.716 55.3124 253.501 54.6349 253.045 54.1471Z" fill="#606060"/>
<path d="M335.522 72.0339C335.415 71.8984 335.254 71.8442 335.066 71.8442C334.878 71.8442 334.717 71.8984 334.61 72.0339C334.502 72.1423 334.448 72.305 334.448 72.4947V77.6438C334.448 78.1316 334.207 78.5652 333.965 78.9176C333.724 79.297 333.375 79.5951 332.918 79.8119C332.489 80.0287 332.005 80.1371 331.468 80.1371C330.905 80.1371 330.394 80.0287 329.965 79.7848C329.535 79.568 329.186 79.2157 328.918 78.755C328.676 78.2942 328.542 77.7251 328.542 76.9934V72.5218C328.542 72.3321 328.488 72.1965 328.354 72.061C328.22 71.9255 328.085 71.8713 327.898 71.8713C327.71 71.8713 327.575 71.9255 327.441 72.061C327.307 72.1965 327.253 72.3321 327.253 72.5218V76.9934C327.253 77.9419 327.441 78.7278 327.79 79.3783C328.139 80.0287 328.649 80.5165 329.267 80.8688C329.884 81.194 330.582 81.3566 331.361 81.3566C332.086 81.3566 332.73 81.194 333.294 80.8688C333.75 80.5978 334.153 80.2726 334.448 79.8661V80.2455C334.448 80.4352 334.502 80.5978 334.61 80.7333C334.744 80.8417 334.878 80.8959 335.066 80.8959C335.254 80.8959 335.415 80.8417 335.522 80.7333C335.657 80.6249 335.71 80.4623 335.71 80.2455V72.4405C335.684 72.3049 335.63 72.1423 335.522 72.0339Z" fill="#606060"/>
</g>
<defs>
<clipPath id="clip0_918_77">
<rect width="345" height="95.5576" fill="white"/>
</clipPath>
</defs>
</svg>
