<?xml version="1.0" encoding="utf-8"?>
<!-- Generator: Adobe Illustrator 20.1.0, SVG Export Plug-In . SVG Version: 6.00 Build 0)  -->
<svg version="1.1" id="Layer_1" xmlns="http://www.w3.org/2000/svg" xmlns:xlink="http://www.w3.org/1999/xlink" x="0px" y="0px"
	 viewBox="0 0 512 512" style="enable-background:new 0 0 512 512;" xml:space="preserve">
<style type="text/css">
	.st0{fill:#FFFFFF;}
</style>
<g>
	<g>
		<path class="st0" d="M512,149.4c0-4-2.3-7.6-6-9.3L260.2,28.6c-2.7-1.2-5.8-1.2-8.4,0c0,0,0,0,0,0L6,140.1c-3.6,1.7-6,5.3-6,9.3h0
			v213.7c0,4,2.3,7.6,6,9.3l245.8,110.9c1.3,0.6,2.8,0.9,4.2,0.9c1.4,0,2.9-0.3,4.2-0.9l0,0l0,0c0,0,0,0,0,0L506,372.4
			c3.7-1.6,6-5.3,6-9.3L512,149.4C512,149.4,512,149.4,512,149.4z M245.8,458.3L20.4,356.5V164.9l15.2,6.6l210.2,91.2L245.8,458.3
			L245.8,458.3z M245.8,240.5l-12.1-5.3L55.6,158h190.2V240.5z M245.8,137.6H61l184.8-83.8V137.6z M266.2,158H358
			c5.6,0,10.2-4.6,10.2-10.2s-4.6-10.2-10.2-10.2h-91.8V53.8l210.4,95.4l-198.3,86l-12.1,5.3V158z M491.6,356.5L266.2,458.3V262.7
			l210.2-91.2l15.2-6.6L491.6,356.5L491.6,356.5z"/>
	</g>
</g>
<g>
	<g>
		<path class="st0" d="M400.8,137.6h-7.1c-5.6,0-10.2,4.6-10.2,10.2s4.6,10.2,10.2,10.2h7.1c5.6,0,10.2-4.6,10.2-10.2
			S406.5,137.6,400.8,137.6z"/>
	</g>
</g>
<g>
	<g>
		<path class="st0" d="M429.7,250.2c-2.9-1.9-6.5-2.2-9.7-0.8l-77.8,33.7c-3.7,1.6-6.1,5.3-6.1,9.4v69c0,3.5,1.8,6.7,4.7,8.6
			c1.7,1.1,3.6,1.6,5.5,1.6c1.4,0,2.9-0.3,4.2-0.9l77.8-35.1c3.7-1.6,6-5.3,6-9.3v-67.7C434.3,255.3,432.6,252.1,429.7,250.2z
			 M413.9,319.8l-57.4,25.9v-46.5l57.4-24.9V319.8z"/>
	</g>
</g>
</svg>
