<?xml version="1.0" encoding="utf-8"?>
<!-- Generator: Adobe Illustrator 20.1.0, SVG Export Plug-In . SVG Version: 6.00 Build 0)  -->
<svg version="1.1" id="Layer_1" xmlns="http://www.w3.org/2000/svg" xmlns:xlink="http://www.w3.org/1999/xlink" x="0px" y="0px"
	 viewBox="0 0 512 512" style="enable-background:new 0 0 512 512;" xml:space="preserve">
<style type="text/css">
	.st0{fill:#FFFFFF;}
</style>
<g>
	<g>
		<g>
			<path class="st0" d="M85.7,49C65.4,49,49,65.4,49,85.7s16.5,36.7,36.7,36.7c20.2,0,36.7-16.5,36.7-36.7S105.9,49,85.7,49z
				 M85.7,102c-9,0-16.3-7.3-16.3-16.3s7.3-16.3,16.3-16.3S102,76.7,102,85.7C102,94.7,94.7,102,85.7,102z"/>
			<path class="st0" d="M499.2,265.2L279.6,45.6c-6.5-6.5-14.8-10.8-23.9-12.2L50.5,0.6c-14-2.2-27.7,2.2-37.7,12.2
				c-10,10-14.5,23.7-12.2,37.7l32.8,205.2c1.5,9.1,5.7,17.4,12.2,23.9l219.6,219.6c8.2,8.2,19.2,12.8,30.8,12.8
				c11.6,0,22.6-4.5,30.8-12.8l172.4-172.4C516.2,309.8,516.2,282.2,499.2,265.2z M484.8,312.4L312.4,484.8c-9,9-23.8,9-32.8,0
				L60,265.2c-3.5-3.5-5.7-7.9-6.5-12.7L20.7,47.3c-1.2-7.4,1.2-14.7,6.5-20.1c4.4-4.4,10.2-6.8,16.3-6.8c1.2,0,2.5,0.1,3.8,0.3
				l205.2,32.8c4.9,0.8,9.3,3,12.7,6.5l219.6,219.6v0C493.9,288.7,493.9,303.4,484.8,312.4z"/>
		</g>
	</g>
</g>
<g>
	<g>
		<path class="st0" d="M323.4,188.6c-4-4-10.4-4-14.4,0L188.6,309c-4,4-4,10.4,0,14.4c2,2,4.6,3,7.2,3s5.2-1,7.2-3L323.4,203
			C327.4,199.1,327.4,192.6,323.4,188.6z"/>
	</g>
</g>
<g>
	<g>
		<path class="st0" d="M364.2,229.4c-4-4-10.4-4-14.4,0l-3.1,3.1c-4,4-4,10.4,0,14.4c2,2,4.6,3,7.2,3c2.6,0,5.2-1,7.2-3l3.1-3.1
			C368.2,239.9,368.2,233.4,364.2,229.4z"/>
	</g>
</g>
<g>
	<g>
		<path class="st0" d="M337.7,255.9c-4-4-10.4-4-14.4,0l-93.8,93.8c-4,4-4,10.4,0,14.4c2,2,4.6,3,7.2,3s5.2-1,7.2-3l93.8-93.8
			C341.7,266.4,341.7,259.9,337.7,255.9z"/>
	</g>
</g>
</svg>
