<svg width="138" height="40" viewBox="0 0 138 40" fill="none" xmlns="http://www.w3.org/2000/svg">
<g clip-path="url(#clip0_1179_4393)">
<path d="M37.1449 31.2428V20.9835H31.0905V24.4033H28.0692H25.048H23.4231H22.0148H12.9512C9.61702 24.4033 6.89673 21.3377 6.89673 17.5501V10.697H22.0148V3.85742H6.89673H0.842285V17.5501C0.842285 25.1117 6.25879 31.2428 12.9391 31.2428H31.0905H37.1449Z" fill="#606060"/>
<path d="M37.1813 32.959H25.0845C25.0845 36.733 27.7927 39.8121 31.1389 39.8121H43.1997C43.2117 36.0381 40.5155 32.959 37.1813 32.959Z" fill="#606060"/>
<path d="M31.0901 7.29066H34.1113V10.6968V14.1166H40.1657V10.6968V7.29066V0.4375H34.1113H31.0901H28.0688V7.29066H30.3197H31.0901Z" fill="#606060"/>
<path d="M52.9731 8.14857V2.14014H53.5268V7.60359H56.7286V2.14014H57.2823V8.14857H52.9731ZM57.6073 9.56553V7.98508L57.7517 8.1622H56.7406V7.61721H58.1369V9.56553H57.6073Z" fill="#606060"/>
<path d="M59.8221 7.60359H63.0118V8.14857H59.2563V2.14014H62.8914V2.68512H59.81V7.60359H59.8221ZM59.7619 4.8378H62.5664V5.38278H59.7619V4.8378Z" fill="#606060"/>
<path d="M64.8294 8.14857H64.2637V2.14014H64.8294V8.14857ZM68.1997 5.38278H64.7692V4.82418H68.1997V5.38278ZM68.1515 2.14014H68.7052V8.14857H68.1515V2.14014Z" fill="#606060"/>
<path d="M71.5698 8.14911V2.52216L71.7263 2.69928H69.7041V2.1543H73.9892V2.69928H71.979L72.1235 2.52216V8.14911H71.5698V8.14911Z" fill="#606060"/>
<path d="M74.9878 8.14857V2.14014H76.9738C77.4192 2.14014 77.8164 2.22188 78.1294 2.38538C78.4544 2.54887 78.7071 2.78049 78.8756 3.09386C79.0442 3.3936 79.1404 3.77509 79.1404 4.21107C79.1404 4.63343 79.0562 5.0013 78.8756 5.30104C78.7071 5.60078 78.4544 5.84602 78.1294 6.00951C77.8044 6.17301 77.4192 6.25476 76.9738 6.25476H75.3008L75.5535 5.95502V8.14857H74.9878ZM75.5415 6.00951L75.2887 5.69615H76.9498C77.4794 5.69615 77.8886 5.5599 78.1534 5.30104C78.4303 5.04217 78.5627 4.67431 78.5627 4.19745C78.5627 3.72059 78.4303 3.3391 78.1534 3.08023C77.8766 2.82137 77.4794 2.68512 76.9498 2.68512H75.2887L75.5415 2.38538V6.00951Z" fill="#606060"/>
<path d="M84.702 8.20342C84.3048 8.20342 83.9317 8.12167 83.5947 7.9718C83.2576 7.82193 82.9687 7.60393 82.716 7.33144C82.4632 7.05895 82.2706 6.73196 82.1382 6.3641C81.9938 5.99624 81.9336 5.5875 81.9336 5.15151C81.9336 4.71553 82.0058 4.30679 82.1382 3.93893C82.2827 3.57106 82.4752 3.24407 82.728 2.97158C82.9808 2.69909 83.2697 2.4811 83.6067 2.33123C83.9437 2.18136 84.3169 2.09961 84.7141 2.09961C85.0992 2.09961 85.4603 2.16773 85.7974 2.3176C86.1344 2.46747 86.4233 2.68547 86.652 2.97158L86.2909 3.38032C86.0742 3.13508 85.8335 2.94433 85.5687 2.83534C85.3039 2.72634 85.027 2.67184 84.7141 2.67184C84.4011 2.67184 84.1002 2.73996 83.8234 2.86259C83.5465 2.98521 83.3178 3.16233 83.1132 3.38032C82.9086 3.61194 82.7521 3.8708 82.6438 4.17054C82.5354 4.47028 82.4752 4.79727 82.4752 5.16514C82.4752 5.533 82.5354 5.85999 82.6438 6.15973C82.7521 6.45947 82.9206 6.71834 83.1132 6.94995C83.3178 7.18157 83.5585 7.34507 83.8234 7.46769C84.1002 7.59031 84.3891 7.65843 84.7141 7.65843C85.015 7.65843 85.3039 7.60393 85.5687 7.48131C85.8335 7.37232 86.0742 7.18157 86.2909 6.93633L86.652 7.34507C86.4233 7.63118 86.1344 7.8628 85.7974 8.01267C85.4483 8.13529 85.0872 8.20342 84.702 8.20342Z" fill="#606060"/>
<path d="M90.0342 8.20342C89.637 8.20342 89.2639 8.12167 88.9268 7.9718C88.5898 7.82193 88.2889 7.60393 88.0361 7.33144C87.7834 7.05895 87.5908 6.73196 87.4463 6.3641C87.3019 5.99624 87.2417 5.5875 87.2417 5.15151C87.2417 4.71553 87.3139 4.30679 87.4463 3.93893C87.5787 3.57106 87.7834 3.24407 88.0361 2.97158C88.2889 2.69909 88.5778 2.4811 88.9148 2.33123C89.2518 2.18136 89.625 2.09961 90.0342 2.09961C90.4314 2.09961 90.8046 2.18136 91.1416 2.33123C91.4786 2.4811 91.7795 2.69909 92.0203 2.97158C92.273 3.24407 92.4656 3.57106 92.6101 3.93893C92.7545 4.30679 92.8147 4.71553 92.8147 5.15151C92.8147 5.5875 92.7425 5.99624 92.6101 6.3641C92.4656 6.73196 92.273 7.05895 92.0203 7.33144C91.7675 7.60393 91.4786 7.82193 91.1416 7.9718C90.8046 8.13529 90.4314 8.20342 90.0342 8.20342ZM90.0342 7.64481C90.3472 7.64481 90.6481 7.57669 90.9129 7.45406C91.1777 7.33144 91.4184 7.15432 91.6231 6.93633C91.8277 6.70471 91.9842 6.44585 92.0925 6.14611C92.2008 5.84637 92.261 5.51938 92.261 5.15151C92.261 4.78365 92.2008 4.45666 92.0925 4.15692C91.9842 3.85718 91.8277 3.59831 91.6231 3.36669C91.4184 3.13508 91.1897 2.97158 90.9129 2.84896C90.6481 2.72634 90.3472 2.65822 90.0342 2.65822C89.7213 2.65822 89.4203 2.72634 89.1435 2.84896C88.8667 2.97158 88.638 3.1487 88.4333 3.36669C88.2287 3.59831 88.0722 3.85718 87.9639 4.15692C87.8556 4.45666 87.7954 4.78365 87.7954 5.15151C87.7954 5.50575 87.8556 5.83274 87.9639 6.13248C88.0722 6.43222 88.2287 6.70471 88.4333 6.92271C88.638 7.15432 88.8667 7.31782 89.1435 7.44044C89.4203 7.57669 89.7213 7.64481 90.0342 7.64481Z" fill="#606060"/>
<path d="M93.2119 9.4974L93.2239 7.60359H98.9053V9.4974H98.3877V8.14857H93.7536L93.7415 9.4974H93.2119ZM97.5572 7.84883V2.69874H95.0174L94.9693 4.15657C94.9572 4.60618 94.9332 5.04217 94.897 5.45091C94.8609 5.85964 94.8128 6.24113 94.7406 6.56812C94.6684 6.89511 94.5841 7.1676 94.4637 7.37197C94.3554 7.57634 94.1989 7.69896 94.0184 7.72621L93.4045 7.60359C93.6091 7.61721 93.7776 7.53547 93.91 7.35835C94.0424 7.18123 94.1508 6.93598 94.223 6.60899C94.2952 6.282 94.3554 5.91414 94.3915 5.47816C94.4276 5.04217 94.4517 4.57893 94.4637 4.08845L94.5239 2.14014H98.0988V7.84883H97.5572Z" fill="#606060"/>
<path d="M100.626 7.60359H103.816V8.14857H100.06V2.14014H103.695V2.68512H100.614V7.60359H100.626ZM100.566 4.8378H103.37V5.38278H100.566V4.8378Z" fill="#606060"/>
<path d="M105.068 8.14908V2.14065H105.622V7.11362L109.016 2.14065H109.521V8.14908H108.968V3.18974L105.585 8.14908H105.068ZM107.283 1.70466C106.897 1.70466 106.609 1.60929 106.38 1.41855C106.163 1.2278 106.043 0.955313 106.043 0.601074H106.464C106.464 0.832692 106.548 1.00981 106.693 1.14606C106.837 1.2823 107.042 1.3368 107.283 1.3368C107.523 1.3368 107.716 1.26868 107.872 1.14606C108.017 1.00981 108.101 0.832692 108.101 0.601074H108.522C108.522 0.955313 108.402 1.2278 108.185 1.41855C107.957 1.60929 107.668 1.70466 107.283 1.70466Z" fill="#606060"/>
<path d="M113.662 8.20342C113.265 8.20342 112.892 8.12167 112.555 7.9718C112.218 7.82193 111.929 7.60393 111.676 7.33144C111.423 7.05895 111.231 6.73196 111.098 6.3641C110.954 5.99624 110.894 5.5875 110.894 5.15151C110.894 4.71553 110.966 4.30679 111.098 3.93893C111.243 3.57106 111.435 3.24407 111.688 2.97158C111.941 2.69909 112.23 2.4811 112.567 2.33123C112.904 2.18136 113.277 2.09961 113.674 2.09961C114.059 2.09961 114.42 2.16773 114.757 2.3176C115.094 2.46747 115.383 2.68547 115.612 2.97158L115.251 3.38032C115.034 3.13508 114.793 2.94433 114.529 2.83534C114.264 2.72634 113.987 2.67184 113.674 2.67184C113.361 2.67184 113.06 2.73996 112.783 2.86259C112.506 2.98521 112.278 3.16233 112.073 3.38032C111.869 3.61194 111.712 3.8708 111.604 4.17054C111.495 4.47028 111.435 4.79727 111.435 5.16514C111.435 5.533 111.495 5.85999 111.604 6.15973C111.712 6.45947 111.881 6.71834 112.073 6.94995C112.278 7.18157 112.519 7.34507 112.783 7.46769C113.06 7.59031 113.349 7.65843 113.674 7.65843C113.975 7.65843 114.264 7.60393 114.529 7.48131C114.793 7.37232 115.034 7.18157 115.251 6.93633L115.612 7.34507C115.383 7.63118 115.094 7.8628 114.757 8.01267C114.408 8.13529 114.047 8.20342 113.662 8.20342Z" fill="#606060"/>
<path d="M117.767 8.14911V2.52216L117.923 2.69928H115.901V2.1543H120.186V2.69928H118.176L118.32 2.52216V8.14911H117.767V8.14911Z" fill="#606060"/>
<path d="M121.185 8.14857V2.14014H123.388C123.954 2.14014 124.387 2.27638 124.712 2.53525C125.037 2.79412 125.193 3.1756 125.193 3.67971C125.193 4.18382 125.037 4.55169 124.736 4.81055C124.423 5.06942 124.026 5.19204 123.52 5.19204L123.653 4.97405C124.242 4.97405 124.7 5.11029 125.001 5.36916C125.314 5.62803 125.458 6.02314 125.458 6.52725C125.458 7.04498 125.302 7.44009 124.977 7.72621C124.652 8.01233 124.17 8.14857 123.532 8.14857H121.185ZM121.739 4.86505H123.364C123.773 4.86505 124.086 4.76968 124.303 4.59256C124.519 4.40182 124.628 4.12932 124.628 3.76146C124.628 3.3936 124.519 3.12111 124.303 2.93036C124.086 2.73962 123.773 2.65787 123.364 2.65787H121.739V4.86505ZM121.739 7.64446H123.532C123.978 7.64446 124.327 7.54909 124.555 7.35835C124.784 7.1676 124.904 6.88149 124.904 6.48637C124.904 6.09126 124.784 5.80515 124.555 5.62803C124.327 5.45091 123.978 5.35553 123.532 5.35553H121.739V7.64446V7.64446Z" fill="#606060"/>
<path d="M126.878 8.14857V2.14014H127.432V7.1131L130.826 2.14014H131.332V8.14857H130.778V3.18923L127.384 8.1622H126.878V8.14857Z" fill="#606060"/>
<path d="M136.351 8.14911V6.15992L136.507 6.33704H134.774C134.353 6.33704 133.992 6.25529 133.691 6.0918C133.39 5.9283 133.161 5.68306 133.005 5.38332C132.848 5.08358 132.764 4.71572 132.764 4.27973C132.764 3.81649 132.848 3.43501 133.017 3.12164C133.185 2.80828 133.438 2.56303 133.751 2.39954C134.064 2.23604 134.437 2.1543 134.858 2.1543H136.917V8.16273H136.351V8.14911ZM132.752 8.14911L134.052 6.0373H134.63L133.354 8.14911H132.752ZM136.351 5.9828V2.50854L136.507 2.68565H134.87C134.377 2.68565 133.992 2.8219 133.727 3.08077C133.462 3.35326 133.318 3.73475 133.318 4.23886C133.318 4.72934 133.438 5.11083 133.691 5.3697C133.944 5.64219 134.317 5.76481 134.81 5.76481H136.495L136.351 5.9828Z" fill="#606060"/>
<path d="M52.9731 18.0953V12.0869H53.5268V17.0599L56.9212 12.0869H57.4267V18.0953H56.873V13.136L53.4787 18.109H52.9731V18.0953Z" fill="#606060"/>
<path d="M59.7981 18.0953H59.2324V12.0869H59.7981V18.0953ZM63.1684 15.3296H59.738V14.771H63.1684V15.3296ZM63.1203 12.0869H63.674V18.0953H63.1203V12.0869Z" fill="#606060"/>
<path d="M66.0335 18.0953H65.4678V12.0869H66.0335V18.0953ZM69.4158 15.3296H65.9853V14.771H69.4158V15.3296ZM69.3556 12.0869H69.9093V18.0953H69.3556V12.0869Z" fill="#606060"/>
<path d="M74.0493 18.1492C73.6521 18.1492 73.279 18.0675 72.942 17.9176C72.6049 17.7677 72.304 17.5497 72.0513 17.2772C71.7985 17.0048 71.6059 16.6778 71.4615 16.3099C71.317 15.942 71.2568 15.5333 71.2568 15.0973C71.2568 14.6613 71.3291 14.2526 71.4615 13.8847C71.5939 13.5169 71.7985 13.1899 72.0513 12.9174C72.304 12.6449 72.5929 12.4269 72.9299 12.277C73.267 12.1272 73.6401 12.0454 74.0493 12.0454C74.4466 12.0454 74.8197 12.1272 75.1567 12.277C75.4937 12.4269 75.7947 12.6449 76.0354 12.9174C76.2882 13.1899 76.4808 13.5169 76.6252 13.8847C76.7696 14.2526 76.8298 14.6613 76.8298 15.0973C76.8298 15.5333 76.7576 15.942 76.6252 16.3099C76.4808 16.6778 76.2882 17.0048 76.0354 17.2772C75.7826 17.5497 75.4937 17.7677 75.1567 17.9176C74.8077 18.0811 74.4466 18.1492 74.0493 18.1492ZM74.0493 17.5906C74.3623 17.5906 74.6632 17.5225 74.928 17.3999C75.1928 17.2772 75.4336 17.1001 75.6382 16.8821C75.8428 16.6505 75.9993 16.3916 76.1076 16.0919C76.2159 15.7922 76.2761 15.4652 76.2761 15.0973C76.2761 14.7295 76.2159 14.4025 76.1076 14.1027C75.9993 13.803 75.8428 13.5441 75.6382 13.3125C75.4336 13.0809 75.2049 12.9174 74.928 12.7948C74.6632 12.6721 74.3623 12.604 74.0493 12.604C73.7364 12.604 73.4355 12.6721 73.1586 12.7948C72.8818 12.9174 72.6531 13.0945 72.4485 13.3125C72.2438 13.5441 72.0874 13.803 71.979 14.1027C71.8707 14.4025 71.8105 14.7295 71.8105 15.0973C71.8105 15.4516 71.8707 15.7785 71.979 16.0783C72.0874 16.378 72.2438 16.6505 72.4485 16.8685C72.6531 17.1001 72.8818 17.2636 73.1586 17.3862C73.4355 17.5225 73.7244 17.5906 74.0493 17.5906Z" fill="#606060"/>
<path d="M78.1899 18.0953V12.0869H80.3927C80.9584 12.0869 81.3917 12.2232 81.7167 12.482C82.0417 12.7409 82.1982 13.1224 82.1982 13.6265C82.1982 14.1306 82.0417 14.4985 81.7408 14.7573C81.4278 15.0162 81.0306 15.1388 80.5251 15.1388L80.6575 14.9208C81.2473 14.9208 81.7046 15.0571 82.0056 15.3159C82.3185 15.5748 82.463 15.9699 82.463 16.474C82.463 16.9918 82.3065 17.3869 81.9815 17.673C81.6565 17.9591 81.175 18.0953 80.5371 18.0953H78.1899V18.0953ZM78.7436 14.8118H80.3686C80.7778 14.8118 81.0908 14.7165 81.3074 14.5393C81.5241 14.3486 81.6324 14.0761 81.6324 13.7082C81.6324 13.3404 81.5241 13.0679 81.3074 12.8771C81.0908 12.6864 80.7778 12.6046 80.3686 12.6046H78.7436V14.8118ZM78.7436 17.5912H80.5371C80.9825 17.5912 81.3315 17.4959 81.5602 17.3051C81.7889 17.1144 81.9093 16.8283 81.9093 16.4332C81.9093 16.038 81.7889 15.7519 81.5602 15.5748C81.3315 15.3977 80.9825 15.3023 80.5371 15.3023H78.7436V17.5912Z" fill="#606060"/>
<path d="M83.1016 18.0953L85.533 12.0869H86.0867L88.5181 18.0953H87.9283L85.7015 12.4548H85.9302L83.6793 18.0953H83.1016ZM84.0525 16.5013L84.221 15.9835H87.3024L87.4709 16.5013H84.0525Z" fill="#606060"/>
<path d="M89.5405 18.0953V12.0869H90.0942V17.5504H93.296V12.0869H93.8497V18.0953H89.5405ZM94.1746 19.5123V17.9319L94.3191 18.109H93.308V17.564H94.7043V19.5123H94.1746Z" fill="#606060"/>
<path d="M95.8237 18.0953V12.0869H96.3774V17.0599L99.7718 12.0869H100.277V18.0953H99.7236V13.136L96.3293 18.109H95.8237V18.0953Z" fill="#606060"/>
<path d="M105.297 18.0954V16.1062L105.453 16.2833H103.72C103.299 16.2833 102.938 16.2016 102.637 16.0381C102.336 15.8746 102.107 15.6293 101.951 15.3296C101.794 15.0299 101.71 14.662 101.71 14.226C101.71 13.7628 101.794 13.3813 101.963 13.0679C102.131 12.7546 102.384 12.5093 102.697 12.3458C103.01 12.1823 103.383 12.1006 103.804 12.1006H105.862V18.109H105.297V18.0954ZM101.698 18.0954L102.998 15.9836H103.575L102.3 18.0954H101.698ZM105.297 15.9291V12.4548L105.453 12.6319H103.816C103.323 12.6319 102.938 12.7682 102.673 13.0271C102.408 13.2995 102.263 13.681 102.263 14.1851C102.263 14.6756 102.384 15.0571 102.637 15.316C102.889 15.5885 103.263 15.7111 103.756 15.7111H105.441L105.297 15.9291Z" fill="#606060"/>
<path d="M107.656 18.0953V12.0869H108.113L110.545 16.7738H110.304L112.711 12.0869H113.169V18.0953H112.627V13.0406H112.759L110.545 17.3324H110.28L108.053 13.0406H108.197V18.0953H107.656Z" fill="#606060"/>
<path d="M52.9731 28.0407V22.0322H55.1759C55.7416 22.0322 56.1749 22.1685 56.4999 22.4273C56.8249 22.6862 56.9814 23.0677 56.9814 23.5718C56.9814 24.0759 56.8249 24.4438 56.524 24.7026C56.211 24.9615 55.8138 25.0841 55.3083 25.0841L55.4407 24.8661C56.0305 24.8661 56.4879 25.0024 56.7888 25.2612C57.1017 25.5201 57.2462 25.9152 57.2462 26.4193C57.2462 26.9371 57.0897 27.3322 56.7647 27.6183C56.4397 27.9044 55.9582 28.0407 55.3203 28.0407H52.9731V28.0407ZM53.5268 24.7571H55.1518C55.561 24.7571 55.874 24.6618 56.0906 24.4846C56.3073 24.3075 56.4156 24.0214 56.4156 23.6535C56.4156 23.2857 56.3073 23.0132 56.0906 22.8225C55.874 22.6317 55.561 22.55 55.1518 22.55H53.5268V24.7571ZM53.5268 27.5366H55.3203C55.7657 27.5366 56.1147 27.4412 56.3434 27.2504C56.5721 27.0597 56.6925 26.7736 56.6925 26.3785C56.6925 25.9834 56.5721 25.6972 56.3434 25.5201C56.1147 25.343 55.7657 25.2476 55.3203 25.2476H53.5268V27.5366Z" fill="#606060"/>
<path d="M60.6646 28.0407V22.0322H62.6506C63.096 22.0322 63.4932 22.114 63.8061 22.2775C64.1311 22.441 64.3839 22.6726 64.5524 22.9859C64.7209 23.2857 64.8172 23.6672 64.8172 24.1032C64.8172 24.5255 64.7329 24.8934 64.5524 25.1931C64.3839 25.4929 64.1311 25.7381 63.8061 25.9016C63.4811 26.0651 63.096 26.1468 62.6506 26.1468H60.9775L61.2303 25.8471V28.0407H60.6646ZM61.2303 25.9016L60.9775 25.5882H62.6386C63.1682 25.5882 63.5774 25.452 63.8422 25.1931C64.107 24.9343 64.2515 24.5664 64.2515 24.0895C64.2515 23.6127 64.1191 23.2312 63.8422 22.9723C63.5654 22.7135 63.1682 22.5772 62.6386 22.5772H60.9775L61.2303 22.2775V25.9016V25.9016Z" fill="#606060"/>
<path d="M66.5385 27.4957H69.7283V28.0407H65.9849V22.0322H69.6199V22.5772H66.5385V27.4957ZM66.4784 24.7299H69.2829V25.2749H66.4784V24.7299Z" fill="#606060"/>
<path d="M73.3036 28.095C72.9064 28.095 72.5332 28.0133 72.1962 27.8634C71.8592 27.7135 71.5703 27.4955 71.3175 27.223C71.0648 26.9506 70.8722 26.6236 70.7398 26.2557C70.5953 25.8878 70.5352 25.4791 70.5352 25.0431C70.5352 24.6071 70.6074 24.1984 70.7398 23.8305C70.8842 23.4627 71.0768 23.1357 71.3296 22.8632C71.5824 22.5907 71.8712 22.3727 72.2083 22.2228C72.5453 22.073 72.9184 21.9912 73.3156 21.9912C73.7008 21.9912 74.0619 22.0593 74.3989 22.2092C74.736 22.3591 75.0248 22.5771 75.2535 22.8632L74.8924 23.2719C74.6758 23.0267 74.435 22.8359 74.1702 22.7269C73.9054 22.6179 73.6286 22.5634 73.3156 22.5634C73.0027 22.5634 72.7018 22.6316 72.4249 22.7542C72.1481 22.8768 71.9194 23.0539 71.7147 23.2719C71.5101 23.5035 71.3537 23.7624 71.2453 24.0621C71.137 24.3619 71.0768 24.6889 71.0768 25.0567C71.0768 25.411 71.137 25.7516 71.2453 26.0513C71.3537 26.3511 71.5222 26.6099 71.7147 26.8416C71.9194 27.0732 72.1601 27.2367 72.4249 27.3593C72.7018 27.4819 72.9906 27.55 73.3156 27.55C73.6166 27.55 73.9054 27.4955 74.1702 27.3729C74.435 27.2639 74.6758 27.0732 74.8924 26.8279L75.2535 27.2367C75.0248 27.5228 74.736 27.7544 74.3989 27.9043C74.0499 28.0269 73.6888 28.095 73.3036 28.095Z" fill="#606060"/>
<path d="M76.4204 28.0407V22.0322H80.886V28.0407H80.3323V22.4137L80.4768 22.5908H76.8297L76.9741 22.4137V28.0407H76.4204V28.0407Z" fill="#606060"/>
<path d="M84.2565 26.9643L81.9575 22.0322H82.5594L84.5574 26.433L84.2565 26.9643ZM82.6075 27.4548C82.8603 27.5638 83.113 27.591 83.3297 27.5366C83.5584 27.4821 83.763 27.2777 83.9556 26.9371L84.2084 26.4738L84.2565 26.3921L86.2907 22.0459H86.8564L84.4491 27.0733C84.2926 27.4276 84.1 27.6864 83.8713 27.8499C83.6547 28.027 83.414 28.1088 83.1732 28.1224C82.9325 28.136 82.6797 28.0815 82.439 27.9725L82.6075 27.4548Z" fill="#606060"/>
<path d="M87.7593 28.0407V22.0322H91.6471V22.5772H88.313V24.5391H90.0462C90.6722 24.5391 91.1536 24.689 91.4786 24.9751C91.8036 25.2613 91.9721 25.6836 91.9721 26.2558C91.9721 26.8281 91.7916 27.2777 91.4425 27.5911C91.0934 27.9044 90.5879 28.0543 89.9259 28.0543H87.7593V28.0407ZM88.313 27.5366H89.9259C90.4194 27.5366 90.7925 27.4276 91.0332 27.2096C91.274 26.9916 91.4064 26.6782 91.4064 26.2695C91.4064 25.452 90.9129 25.0433 89.9259 25.0433H88.313V27.5366V27.5366Z" fill="#606060"/>
<path d="M92.7421 28.0957C92.6699 28.0957 92.5976 28.0957 92.5375 28.0821C92.4773 28.0684 92.393 28.0548 92.3208 28.0412L92.369 27.469C92.4532 27.4962 92.5375 27.5098 92.6217 27.5098C92.8504 27.5098 93.031 27.4145 93.1754 27.2101C93.3198 27.0057 93.4161 26.6924 93.4884 26.27C93.5606 25.8476 93.6087 25.289 93.6208 24.6214L93.693 22.0464H97.2919V28.0548H96.7383V22.4279L96.8827 22.605H94.042L94.1745 22.4279L94.1022 24.6214C94.0782 25.2209 94.042 25.7386 93.9939 26.1746C93.9458 26.6106 93.8615 26.9785 93.7532 27.2646C93.6448 27.5507 93.5124 27.7687 93.3439 27.905C93.1874 28.0276 92.9828 28.0957 92.7421 28.0957Z" fill="#606060"/>
<path d="M99.0977 28.0407V22.0322H99.6513V27.0052L103.046 22.0322H103.551V28.0407H102.998V23.0677L99.6032 28.0407H99.0977Z" fill="#606060"/>
<path d="M105.357 28.0407V22.0322H105.899V28.0407H105.357ZM105.742 25.2885V24.7299H107.403V25.2885H105.742ZM107.451 25.1114L106.934 25.0024L108.908 22.0322H109.51L107.451 25.1114ZM108.992 28.0407L106.958 25.0433L107.415 24.7299L109.642 28.0407H108.992Z" fill="#606060"/>
<path d="M111.074 27.4957H114.264V28.0407H110.521V22.0322H114.156V22.5772H111.074V27.4957ZM111.014 24.7299H113.819V25.2749H111.014V24.7299Z" fill="#606060"/>
<path d="M52.9731 37.987V31.9785H56.861V32.5235H53.5268V34.4854H55.2601C55.886 34.4854 56.3675 34.6353 56.6925 34.9214C57.0175 35.2075 57.186 35.6299 57.186 36.2021C57.186 36.7744 57.0054 37.224 56.6564 37.5373C56.3073 37.8507 55.8018 38.0006 55.1397 38.0006H52.9731V37.987ZM53.5268 37.4828H55.1397C55.6333 37.4828 56.0064 37.3738 56.2471 37.1559C56.4879 36.9379 56.6203 36.6245 56.6203 36.2158C56.6203 35.3983 56.1268 34.9895 55.1397 34.9895H53.5268V37.4828Z" fill="#606060"/>
<path d="M57.7158 37.987L60.1472 31.9785H60.7009L63.1323 37.987H62.5425L60.3157 32.3464H60.5444L58.3177 37.987H57.7158ZM58.6667 36.3929L58.8352 35.8751H61.9166L62.0851 36.3929H58.6667Z" fill="#606060"/>
<path d="M67.2604 37.442L67.128 37.6191V31.9922H67.6817V37.6191L67.5252 37.442H70.2455L70.089 37.6191V31.9922H70.6427V38.0006H64.1309V31.9922H64.6846V37.6191L64.5401 37.442H67.2604Z" fill="#606060"/>
<path d="M72.4609 37.987V31.9785H73.0026V37.987H72.4609ZM72.8341 35.2348V34.6762H74.4951V35.2348H72.8341ZM74.5553 35.0577L74.0377 34.9487L76.0118 31.9785H76.6136L74.5553 35.0577ZM76.096 37.987L74.0618 34.9895L74.5192 34.6762L76.746 37.987H76.096Z" fill="#606060"/>
<path d="M79.9351 38.0413C79.5379 38.0413 79.1647 37.9596 78.8277 37.8097C78.4907 37.6598 78.1898 37.4418 77.937 37.1693C77.6842 36.8968 77.4916 36.5699 77.3472 36.202C77.2028 35.8341 77.1426 35.4254 77.1426 34.9894C77.1426 34.5534 77.2148 34.1447 77.3472 33.7768C77.4796 33.409 77.6842 33.082 77.937 32.8095C78.1898 32.537 78.4786 32.319 78.8157 32.1691C79.1527 32.0192 79.5258 31.9375 79.9351 31.9375C80.3323 31.9375 80.7054 32.0192 81.0425 32.1691C81.3795 32.319 81.6804 32.537 81.9211 32.8095C82.1739 33.082 82.3665 33.409 82.5109 33.7768C82.6554 34.1447 82.7156 34.5534 82.7156 34.9894C82.7156 35.4254 82.6433 35.8341 82.5109 36.202C82.3665 36.5699 82.1739 36.8968 81.9211 37.1693C81.6684 37.4418 81.3795 37.6598 81.0425 37.8097C80.7054 37.9732 80.3323 38.0413 79.9351 38.0413ZM79.9351 37.4827C80.248 37.4827 80.549 37.4146 80.8138 37.292C81.0786 37.1693 81.3193 36.9922 81.5239 36.7742C81.7285 36.5426 81.885 36.2837 81.9934 35.984C82.1017 35.6843 82.1619 35.3573 82.1619 34.9894C82.1619 34.6352 82.1017 34.2946 81.9934 33.9948C81.885 33.6951 81.7285 33.4362 81.5239 33.2046C81.3193 32.973 81.0906 32.8095 80.8138 32.6869C80.5369 32.5642 80.248 32.4961 79.9351 32.4961C79.6221 32.4961 79.3212 32.5642 79.0444 32.6869C78.7675 32.8095 78.5388 32.9866 78.3342 33.2046C78.1296 33.4362 77.9731 33.6951 77.8648 33.9948C77.7564 34.2946 77.6963 34.6215 77.6963 34.9894C77.6963 35.3436 77.7564 35.6706 77.8648 35.9704C77.9731 36.2701 78.1296 36.5426 78.3342 36.7606C78.5388 36.9922 78.7675 37.1557 79.0444 37.2783C79.3212 37.4146 79.6221 37.4827 79.9351 37.4827Z" fill="#606060"/>
<path d="M84.0757 37.987V31.9785H86.0617C86.5071 31.9785 86.9043 32.0603 87.2173 32.2238C87.5423 32.3873 87.795 32.6189 87.9635 32.9322C88.132 33.232 88.2283 33.6135 88.2283 34.0494C88.2283 34.4718 88.1441 34.8397 87.9635 35.1394C87.795 35.4392 87.5423 35.6844 87.2173 35.8479C86.8923 36.0114 86.5071 36.0931 86.0617 36.0931H84.3886L84.6414 35.7934V37.987H84.0757V37.987ZM84.6414 35.8479L84.3886 35.5345H86.0497C86.5793 35.5345 86.9886 35.3983 87.2534 35.1394C87.5182 34.8805 87.6626 34.5127 87.6626 34.0358C87.6626 33.559 87.5302 33.1775 87.2534 32.9186C86.9765 32.6597 86.5793 32.5235 86.0497 32.5235H84.3886L84.6414 32.2238V35.8479Z" fill="#606060"/>
<path d="M90.2749 37.987V32.3601L90.4313 32.5372H88.4092V31.9922H92.6942V32.5372H90.6841L90.8286 32.3601V37.987H90.2749Z" fill="#606060"/>
<path d="M95.9444 38.0413C95.5472 38.0413 95.174 37.9596 94.837 37.8097C94.5 37.6598 94.199 37.4418 93.9463 37.1693C93.6935 36.8968 93.5009 36.5699 93.3565 36.202C93.212 35.8341 93.1519 35.4254 93.1519 34.9894C93.1519 34.5534 93.2241 34.1447 93.3565 33.7768C93.4889 33.409 93.6935 33.082 93.9463 32.8095C94.199 32.537 94.4879 32.319 94.8249 32.1691C95.162 32.0192 95.5351 31.9375 95.9444 31.9375C96.3416 31.9375 96.7147 32.0192 97.0517 32.1691C97.3888 32.319 97.6897 32.537 97.9304 32.8095C98.1832 33.082 98.3758 33.409 98.5202 33.7768C98.6647 34.1447 98.7248 34.5534 98.7248 34.9894C98.7248 35.4254 98.6526 35.8341 98.5202 36.202C98.3758 36.5699 98.1832 36.8968 97.9304 37.1693C97.6776 37.4418 97.3888 37.6598 97.0517 37.8097C96.7147 37.9732 96.3416 38.0413 95.9444 38.0413ZM95.9444 37.4827C96.2573 37.4827 96.5582 37.4146 96.823 37.292C97.0878 37.1693 97.3286 36.9922 97.5332 36.7742C97.7378 36.5426 97.8943 36.2837 98.0026 35.984C98.111 35.6843 98.1712 35.3573 98.1712 34.9894C98.1712 34.6352 98.111 34.2946 98.0026 33.9948C97.8943 33.6951 97.7378 33.4362 97.5332 33.2046C97.3286 32.973 97.0999 32.8095 96.823 32.6869C96.5462 32.5642 96.2573 32.4961 95.9444 32.4961C95.6314 32.4961 95.3305 32.5642 95.0536 32.6869C94.7768 32.8095 94.5481 32.9866 94.3435 33.2046C94.1389 33.4362 93.9824 33.6951 93.8741 33.9948C93.7657 34.2946 93.7055 34.6215 93.7055 34.9894C93.7055 35.3436 93.7657 35.6706 93.8741 35.9704C93.9824 36.2701 94.1389 36.5426 94.3435 36.7606C94.5481 36.9922 94.7768 37.1557 95.0536 37.2783C95.3305 37.4146 95.6314 37.4827 95.9444 37.4827Z" fill="#606060"/>
<path d="M102.408 38.0413C102.01 38.0413 101.637 37.9596 101.3 37.8097C100.963 37.6598 100.674 37.4418 100.422 37.1693C100.169 36.8968 99.9762 36.5699 99.8438 36.202C99.6993 35.8341 99.6392 35.4254 99.6392 34.9894C99.6392 34.5534 99.7114 34.1447 99.8438 33.7768C99.9882 33.409 100.181 33.082 100.434 32.8095C100.686 32.537 100.975 32.319 101.312 32.1691C101.649 32.0192 102.022 31.9375 102.42 31.9375C102.805 31.9375 103.166 32.0056 103.503 32.1555C103.84 32.3054 104.129 32.5234 104.358 32.8095L103.996 33.2182C103.78 32.973 103.539 32.7822 103.274 32.6732C103.009 32.5642 102.733 32.5097 102.42 32.5097C102.107 32.5097 101.806 32.5779 101.529 32.7005C101.252 32.8231 101.023 33.0002 100.819 33.2182C100.614 33.4498 100.458 33.7087 100.349 34.0084C100.241 34.3082 100.181 34.6352 100.181 35.003C100.181 35.3573 100.241 35.6979 100.349 35.9976C100.458 36.2974 100.626 36.5562 100.819 36.7878C101.023 37.0195 101.264 37.183 101.529 37.3056C101.806 37.4282 102.095 37.4963 102.42 37.4963C102.721 37.4963 103.009 37.4418 103.274 37.3192C103.539 37.2102 103.78 37.0195 103.996 36.7742L104.358 37.183C104.129 37.4691 103.84 37.7007 103.503 37.8506C103.154 37.9732 102.793 38.0413 102.408 38.0413Z" fill="#606060"/>
<path d="M106.512 37.987V32.3601L106.669 32.5372H104.646V31.9922H108.932V32.5372H106.921L107.066 32.3601V37.987H106.512Z" fill="#606060"/>
<path d="M108.883 37.987L111.315 31.9785H111.868L114.3 37.987H113.71L111.483 32.3464H111.712L109.485 37.987H108.883ZM109.846 36.3929L110.015 35.8751H113.096L113.265 36.3929H109.846Z" fill="#606060"/>
<path d="M115.888 37.987H115.323V31.9785H115.888V37.987ZM119.259 35.2212H115.828V34.6626H119.259V35.2212ZM119.211 31.9785H119.764V37.987H119.211V31.9785Z" fill="#606060"/>
</g>
<defs>
<clipPath id="clip0_1179_4393">
<rect width="136.616" height="39.375" fill="white" transform="translate(0.504883 0.4375)"/>
</clipPath>
</defs>
</svg>
