<svg width="275" height="70" viewBox="0 0 275 70" fill="none" xmlns="http://www.w3.org/2000/svg">
<g clip-path="url(#clip0_1153_4225)">
<path d="M73.7303 54.7647V36.526H61.5469V42.6055H55.4673H49.3877H46.1178H43.2838H25.0451C18.3357 42.6055 12.8616 37.1557 12.8616 30.4221V18.2388H43.2838V6.07959H12.8616H0.678223V30.4221C0.678223 43.8651 11.5779 54.7647 25.0208 54.7647H61.5469H73.7303Z" fill="#606060"/>
<path d="M73.8031 57.8164H49.4604C49.4604 64.5257 54.9103 69.9998 61.6439 69.9998H85.9138C85.938 63.2905 80.5124 57.8164 73.8031 57.8164Z" fill="#606060"/>
<path d="M61.5469 12.1834H67.6265V18.2388V24.3183H79.8099V18.2388V12.1834V0H67.6265H61.5469H55.4673V12.1834H59.9967H61.5469Z" fill="#606060"/>
<path d="M105.582 13.709V3.02734H106.696V12.7401H113.139V3.02734H114.253V13.709H105.582ZM114.907 16.228V13.4183L115.197 13.7332H113.163V12.7644H115.973V16.228H114.907Z" fill="#606060"/>
<path d="M119.364 12.7401H125.782V13.709H118.225V3.02734H125.54V3.9962H119.339V12.7401H119.364ZM119.242 7.82319H124.886V8.79205H119.242V7.82319Z" fill="#606060"/>
<path d="M129.44 13.709H128.301V3.02734H129.44V13.709ZM136.222 8.79205H129.319V7.79897H136.222V8.79205ZM136.125 3.02734H137.239V13.709H136.125V3.02734Z" fill="#606060"/>
<path d="M143.004 13.7092V3.70574L143.319 4.02062H139.25V3.05176H147.872V4.02062H143.827L144.118 3.70574V13.7092H143.004Z" fill="#606060"/>
<path d="M149.883 13.709V3.02734H153.879C154.776 3.02734 155.575 3.17267 156.205 3.46333C156.859 3.75399 157.367 4.16575 157.706 4.72285C158.045 5.25572 158.239 5.93392 158.239 6.709C158.239 7.45987 158.07 8.11385 157.706 8.64672C157.367 9.17959 156.859 9.61558 156.205 9.90624C155.551 10.1969 154.776 10.3422 153.879 10.3422H150.513L151.021 9.80935V13.709H149.883ZM150.997 9.90624L150.488 9.34914H153.831C154.897 9.34914 155.72 9.10693 156.253 8.64672C156.81 8.18651 157.077 7.53253 157.077 6.68478C157.077 5.83703 156.81 5.15883 156.253 4.69862C155.696 4.23842 154.897 3.9962 153.831 3.9962H150.488L150.997 3.46333V9.90624Z" fill="#606060"/>
<path d="M169.429 13.8063C168.63 13.8063 167.879 13.661 167.201 13.3945C166.523 13.1281 165.941 12.7405 165.433 12.2561C164.924 11.7717 164.537 11.1904 164.27 10.5364C163.98 9.88241 163.858 9.15577 163.858 8.38068C163.858 7.6056 164.004 6.87895 164.27 6.22497C164.561 5.571 164.948 4.98968 165.457 4.50525C165.966 4.02082 166.547 3.63328 167.225 3.36684C167.903 3.10041 168.654 2.95508 169.454 2.95508C170.229 2.95508 170.955 3.07619 171.633 3.34262C172.312 3.60906 172.893 3.9966 173.353 4.50525L172.627 5.23189C172.191 4.79591 171.706 4.45681 171.173 4.26304C170.64 4.06927 170.083 3.97238 169.454 3.97238C168.824 3.97238 168.218 4.09349 167.661 4.31148C167.104 4.52947 166.644 4.84435 166.232 5.23189C165.82 5.64366 165.505 6.10387 165.287 6.63674C165.069 7.16961 164.948 7.75093 164.948 8.4049C164.948 9.05888 165.069 9.6402 165.287 10.1731C165.505 10.7059 165.845 11.1662 166.232 11.5779C166.644 11.9897 167.128 12.2803 167.661 12.4983C168.218 12.7163 168.8 12.8374 169.454 12.8374C170.059 12.8374 170.64 12.7405 171.173 12.5226C171.706 12.3288 172.191 11.9897 172.627 11.5537L173.353 12.2803C172.893 12.789 172.312 13.2008 171.633 13.4672C170.931 13.6852 170.204 13.8063 169.429 13.8063Z" fill="#606060"/>
<path d="M180.159 13.8063C179.36 13.8063 178.609 13.661 177.931 13.3945C177.253 13.1281 176.647 12.7405 176.139 12.2561C175.63 11.7717 175.242 11.1904 174.952 10.5364C174.661 9.88241 174.54 9.15577 174.54 8.38068C174.54 7.6056 174.685 6.87895 174.952 6.22497C175.218 5.571 175.63 4.98968 176.139 4.50525C176.647 4.02082 177.229 3.63328 177.907 3.36684C178.585 3.10041 179.336 2.95508 180.159 2.95508C180.959 2.95508 181.71 3.10041 182.388 3.36684C183.066 3.63328 183.672 4.02082 184.156 4.50525C184.665 4.98968 185.052 5.571 185.343 6.22497C185.633 6.87895 185.755 7.6056 185.755 8.38068C185.755 9.15577 185.609 9.88241 185.343 10.5364C185.052 11.1904 184.665 11.7717 184.156 12.2561C183.647 12.7405 183.066 13.1281 182.388 13.3945C181.71 13.6852 180.959 13.8063 180.159 13.8063ZM180.159 12.8132C180.789 12.8132 181.395 12.6921 181.928 12.4741C182.46 12.2561 182.945 11.9412 183.357 11.5537C183.768 11.1419 184.083 10.6817 184.301 10.1488C184.519 9.61598 184.64 9.03466 184.64 8.38068C184.64 7.7267 184.519 7.14539 184.301 6.61252C184.083 6.07965 183.768 5.61944 183.357 5.20767C182.945 4.79591 182.485 4.50525 181.928 4.28726C181.395 4.06927 180.789 3.94816 180.159 3.94816C179.53 3.94816 178.924 4.06927 178.367 4.28726C177.81 4.50525 177.35 4.82013 176.938 5.20767C176.526 5.61944 176.211 6.07965 175.993 6.61252C175.775 7.14539 175.654 7.7267 175.654 8.38068C175.654 9.01044 175.775 9.59176 175.993 10.1246C176.211 10.6575 176.526 11.1419 176.938 11.5295C177.35 11.9412 177.81 12.2319 178.367 12.4499C178.924 12.6921 179.53 12.8132 180.159 12.8132Z" fill="#606060"/>
<path d="M186.554 16.1069L186.578 12.7401H198.011V16.1069H196.969V13.709H187.644L187.62 16.1069H186.554ZM195.298 13.1761V4.02042H190.187L190.091 6.61212C190.066 7.41143 190.018 8.18651 189.945 8.91316C189.873 9.6398 189.776 10.318 189.63 10.8993C189.485 11.4806 189.315 11.9651 189.073 12.3284C188.855 12.6917 188.54 12.9097 188.177 12.9581L186.942 12.7401C187.354 12.7644 187.693 12.619 187.959 12.3042C188.225 11.9893 188.443 11.5533 188.589 10.972C188.734 10.3907 188.855 9.73669 188.928 8.9616C189.001 8.18651 189.049 7.36298 189.073 6.49101L189.194 3.02734H196.388V13.1761H195.298Z" fill="#606060"/>
<path d="M201.474 12.7401H207.893V13.709H200.336V3.02734H207.651V3.9962H201.45V12.7401H201.474ZM201.353 7.82319H206.997V8.79205H201.353V7.82319Z" fill="#606060"/>
<path d="M210.412 13.7092V3.02755H211.526V11.8684L218.357 3.02755H219.374V13.7092H218.26V4.8926L211.454 13.7092H210.412ZM214.869 2.25247C214.094 2.25247 213.512 2.08291 213.052 1.74381C212.616 1.40471 212.374 0.920285 212.374 0.290527H213.222C213.222 0.702292 213.391 1.01717 213.682 1.25939C213.973 1.5016 214.384 1.59849 214.869 1.59849C215.353 1.59849 215.741 1.47738 216.056 1.25939C216.346 1.01717 216.516 0.702292 216.516 0.290527H217.364C217.364 0.920285 217.121 1.40471 216.685 1.74381C216.225 2.08291 215.644 2.25247 214.869 2.25247Z" fill="#606060"/>
<path d="M227.706 13.8063C226.907 13.8063 226.156 13.661 225.478 13.3945C224.8 13.1281 224.218 12.7405 223.71 12.2561C223.201 11.7717 222.813 11.1904 222.547 10.5364C222.256 9.88241 222.135 9.15577 222.135 8.38068C222.135 7.6056 222.281 6.87895 222.547 6.22497C222.838 5.571 223.225 4.98968 223.734 4.50525C224.243 4.02082 224.824 3.63328 225.502 3.36684C226.18 3.10041 226.931 2.95508 227.73 2.95508C228.506 2.95508 229.232 3.07619 229.91 3.34262C230.589 3.60906 231.17 3.9966 231.63 4.50525L230.903 5.23189C230.467 4.79591 229.983 4.45681 229.45 4.26304C228.917 4.06927 228.36 3.97238 227.73 3.97238C227.101 3.97238 226.495 4.09349 225.938 4.31148C225.381 4.52947 224.921 4.84435 224.509 5.23189C224.097 5.64366 223.782 6.10387 223.564 6.63674C223.346 7.16961 223.225 7.75093 223.225 8.4049C223.225 9.05888 223.346 9.6402 223.564 10.1731C223.782 10.7059 224.121 11.1662 224.509 11.5779C224.921 11.9897 225.405 12.2803 225.938 12.4983C226.495 12.7163 227.076 12.8374 227.73 12.8374C228.336 12.8374 228.917 12.7405 229.45 12.5226C229.983 12.3288 230.467 11.9897 230.903 11.5537L231.63 12.2803C231.17 12.789 230.589 13.2008 229.91 13.4672C229.208 13.6852 228.481 13.8063 227.706 13.8063Z" fill="#606060"/>
<path d="M235.966 13.7092V3.70574L236.281 4.02062H232.211V3.05176H240.834V4.02062H236.789L237.08 3.70574V13.7092H235.966Z" fill="#606060"/>
<path d="M242.845 13.709V3.02734H247.277C248.416 3.02734 249.288 3.26956 249.942 3.72977C250.596 4.18997 250.91 4.86817 250.91 5.76437C250.91 6.66056 250.596 7.31454 249.99 7.77475C249.36 8.23496 248.561 8.45295 247.544 8.45295L247.81 8.06541C248.997 8.06541 249.917 8.30762 250.523 8.76783C251.153 9.22804 251.443 9.93046 251.443 10.8267C251.443 11.7471 251.128 12.4495 250.475 12.9581C249.821 13.4668 248.852 13.709 247.568 13.709H242.845ZM243.959 7.87163H247.229C248.052 7.87163 248.682 7.70208 249.118 7.38721C249.554 7.0481 249.772 6.56368 249.772 5.9097C249.772 5.25572 249.554 4.77129 249.118 4.43219C248.682 4.09309 248.052 3.94776 247.229 3.94776H243.959V7.87163ZM243.959 12.8128H247.568C248.464 12.8128 249.167 12.6433 249.627 12.3042C250.087 11.9651 250.329 11.4564 250.329 10.754C250.329 10.0516 250.087 9.54291 249.627 9.22804C249.167 8.91316 248.464 8.74361 247.568 8.74361H243.959V12.8128Z" fill="#606060"/>
<path d="M254.302 13.709V3.02734H255.416V11.8682L262.246 3.02734H263.264V13.709H262.15V4.8924L255.319 13.7332H254.302V13.709Z" fill="#606060"/>
<path d="M273.364 13.7092V10.1729L273.679 10.4877H270.191C269.343 10.4877 268.616 10.3424 268.011 10.0518C267.405 9.7611 266.945 9.32511 266.63 8.79224C266.315 8.25937 266.146 7.60539 266.146 6.8303C266.146 6.00678 266.315 5.32857 266.654 4.77148C266.994 4.21439 267.502 3.7784 268.132 3.48774C268.762 3.19709 269.513 3.05176 270.36 3.05176H274.502V13.7334H273.364V13.7092ZM266.122 13.7092L268.738 9.95487H269.9L267.333 13.7092H266.122ZM273.364 9.85799V3.68152L273.679 3.99639H270.385C269.392 3.99639 268.616 4.23861 268.084 4.69882C267.551 5.18325 267.26 5.86145 267.26 6.75764C267.26 7.62961 267.502 8.30781 268.011 8.76802C268.52 9.25245 269.27 9.47044 270.263 9.47044H273.654L273.364 9.85799Z" fill="#606060"/>
<path d="M105.582 31.3911V20.7095H106.696V29.5503L113.526 20.7095H114.543V31.3911H113.429V22.5745L106.599 31.4154H105.582V31.3911Z" fill="#606060"/>
<path d="M119.315 31.3911H118.177V20.7095H119.315V31.3911ZM126.097 26.4742H119.194V25.4811H126.097V26.4742ZM126 20.7095H127.114V31.3911H126V20.7095Z" fill="#606060"/>
<path d="M131.862 31.3911H130.724V20.7095H131.862V31.3911ZM138.668 26.4742H131.765V25.4811H138.668V26.4742ZM138.547 20.7095H139.661V31.3911H138.547V20.7095Z" fill="#606060"/>
<path d="M147.993 31.4879C147.194 31.4879 146.443 31.3426 145.765 31.0762C145.087 30.8097 144.481 30.4222 143.973 29.9378C143.464 29.4533 143.076 28.872 142.786 28.218C142.495 27.5641 142.374 26.8374 142.374 26.0623C142.374 25.2872 142.519 24.5606 142.786 23.9066C143.052 23.2526 143.464 22.6713 143.973 22.1869C144.481 21.7025 145.063 21.3149 145.741 21.0485C146.419 20.782 147.17 20.6367 147.993 20.6367C148.793 20.6367 149.544 20.782 150.222 21.0485C150.9 21.3149 151.506 21.7025 151.99 22.1869C152.499 22.6713 152.886 23.2526 153.177 23.9066C153.467 24.5606 153.589 25.2872 153.589 26.0623C153.589 26.8374 153.443 27.5641 153.177 28.218C152.886 28.872 152.499 29.4533 151.99 29.9378C151.481 30.4222 150.9 30.8097 150.222 31.0762C149.519 31.3668 148.793 31.4879 147.993 31.4879ZM147.993 30.4949C148.623 30.4949 149.229 30.3737 149.762 30.1558C150.294 29.9378 150.779 29.6229 151.191 29.2353C151.602 28.8236 151.917 28.3634 152.135 27.8305C152.353 27.2976 152.474 26.7163 152.474 26.0623C152.474 25.4083 152.353 24.827 152.135 24.2942C151.917 23.7613 151.602 23.3011 151.191 22.8893C150.779 22.4775 150.319 22.1869 149.762 21.9689C149.229 21.7509 148.623 21.6298 147.993 21.6298C147.364 21.6298 146.758 21.7509 146.201 21.9689C145.644 22.1869 145.184 22.5018 144.772 22.8893C144.36 23.3011 144.045 23.7613 143.827 24.2942C143.609 24.827 143.488 25.4083 143.488 26.0623C143.488 26.6921 143.609 27.2734 143.827 27.8063C144.045 28.3391 144.36 28.8236 144.772 29.2111C145.184 29.6229 145.644 29.9135 146.201 30.1315C146.758 30.3737 147.339 30.4949 147.993 30.4949Z" fill="#606060"/>
<path d="M156.326 31.3911V20.7095H160.758C161.897 20.7095 162.769 20.9517 163.423 21.4119C164.077 21.8721 164.391 22.5503 164.391 23.4465C164.391 24.3427 164.077 24.9967 163.471 25.4569C162.841 25.9171 162.042 26.1351 161.025 26.1351L161.291 25.7475C162.478 25.7475 163.398 25.9897 164.004 26.45C164.634 26.9102 164.924 27.6126 164.924 28.5088C164.924 29.4292 164.609 30.1316 163.955 30.6403C163.301 31.1489 162.333 31.3911 161.049 31.3911H156.326ZM157.44 25.5538H160.71C161.533 25.5538 162.163 25.3842 162.599 25.0693C163.035 24.7302 163.253 24.2458 163.253 23.5918C163.253 22.9378 163.035 22.4534 162.599 22.1143C162.163 21.7752 161.533 21.6299 160.71 21.6299H157.44V25.5538ZM157.44 30.4949H161.049C161.945 30.4949 162.647 30.3254 163.108 29.9863C163.568 29.6472 163.81 29.1385 163.81 28.4361C163.81 27.7337 163.568 27.225 163.108 26.9102C162.647 26.5953 161.945 26.4257 161.049 26.4257H157.44V30.4949Z" fill="#606060"/>
<path d="M166.208 31.3911L171.101 20.7095H172.215L177.108 31.3911H175.921L171.44 21.3635H171.9L167.371 31.3911H166.208ZM168.121 28.5572L168.461 27.6368H174.661L175 28.5572H168.121Z" fill="#606060"/>
<path d="M179.167 31.3911V20.7095H180.281V30.4223H186.724V20.7095H187.838V31.3911H179.167ZM188.492 33.9102V31.1005L188.782 31.4154H186.748V30.4465H189.558V33.9102H188.492Z" fill="#606060"/>
<path d="M191.81 31.3911V20.7095H192.924V29.5503L199.755 20.7095H200.772V31.3911H199.658V22.5745L192.827 31.4154H191.81V31.3911Z" fill="#606060"/>
<path d="M210.873 31.3908V27.8545L211.187 28.1694H207.7C206.852 28.1694 206.125 28.0241 205.52 27.7334C204.914 27.4427 204.454 27.0068 204.139 26.4739C203.824 25.941 203.655 25.287 203.655 24.5119C203.655 23.6884 203.824 23.0102 204.163 22.4531C204.502 21.896 205.011 21.46 205.641 21.1694C206.271 20.8787 207.021 20.7334 207.869 20.7334H212.011V31.4151H210.873V31.3908ZM203.63 31.3908L206.246 27.6365H207.409L204.841 31.3908H203.63ZM210.873 27.5396V21.3632L211.187 21.678H207.893C206.9 21.678 206.125 21.9203 205.592 22.3805C205.059 22.8649 204.769 23.5431 204.769 24.4393C204.769 25.3113 205.011 25.9895 205.52 26.4497C206.028 26.9341 206.779 27.1521 207.772 27.1521H211.163L210.873 27.5396Z" fill="#606060"/>
<path d="M215.62 31.3911V20.7095H216.54L221.433 29.0417H220.948L225.793 20.7095H226.713V31.3911H225.623V22.405H225.89L221.433 30.0347H220.9L216.419 22.405H216.71V31.3911H215.62Z" fill="#606060"/>
<path d="M105.582 49.0728V38.3911H110.014C111.152 38.3911 112.024 38.6333 112.678 39.0935C113.332 39.5537 113.647 40.2319 113.647 41.1281C113.647 42.0243 113.332 42.6783 112.727 43.1385C112.097 43.5987 111.298 43.8167 110.281 43.8167L110.547 43.4292C111.734 43.4292 112.654 43.6714 113.26 44.1316C113.89 44.5918 114.18 45.2942 114.18 46.1904C114.18 47.1108 113.865 47.8133 113.211 48.3219C112.557 48.8306 111.588 49.0728 110.305 49.0728H105.582ZM106.696 43.2354H109.966C110.789 43.2354 111.419 43.0659 111.855 42.751C112.291 42.4361 112.509 41.9274 112.509 41.2735C112.509 40.6195 112.291 40.1351 111.855 39.796C111.419 39.4569 110.789 39.3115 109.966 39.3115H106.696V43.2354ZM106.696 48.1766H110.305C111.201 48.1766 111.903 48.007 112.364 47.6679C112.824 47.3288 113.066 46.8202 113.066 46.1178C113.066 45.4153 112.824 44.9067 112.364 44.5918C111.903 44.2769 111.201 44.1074 110.305 44.1074H106.696V48.1766Z" fill="#606060"/>
<path d="M121.059 49.0728V38.3911H125.056C125.952 38.3911 126.751 38.5364 127.381 38.8271C128.035 39.1178 128.544 39.5295 128.883 40.0866C129.222 40.6195 129.416 41.2977 129.416 42.0728C129.416 42.8236 129.246 43.4776 128.883 44.0105C128.544 44.5434 128.035 44.9793 127.381 45.27C126.727 45.5607 125.952 45.706 125.056 45.706H121.689L122.197 45.1731V49.0728H121.059ZM122.197 45.27L121.689 44.7129H125.031C126.097 44.7129 126.921 44.4707 127.454 44.0105C127.986 43.5503 128.277 42.8963 128.277 42.0486C128.277 41.2008 128.011 40.5226 127.454 40.0624C126.896 39.6022 126.097 39.36 125.031 39.36H121.689L122.197 38.8271V45.27Z" fill="#606060"/>
<path d="M132.879 48.1039H139.298V49.0728H131.765V38.3911H139.08V39.36H132.879V48.1039ZM132.758 43.187H138.402V44.1558H132.758V43.187Z" fill="#606060"/>
<path d="M146.492 49.1696C145.693 49.1696 144.942 49.0242 144.263 48.7578C143.585 48.4914 143.004 48.1038 142.495 47.6194C141.987 47.135 141.599 46.5537 141.333 45.8997C141.042 45.2457 140.921 44.5191 140.921 43.744C140.921 42.9689 141.066 42.2422 141.333 41.5883C141.623 40.9343 142.011 40.353 142.52 39.8685C143.028 39.3841 143.609 38.9966 144.288 38.7301C144.966 38.4637 145.717 38.3184 146.516 38.3184C147.291 38.3184 148.018 38.4395 148.696 38.7059C149.374 38.9723 149.956 39.3599 150.416 39.8685L149.689 40.5952C149.253 40.1592 148.769 39.8201 148.236 39.6263C147.703 39.4325 147.146 39.3357 146.516 39.3357C145.886 39.3357 145.281 39.4568 144.724 39.6748C144.167 39.8928 143.706 40.2076 143.295 40.5952C142.883 41.0069 142.568 41.4671 142.35 42C142.132 42.5329 142.011 43.1142 142.011 43.7682C142.011 44.3979 142.132 45.0035 142.35 45.5364C142.568 46.0692 142.907 46.5294 143.295 46.9412C143.706 47.353 144.191 47.6436 144.724 47.8616C145.281 48.0796 145.862 48.2007 146.516 48.2007C147.122 48.2007 147.703 48.1038 148.236 47.8858C148.769 47.6921 149.253 47.353 149.689 46.917L150.416 47.6436C149.956 48.1523 149.374 48.564 148.696 48.8305C147.994 49.0485 147.267 49.1696 146.492 49.1696Z" fill="#606060"/>
<path d="M152.765 49.0728V38.3911H161.751V49.0728H160.637V39.0693L160.928 39.3842H153.589L153.879 39.0693V49.0728H152.765Z" fill="#606060"/>
<path d="M168.533 47.1593L163.907 38.3911H165.118L169.139 46.2146L168.533 47.1593ZM165.215 48.0313C165.723 48.225 166.232 48.2735 166.668 48.1766C167.128 48.0797 167.54 47.7164 167.928 47.1108L168.436 46.2873L168.533 46.142L172.626 38.4153H173.765L168.921 47.3531C168.606 47.9828 168.218 48.443 167.758 48.7337C167.322 49.0486 166.838 49.1939 166.353 49.2181C165.869 49.2423 165.36 49.1454 164.876 48.9517L165.215 48.0313Z" fill="#606060"/>
<path d="M175.582 49.0728V38.3911H183.405V39.36H176.696V42.8479H180.184C181.443 42.8479 182.412 43.1143 183.066 43.6229C183.72 44.1316 184.059 44.8825 184.059 45.8998C184.059 46.9171 183.696 47.7164 182.993 48.2735C182.291 48.8306 181.274 49.097 179.941 49.097H175.582V49.0728ZM176.696 48.1766H179.941C180.934 48.1766 181.685 47.9828 182.17 47.5953C182.654 47.2077 182.921 46.6506 182.921 45.924C182.921 44.4707 181.928 43.7441 179.941 43.7441H176.696V48.1766Z" fill="#606060"/>
<path d="M185.609 49.1694C185.464 49.1694 185.319 49.1694 185.198 49.1451C185.077 49.1209 184.907 49.0967 184.762 49.0725L184.859 48.0552C185.028 48.1036 185.198 48.1278 185.367 48.1278C185.827 48.1278 186.191 47.9583 186.481 47.595C186.772 47.2316 186.966 46.6746 187.111 45.9237C187.257 45.1728 187.353 44.1797 187.378 42.9929L187.523 38.415H194.765V49.0967H193.651V39.0932L193.942 39.4081H188.225L188.492 39.0932L188.346 42.9929C188.298 44.0586 188.225 44.979 188.129 45.7541C188.032 46.5292 187.862 47.1832 187.644 47.6919C187.426 48.2005 187.16 48.588 186.821 48.8303C186.506 49.0483 186.094 49.1694 185.609 49.1694Z" fill="#606060"/>
<path d="M198.398 49.0728V38.3911H199.513V47.2319L206.343 38.3911H207.36V49.0728H206.246V40.2319L199.416 49.0728H198.398Z" fill="#606060"/>
<path d="M210.994 49.0728V38.3911H212.084V49.0728H210.994ZM211.769 44.18V43.187H215.111V44.18H211.769ZM215.208 43.8652L214.167 43.6714L218.139 38.3911H219.35L215.208 43.8652ZM218.309 49.0728L214.215 43.7441L215.136 43.187L219.617 49.0728H218.309Z" fill="#606060"/>
<path d="M222.499 48.1039H228.918V49.0728H221.385V38.3911H228.7V39.36H222.499V48.1039ZM222.378 43.187H228.021V44.1558H222.378V43.187Z" fill="#606060"/>
<path d="M105.582 66.7544V56.0728H113.405V57.0416H106.696V60.5295H110.184C111.443 60.5295 112.412 60.7959 113.066 61.3046C113.72 61.8132 114.059 62.5641 114.059 63.5814C114.059 64.5987 113.696 65.398 112.993 65.9551C112.291 66.5122 111.274 66.7786 109.941 66.7786H105.582V66.7544ZM106.696 65.8582H109.941C110.934 65.8582 111.685 65.6644 112.17 65.2769C112.654 64.8894 112.921 64.3323 112.921 63.6056C112.921 62.1523 111.928 61.4257 109.941 61.4257H106.696V65.8582Z" fill="#606060"/>
<path d="M115.125 66.7544L120.018 56.0728H121.132L126.025 66.7544H124.838L120.357 56.7267H120.817L116.336 66.7544H115.125ZM117.039 63.9205L117.378 63.0001H123.578L123.917 63.9205H117.039Z" fill="#606060"/>
<path d="M134.333 65.7853L134.066 66.1001V56.0967H135.181V66.1001L134.866 65.7853H140.34L140.025 66.1001V56.0967H141.139V66.7783H128.035V56.0967H129.149V66.1001L128.859 65.7853H134.333Z" fill="#606060"/>
<path d="M144.796 66.7544V56.0728H145.886V66.7544H144.796ZM145.547 61.8617V60.8686H148.89V61.8617H145.547ZM149.011 61.5468L147.969 61.353L151.942 56.0728H153.153L149.011 61.5468ZM152.111 66.7544L148.018 61.4257L148.938 60.8686L153.419 66.7544H152.111Z" fill="#606060"/>
<path d="M159.838 66.8507C159.038 66.8507 158.287 66.7054 157.609 66.439C156.931 66.1725 156.326 65.785 155.817 65.3006C155.308 64.8161 154.921 64.2348 154.63 63.5808C154.339 62.9268 154.218 62.2002 154.218 61.4251C154.218 60.65 154.364 59.9234 154.63 59.2694C154.896 58.6154 155.308 58.0341 155.817 57.5497C156.326 57.0653 156.907 56.6777 157.585 56.4113C158.263 56.1448 159.014 55.9995 159.838 55.9995C160.637 55.9995 161.388 56.1448 162.066 56.4113C162.744 56.6777 163.35 57.0653 163.834 57.5497C164.343 58.0341 164.73 58.6154 165.021 59.2694C165.312 59.9234 165.433 60.65 165.433 61.4251C165.433 62.2002 165.287 62.9268 165.021 63.5808C164.73 64.2348 164.343 64.8161 163.834 65.3006C163.326 65.785 162.744 66.1725 162.066 66.439C161.388 66.7296 160.637 66.8507 159.838 66.8507ZM159.838 65.8576C160.467 65.8576 161.073 65.7365 161.606 65.5185C162.139 65.3006 162.623 64.9857 163.035 64.5981C163.447 64.1864 163.762 63.7262 163.98 63.1933C164.198 62.6604 164.319 62.0791 164.319 61.4251C164.319 60.7954 164.198 60.1898 163.98 59.657C163.762 59.1241 163.447 58.6639 163.035 58.2521C162.623 57.8403 162.163 57.5497 161.606 57.3317C161.049 57.1137 160.467 56.9926 159.838 56.9926C159.208 56.9926 158.602 57.1137 158.045 57.3317C157.488 57.5497 157.028 57.8646 156.616 58.2521C156.204 58.6639 155.89 59.1241 155.672 59.657C155.454 60.1898 155.332 60.7711 155.332 61.4251C155.332 62.0549 155.454 62.6362 155.672 63.1691C155.89 63.7019 156.204 64.1864 156.616 64.5739C157.028 64.9857 157.488 65.2763 158.045 65.4943C158.602 65.7365 159.208 65.8576 159.838 65.8576Z" fill="#606060"/>
<path d="M168.17 66.7544V56.0728H172.166C173.063 56.0728 173.862 56.2181 174.492 56.5087C175.146 56.7994 175.654 57.2112 175.993 57.7683C176.333 58.3011 176.526 58.9793 176.526 59.7544C176.526 60.5053 176.357 61.1593 175.993 61.6921C175.654 62.225 175.146 62.661 174.492 62.9516C173.838 63.2423 173.063 63.3876 172.166 63.3876H168.8L169.308 62.8548V66.7544H168.17ZM169.308 62.9516L168.8 62.3946H172.142C173.208 62.3946 174.032 62.1523 174.564 61.6921C175.097 61.2319 175.388 60.5779 175.388 59.7302C175.388 58.8824 175.121 58.2042 174.564 57.744C174.007 57.2838 173.208 57.0416 172.142 57.0416H168.8L169.308 56.5087V62.9516Z" fill="#606060"/>
<path d="M180.644 66.7541V56.7507L180.959 57.0655H176.89V56.0967H185.513V57.0655H181.468L181.758 56.7507V66.7541H180.644Z" fill="#606060"/>
<path d="M192.052 66.8507C191.253 66.8507 190.502 66.7054 189.824 66.439C189.146 66.1725 188.54 65.785 188.032 65.3006C187.523 64.8161 187.136 64.2348 186.845 63.5808C186.554 62.9268 186.433 62.2002 186.433 61.4251C186.433 60.65 186.578 59.9234 186.845 59.2694C187.111 58.6154 187.523 58.0341 188.032 57.5497C188.54 57.0653 189.122 56.6777 189.8 56.4113C190.478 56.1448 191.229 55.9995 192.052 55.9995C192.852 55.9995 193.603 56.1448 194.281 56.4113C194.959 56.6777 195.565 57.0653 196.049 57.5497C196.558 58.0341 196.945 58.6154 197.236 59.2694C197.527 59.9234 197.648 60.65 197.648 61.4251C197.648 62.2002 197.502 62.9268 197.236 63.5808C196.945 64.2348 196.558 64.8161 196.049 65.3006C195.54 65.785 194.959 66.1725 194.281 66.439C193.603 66.7296 192.852 66.8507 192.052 66.8507ZM192.052 65.8576C192.682 65.8576 193.288 65.7365 193.821 65.5185C194.354 65.3006 194.838 64.9857 195.25 64.5981C195.661 64.1864 195.976 63.7262 196.194 63.1933C196.412 62.6604 196.533 62.0791 196.533 61.4251C196.533 60.7954 196.412 60.1898 196.194 59.657C195.976 59.1241 195.661 58.6639 195.25 58.2521C194.838 57.8403 194.378 57.5497 193.821 57.3317C193.264 57.1137 192.682 56.9926 192.052 56.9926C191.423 56.9926 190.817 57.1137 190.26 57.3317C189.703 57.5497 189.243 57.8646 188.831 58.2521C188.419 58.6639 188.104 59.1241 187.886 59.657C187.668 60.1898 187.547 60.7711 187.547 61.4251C187.547 62.0549 187.668 62.6362 187.886 63.1691C188.104 63.7019 188.419 64.1864 188.831 64.5739C189.243 64.9857 189.703 65.2763 190.26 65.4943C190.817 65.7365 191.423 65.8576 192.052 65.8576Z" fill="#606060"/>
<path d="M205.059 66.8507C204.26 66.8507 203.509 66.7054 202.831 66.439C202.153 66.1725 201.571 65.785 201.063 65.3006C200.554 64.8161 200.166 64.2348 199.9 63.5808C199.609 62.9268 199.488 62.2002 199.488 61.4251C199.488 60.65 199.634 59.9234 199.9 59.2694C200.191 58.6154 200.578 58.0341 201.087 57.5497C201.596 57.0653 202.177 56.6777 202.855 56.4113C203.533 56.1448 204.284 55.9995 205.083 55.9995C205.859 55.9995 206.585 56.1206 207.263 56.3871C207.942 56.6535 208.523 57.041 208.983 57.5497L208.256 58.2763C207.82 57.8403 207.336 57.5012 206.803 57.3075C206.27 57.1137 205.713 57.0168 205.083 57.0168C204.454 57.0168 203.848 57.1379 203.291 57.3559C202.734 57.5739 202.274 57.8888 201.862 58.2763C201.45 58.6881 201.135 59.1483 200.917 59.6812C200.699 60.214 200.578 60.7954 200.578 61.4493C200.578 62.0791 200.699 62.6846 200.917 63.2175C201.135 63.7504 201.474 64.2106 201.862 64.6223C202.274 65.0341 202.758 65.3248 203.291 65.5428C203.848 65.7608 204.429 65.8819 205.083 65.8819C205.689 65.8819 206.27 65.785 206.803 65.567C207.336 65.3732 207.82 65.0341 208.256 64.5981L208.983 65.3248C208.523 65.8334 207.942 66.2452 207.263 66.5116C206.561 66.7296 205.834 66.8507 205.059 66.8507Z" fill="#606060"/>
<path d="M213.319 66.7541V56.7507L213.634 57.0655H209.564V56.0967H218.187V57.0655H214.142L214.433 56.7507V66.7541H213.319Z" fill="#606060"/>
<path d="M218.09 66.7544L222.983 56.0728H224.097L228.99 66.7544H227.803L223.322 56.7267H223.782L219.301 66.7544H218.09ZM220.028 63.9205L220.367 63.0001H226.568L226.907 63.9205H220.028Z" fill="#606060"/>
<path d="M232.187 66.7544H231.049V56.0728H232.187V66.7544ZM238.969 61.8375H232.066V60.8444H238.969V61.8375ZM238.872 56.0728H239.987V66.7544H238.872V56.0728Z" fill="#606060"/>
</g>
<defs>
<clipPath id="clip0_1153_4225">
<rect width="274.914" height="70" fill="white"/>
</clipPath>
</defs>
</svg>
