<svg width="288" height="59" viewBox="0 0 288 59" fill="none" xmlns="http://www.w3.org/2000/svg">
<g clip-path="url(#clip0_1388_5362)">
<path d="M29.2612 46.4477C38.7528 46.4477 46.4473 38.7533 46.4473 29.2617C46.4473 19.7701 38.7528 12.0757 29.2612 12.0757C19.7696 12.0757 12.0752 19.7701 12.0752 29.2617C12.0752 38.7533 19.7696 46.4477 29.2612 46.4477Z" fill="#CDCDCD"/>
<path d="M52.0529 26.7477H47.8904H34.6608H29.3031H29.2619V30.9514H47.9728C47.1485 40.5542 39.0707 48.0963 29.2619 48.0963C18.8761 48.0963 10.4685 39.6887 10.4685 29.3029C10.4685 18.9171 18.8761 10.4683 29.2619 10.4683C33.6717 10.4683 37.7106 11.9932 40.9253 14.5485C42.0381 15.4139 43.0272 16.4031 43.8927 17.5158L46.8188 14.5897C45.9121 13.5181 44.923 12.529 43.8515 11.6223C39.895 8.32522 34.7845 6.38818 29.2619 6.38818C16.6093 6.38818 6.34717 16.6503 6.34717 29.3029C6.34717 41.9554 16.6093 52.2176 29.2619 52.2176C41.3786 52.2176 51.2699 42.8209 52.1354 30.9514C52.1766 30.4157 52.2178 29.8387 52.2178 29.3029C52.2178 28.4374 52.1354 27.5719 52.0529 26.7477Z" fill="#606060"/>
<path d="M54.1547 54.1547H29.2617V58.5645H58.5645V29.2617H54.1547V54.1547Z" fill="#606060"/>
<path d="M4.40985 4.40985H29.2616V0H0V29.2616H4.40985V4.40985Z" fill="#606060"/>
<path d="M98.6649 28.6024H107.567V45.6648C102.951 49.1679 96.563 51.0225 90.5871 51.0225C77.3575 51.0225 67.6724 41.9556 67.6724 29.303C67.6724 16.6505 77.3988 7.5835 90.7931 7.5835C98.1704 7.5835 104.311 10.0975 108.391 14.8371L102.127 20.607C99.0771 17.3511 95.5327 15.8674 91.2465 15.8674C83.045 15.8262 77.4812 21.3076 77.4812 29.2618C77.4812 37.1336 83.045 42.6974 91.1229 42.6974C93.7605 42.6974 96.2333 42.2028 98.7061 40.884L98.6649 28.6024Z" fill="#606060"/>
<path d="M149.11 42.4916V50.2809H116.552V8.24316H148.286V16.0737H126.196V25.1819H145.69V32.7652H126.196V42.4916H149.11Z" fill="#606060"/>
<path d="M156.899 8.28418H175.981C189.747 8.28418 199.143 16.5681 199.143 29.3031C199.143 42.038 189.705 50.322 175.981 50.322H156.899V8.28418ZM175.487 42.2853C183.812 42.2853 189.293 37.2985 189.293 29.2619C189.293 21.2252 183.853 16.2384 175.487 16.2384H166.585V42.2853H175.487Z" fill="#606060"/>
<path d="M240.11 42.3678V50.2807H203.389V43.9751L226.427 16.1972H203.842V8.28418H239.203V14.5898L216.206 42.3678H240.11Z" fill="#606060"/>
<path d="M274.07 41.2964H254.576L250.867 50.2809H240.893L259.604 8.24316H269.207L288 50.2809H277.779L274.07 41.2964ZM270.979 33.878L264.302 17.8047L257.626 33.878H270.979Z" fill="#606060"/>
</g>
<defs>
<clipPath id="clip0_1388_5362">
<rect width="288" height="58.5644" fill="white"/>
</clipPath>
</defs>
</svg>
