<?xml version="1.0" encoding="utf-8"?>
<!-- Generator: Adobe Illustrator 20.1.0, SVG Export Plug-In . SVG Version: 6.00 Build 0)  -->
<svg version="1.1" id="Слой_1" xmlns="http://www.w3.org/2000/svg" xmlns:xlink="http://www.w3.org/1999/xlink" x="0px" y="0px"
	 viewBox="0 0 540 110" style="enable-background:new 0 0 540 110;" xml:space="preserve">
<style type="text/css">
	.st0{fill:#FF4A40;}
</style>
<g>
	<path class="st0" d="M0.5,26.5C0.8,16.6,2.4,7.7,11.8,2.3c7.4-4.2,13.3-2.7,17.6,4.5c2.3,3.8,4.6,7.5,6.6,11.4
		c3.2,6.1,1.8,12-4.2,15.2c-5.2,2.8-5.7,6.9-4.4,11.6c2.9,10.7,8.3,20,16.1,27.8c3.5,3.5,7,4.5,11.8,1.6c6.2-3.7,11.8-1.9,15.6,4.2
		c2,3.2,3.8,6.4,5.6,9.7c6.2,10.8,1.3,20.2-11.4,21.5c-6.9,0.7-13.2-1.1-18.8-4.9C18.8,85.8,4.7,59,0.5,26.5z M49.4,83.8
		c-3.6-2.2-7.8-3.9-10.8-6.8C30,68.5,23.8,58.3,21,46.6c-2-8.5-1.6-14.2,7.1-18.5c3.2-1.6,3.6-4.3,2-7.3c-1.9-3.6-4-7.1-6.1-10.6
		c-2.6-4.4-4.8-4.9-9.1-2.2c-7.2,4.5-7.7,11.7-7.4,18.9c0.8,19.7,9.2,36.5,20.7,52c6.7,9,14.5,17,24.6,22.3
		c5.9,3.1,11.9,3.8,17.7-0.4c2.5-1.8,3.5-4,1.8-7c-2.2-3.8-4.5-7.6-6.6-11.4c-2-3.6-4.6-4-8-2C55.3,81.6,52.7,82.5,49.4,83.8z"/>
</g>
<g>
	<g>
		<path class="st0" d="M540,86.3c0,6.4-5.2,11.6-11.6,11.6h-85.9c-6.4,0-11.6-5.2-11.6-11.6V23.9c0-6.4,5.2-11.6,11.6-11.6h85.9
			c6.4,0,11.6,5.2,11.6,11.6V86.3z M533.3,23.9c0-2.7-2.2-4.9-4.9-4.9h-85.9c-2.7,0-4.9,2.2-4.9,4.9v62.4c0,2.7,2.2,4.9,4.9,4.9
			h85.9c2.7,0,4.9-2.2,4.9-4.9V23.9z"/>
	</g>
	<g>
		<g>
			<path class="st0" d="M484,65c-0.4,0-0.8-0.1-1.1-0.4l-28.2-22.9c-0.7-0.6-0.8-1.6-0.2-2.4c0.6-0.7,1.6-0.8,2.4-0.2L484,61.2
				l26.5-21.1c0.7-0.6,1.8-0.5,2.4,0.3c0.6,0.7,0.5,1.8-0.3,2.4L485,64.7C484.7,64.9,484.3,65,484,65z"/>
		</g>
		<g>
			<path class="st0" d="M459.6,72.2c-0.4,0-0.8-0.1-1.1-0.4c-0.7-0.6-0.8-1.7-0.2-2.4l0.7-0.9c0.6-0.7,1.7-0.8,2.4-0.2
				c0.7,0.6,0.8,1.7,0.2,2.4l-0.7,0.9C460.6,72,460.1,72.2,459.6,72.2z"/>
		</g>
		<g>
			<path class="st0" d="M463.9,67c-0.4,0-0.8-0.1-1.1-0.4c-0.7-0.6-0.8-1.7-0.1-2.4l9.5-10.6c0.6-0.7,1.7-0.8,2.4-0.1
				c0.7,0.6,0.8,1.7,0.1,2.4l-9.5,10.6C464.8,66.8,464.4,67,463.9,67z"/>
		</g>
		<g>
			<path class="st0" d="M505.9,70.2c-0.5,0-1-0.2-1.3-0.6l-10.1-12.1c-0.6-0.7-0.5-1.8,0.2-2.4c0.7-0.6,1.8-0.5,2.4,0.2l10.1,12.1
				c0.6,0.7,0.5,1.8-0.2,2.4C506.7,70,506.3,70.2,505.9,70.2z"/>
		</g>
	</g>
</g>
<g>
	<g>
		<path class="st0" d="M261.7,52.2c-4.1,0-8-1.6-10.9-4.5c-6-6-6-15.8,0-21.8c2.9-2.9,6.8-4.5,10.9-4.5l0,0c4.1,0,8,1.6,10.9,4.5
			c6,6,6,15.8,0,21.8C269.7,50.5,265.8,52.2,261.7,52.2z M261.7,28c-2.3,0-4.5,0.9-6.2,2.6c-3.4,3.4-3.4,8.9,0,12.3
			c1.6,1.6,3.8,2.6,6.2,2.6c2.3,0,4.5-0.9,6.2-2.6c3.4-3.4,3.4-8.9,0-12.3C266.2,29,264,28,261.7,28z"/>
	</g>
	<g>
		<g>
			<path class="st0" d="M283.9,33.3c-0.8,0-1.5-0.5-1.6-1.3c-0.1-0.5-0.2-0.9-0.3-1.2c-0.1-0.5-0.1-0.6-0.2-0.8
				c-0.4-0.9,0-1.8,0.9-2.2c0.8-0.4,1.8,0,2.2,0.9c0.2,0.5,0.3,0.8,0.4,1.4c0.1,0.3,0.1,0.7,0.3,1.2c0.2,0.9-0.3,1.8-1.3,2
				C284.1,33.3,284,33.3,283.9,33.3z"/>
		</g>
		<g>
			<path class="st0" d="M280.8,26.1c-0.6,0-1.1-0.3-1.4-0.8c-3.5-5.5-9.2-9.1-15.6-10c-0.9-0.1-1.6-1-1.4-1.9c0.1-0.9,1-1.6,1.9-1.4
				c7.4,1,14,5.2,18,11.5c0.5,0.8,0.3,1.8-0.5,2.3C281.5,26,281.2,26.1,280.8,26.1z"/>
		</g>
	</g>
	<g>
		<path class="st0" d="M261.6,110.1c-2.8,0-8.2-1.3-12.5-9.8c-5-9.9-23.7-51.1-23.7-64.1c0-20,16.2-36.2,36.1-36.2
			s36.1,16.2,36.1,36.1c0,12.8-18.7,54.6-23.4,64.1C270.9,106.6,266.5,110.1,261.6,110.1z M261.5,6.8c-16.2,0-29.4,13.2-29.4,29.4
			c0,10.2,16.3,47.9,23,61.1c2,3.9,4.4,6.1,6.5,6.1s4.5-2.3,6.5-6.1c5.8-11.6,22.7-50.7,22.7-61.1C290.8,19.9,277.7,6.8,261.5,6.8z"
			/>
	</g>
</g>
</svg>
