<svg width="576" height="103" viewBox="0 0 576 103" fill="none" xmlns="http://www.w3.org/2000/svg">
<path d="M138.834 27.4531H148.967V47.0629H156.186L171.135 27.4531H182.708L164.862 50.4928L184.157 77.4561H171.638L156.681 56.3741H148.967V77.4561H138.834V27.4531Z" fill="#606060"/>
<path d="M199.13 27.4531H220.82L234.32 77.4561H223.726L213.115 36.7644H206.851L196.232 77.4561H185.621L199.13 27.4531Z" fill="#606060"/>
<path d="M241.582 27.4528H251.706V47.5474H258.465C260.773 35.2915 270.516 26.4741 283.061 26.4741C297.047 26.4741 308.143 37.8398 308.143 52.4498C308.143 67.0602 297.047 78.4346 283.061 78.4346C277.102 78.4218 271.344 76.2392 266.831 72.2826C262.319 68.326 259.351 62.8571 258.465 56.8674H251.706V77.4561H241.582V27.4528ZM283.061 69.1148C291.26 69.1148 297.533 62.6518 297.533 52.4498C297.533 42.2482 291.26 35.794 283.061 35.794C274.863 35.794 268.59 42.2659 268.59 52.4587C268.59 62.6518 274.863 69.1148 283.061 69.1148Z" fill="#606060"/>
<path d="M316.342 27.4531H326.476V45.0878C326.476 50.9691 329.851 54.4075 336.124 54.4075C339.273 54.5102 342.413 54.0108 345.381 52.9354C346.397 52.6271 347.348 52.1277 348.183 51.4628V27.4531H358.332V77.4561H348.183V60.2977C347.165 61.0194 346.063 61.6115 344.904 62.0612C341.787 63.23 338.482 63.7951 335.161 63.7276C323.101 63.7276 316.342 56.9648 316.342 46.093V27.4531Z" fill="#606060"/>
<path d="M391.111 26.4741C395.221 26.4731 399.232 27.7737 402.582 30.195C404.052 31.2217 405.384 32.4434 406.536 33.8278H407.024V27.4528H417.155V77.4561H407.031V70.587H406.546C405.426 72.088 404.094 73.4107 402.589 74.511C399.281 77.0469 395.253 78.4239 391.111 78.4346C378.096 78.4346 367.954 68.136 367.954 52.4498C367.954 36.764 378.089 26.4741 391.111 26.4741ZM393.037 69.1148C401.235 69.1148 407.031 63.3305 407.031 52.4498C407.031 41.5694 401.235 35.794 393.037 35.794C384.266 35.794 378.573 41.5783 378.573 52.4587C378.573 63.3394 384.266 69.1148 393.037 69.1148Z" fill="#606060"/>
<path d="M429.703 27.4531H454.298C463.945 27.4531 469.256 32.7435 469.256 39.7091C469.256 44.4087 467.32 47.0629 465.394 48.6324C464.26 49.5385 462.942 50.1743 461.535 50.4928V50.8807C463.263 51.1687 464.91 51.84 466.359 52.8469C468.769 54.5134 471.182 57.5466 471.182 63.137C471.182 71.0726 464.814 77.4561 454.782 77.4561H429.703V27.4531ZM453.333 47.0629C457.196 47.0629 459.122 45.2995 459.122 41.6668C459.122 38.6248 457.196 36.7644 453.333 36.7644H439.827V47.0629H453.333ZM454.298 68.1364C458.637 68.1364 461.058 65.685 461.058 61.7703C461.058 58.3315 458.644 55.8801 454.298 55.8801H439.827V68.1364H454.298Z" fill="#606060"/>
<path d="M476.006 27.4531H518.934V36.7644H502.537V77.4561H492.402V36.7644H476.006V27.4531Z" fill="#606060"/>
<path d="M548.84 26.4743C553.897 26.4725 558.84 27.9953 563.045 30.8498C567.254 33.7044 570.53 37.7625 572.466 42.5108C574.403 47.2595 574.912 52.4848 573.926 57.5261C572.936 62.5674 570.502 67.1985 566.925 70.833C563.349 74.4674 558.794 76.9423 553.833 77.9449C548.872 78.9472 543.73 78.4319 539.058 76.4639C534.387 74.4962 530.394 71.1643 527.584 66.8898C524.775 62.6153 523.277 57.59 523.28 52.4503C523.234 49.0268 523.867 45.6292 525.135 42.4579C526.408 39.2865 528.287 36.4057 530.669 33.9848C533.051 31.5639 535.885 29.6522 539.005 28.3623C542.126 27.0724 545.469 26.4304 548.84 26.4743ZM548.84 69.115C557.618 69.115 563.795 62.6519 563.795 52.4503C563.795 42.2483 557.618 35.7941 548.84 35.7941C540.058 35.7941 533.888 42.2661 533.888 52.4588C533.888 62.6519 540.058 69.115 548.84 69.115Z" fill="#606060"/>
<path d="M101.78 44.3029L92.0536 47.5122L40.2239 64.618C37.8548 65.3991 35.2778 65.192 33.0588 64.043C30.8399 62.894 29.1605 60.8965 28.3898 58.4899L28.2423 58.0314L37.17 55.0863L91.325 37.2137L100.869 34.0571C101.308 37.4605 101.612 40.8758 101.78 44.3029Z" fill="#606060"/>
<path d="M101.935 57.0971C101.84 60.6858 101.605 64.2833 101.249 67.8631C100.92 71.2077 100.48 74.5378 99.9307 77.853L99.8007 78.6642C98.8006 84.1211 96.2037 89.1443 92.3494 93.0771C88.4951 97.0099 83.5631 99.6691 78.1978 100.708H78.1544L77.1826 100.875C60.8122 103.661 44.1 103.661 27.7299 100.875L26.7582 100.708C21.3924 99.6705 16.4596 97.0114 12.6052 93.0785C8.75071 89.1454 6.15415 84.1214 5.15513 78.6642C5.10307 78.3907 5.05971 78.1265 5.01632 77.853C2.25734 61.167 2.25734 44.1301 5.01632 27.4443C5.01632 27.171 5.10307 26.8977 5.15513 26.6243C6.16387 21.1495 8.78004 16.1133 12.6593 12.1786C16.5386 8.24397 21.4992 5.59524 26.8883 4.58101C43.5481 1.72547 60.556 1.6659 77.2345 4.40467L78.0416 4.53693C82.5963 5.39322 86.8597 7.41816 90.4281 10.4196C93.9965 13.421 96.7507 17.2994 98.4299 21.6866L89.086 24.7727L40.2232 40.8995C39.0503 41.2877 37.8135 41.4368 36.5838 41.3384C35.3544 41.2404 34.1557 40.897 33.0566 40.328C31.9576 39.759 30.9797 38.9751 30.1789 38.0218C29.378 37.0686 28.7699 35.964 28.3892 34.7716L28.2417 34.3131L37.1693 31.3857L82.2235 16.5109C80.1771 15.3182 77.948 14.4836 75.6295 14.042C67.9722 12.7325 60.2213 12.0718 52.4563 12.0669C44.4605 12.1087 36.4813 12.8105 28.5975 14.1654C25.1732 14.8383 22.0279 16.5443 19.5718 19.0608C17.1158 21.5774 15.4629 24.7877 14.8288 28.2732L14.7073 28.9786C12.1306 44.6618 12.1306 60.6708 14.7073 76.3542L14.8027 76.936V77.0596C15.4334 80.5378 17.0786 83.7428 19.5247 86.2589C21.9707 88.7746 25.1047 90.4847 28.5194 91.1674L29.1614 91.2817H29.3349C36.9661 92.5884 44.6912 93.2462 52.4301 93.248C60.1719 93.2458 67.8998 92.5881 75.5341 91.2817H75.7076L76.3497 91.1674C79.7643 90.4847 82.8984 88.7746 85.3445 86.2589C87.7905 83.7428 89.4358 80.5378 90.0662 77.0596L90.179 76.3542C90.4567 74.6611 90.7083 72.9772 90.9253 71.2841L53.1157 83.7606C51.94 84.1463 50.7007 84.2926 49.4692 84.1911C48.2381 84.0895 47.0383 83.7421 45.939 83.1689C44.84 82.5956 43.8626 81.8079 43.0636 80.85C42.2643 79.8924 41.6589 78.7843 41.2815 77.5884L41.1342 77.1299L50.0618 74.1851L91.9317 60.3505L101.935 57.0971Z" fill="#606060"/>
</svg>
