<?xml version="1.0" encoding="utf-8"?>
<!-- Generator: Adobe Illustrator 21.0.2, SVG Export Plug-In . SVG Version: 6.00 Build 0)  -->
<svg version="1.1" id="Слой_1" xmlns="http://www.w3.org/2000/svg" xmlns:xlink="http://www.w3.org/1999/xlink" x="0px" y="0px"
	 viewBox="0 0 263 135" style="enable-background:new 0 0 263 135;" xml:space="preserve">
<style type="text/css">
	.st0{fill:#FFFFFF;}
	.st1{fill:#CBCD02;}
</style>
<g id="Слой_1_1_">
	<g>
		
			<image style="overflow:visible;opacity:0.67;enable-background:new    ;" width="1113" height="592" xlink:href="70152D4DE55B4852.png"  transform="matrix(0.2389 0 0 0.2376 -3.680420e-02 -0.6973)">
		</image>
		<g>
			<g>
				<path class="st0" d="M50.8,62.5l-1.7,1.3c-4.9,3.8-10.5,5.7-16.8,5.7c-3.5,0-6.9-0.6-10-1.9c-3.2-1.2-6-3-8.5-5.4
					c-2.6-2.4-4.6-5.3-6-8.4s-2.1-6.5-2.1-10s0.7-6.8,2.1-10c1.4-3.1,3.4-5.9,6-8.4c2.5-2.4,5.3-4.2,8.5-5.5c3.2-1.2,6.5-1.9,10-1.9
					c6.3,0,11.9,1.9,16.8,5.7l1.7,1.2l-4,12.1l-3.2-3c-1.5-1.4-3.2-2.4-5.1-3.2c-1.9-0.7-3.9-1.1-6.1-1.1s-4.2,0.4-6.1,1.1
					c-1.9,0.7-3.6,1.8-5.1,3.2c-2.9,2.7-4.3,6-4.3,9.6c0,1.8,0.4,3.6,1.1,5.2c0.7,1.7,1.8,3.1,3.2,4.4c1.5,1.4,3.2,2.5,5.1,3.2
					c1.9,0.7,3.9,1.1,6.1,1.1s4.2-0.4,6.1-1.1c1.9-0.7,3.6-1.8,5.1-3.2l3.2-3L50.8,62.5z"/>
				<path class="st0" d="M100.5,19.2v11.5h-16c-0.3,0-0.5,0.2-0.5,0.5v38.5H72.5V31.3c0-0.3-0.2-0.5-0.5-0.5H56V19.3h44.5V19.2z"/>
				<path class="st0" d="M132,19.4c3,0,5.9,0.6,8.5,1.7c2.7,1.2,5,2.7,7,4.7s3.6,4.3,4.7,6.9s1.7,5.5,1.7,8.5c0,2.7-0.5,5.3-1.6,7.9
					c-1.1,2.6-2.5,4.9-4.4,7c-2.1,2.3-4.5,4.1-7.3,5.3c-2.7,1.2-5.6,1.8-8.7,1.8h-12.8v6.5h-11.4V19.4L132,19.4L132,19.4z
					 M131.9,51.7c1.4,0,2.8-0.3,4.1-0.8c1.3-0.5,2.4-1.3,3.3-2.2c1-0.9,1.7-2,2.3-3.3c0.6-1.3,0.8-2.6,0.8-4.1s-0.3-2.8-0.8-4.1
					c-0.6-1.3-1.3-2.4-2.2-3.3c-0.9-1-2-1.7-3.3-2.3s-2.6-0.8-4.1-0.8h-12c-0.5,0-0.8,0.3-0.8,0.8V51c0,0.5,0.3,0.7,0.8,0.7
					L131.9,51.7L131.9,51.7z"/>
				<path class="st0" d="M201.6,26.7c1.4,2.5,2.2,5.2,2.4,8c0.2,2.9,0.4,5.9,0.4,9v4.9h-0.1c-0.1,2.2-0.3,4.2-0.7,6.3
					s-1,3.9-2.1,5.8c-1.8,3.1-4.3,5.4-7.6,6.8c-3,1.4-6.9,2.1-11.8,2.1c-4.8,0-8.7-0.7-11.8-2.1c-3.3-1.4-5.8-3.7-7.6-6.8
					c-1.4-2.5-2.2-5.2-2.4-8.1c-0.2-2.9-0.4-5.9-0.4-9v-4.9h0.1c0.1-2.2,0.3-4.2,0.6-6.3c0.3-2,1-3.9,2.1-5.8
					c1.8-3.1,4.3-5.3,7.6-6.8c3.1-1.4,7-2.1,11.8-2.1c4.9,0,8.8,0.7,11.8,2.1C197.3,21.3,199.8,23.6,201.6,26.7z M192.8,43.8
					c0-2.3,0-4.5-0.1-6.5s-0.5-3.6-1.2-4.8c-0.1-0.2-0.3-0.4-0.5-0.8c-0.3-0.3-0.7-0.6-1.4-0.9c-0.7-0.3-1.6-0.6-2.7-0.8
					c-1.2-0.2-2.7-0.4-4.6-0.4s-3.4,0.1-4.6,0.4c-1.2,0.2-2.1,0.5-2.7,0.8s-1.1,0.6-1.4,0.9c-0.3,0.3-0.4,0.6-0.5,0.8
					c-0.7,1.2-1.1,2.7-1.2,4.7s-0.1,4.1-0.1,6.3v0.1c0,2.3,0,4.5,0.1,6.5s0.5,3.6,1.2,4.8c0.1,0.1,0.3,0.4,0.5,0.7
					c0.3,0.3,0.7,0.7,1.4,1c0.6,0.3,1.6,0.6,2.7,0.8c1.2,0.2,2.7,0.4,4.6,0.4s3.5-0.1,4.6-0.4c1.2-0.2,2.1-0.5,2.7-0.8
					c0.7-0.3,1.1-0.6,1.4-1c0.3-0.3,0.4-0.6,0.5-0.7c0.7-1.2,1.1-2.7,1.2-4.7C192.7,48.3,192.8,46.1,192.8,43.8L192.8,43.8z"/>
				<path class="st0" d="M225.8,19.2v26.4c0,0.1,0,0.2,0.1,0.2c0,0,0.1,0,0.1-0.1l17.9-26.4h10.4v50.4h-11.5V41.8
					c0-0.1,0-0.2-0.1-0.2c0,0-0.1,0-0.1,0.1l-18.1,28h-10.2V19.2H225.8z M222.5,5l11.6,7.4L245.8,5l3.1,4.9l-14.8,9.4l-14.7-9.4
					L222.5,5z"/>
				<path class="st0" d="M31.2,74.4c3,0,5.9,0.6,8.5,1.7c2.7,1.2,5,2.7,7,4.7c2,2,3.6,4.3,4.7,6.9s1.7,5.5,1.7,8.5
					c0,2.7-0.5,5.3-1.6,7.9s-2.5,4.9-4.4,7c-2.1,2.3-4.5,4.1-7.3,5.3c-2.7,1.2-5.6,1.8-8.7,1.8H18.3v6.5H7V74.4L31.2,74.4L31.2,74.4
					z M31.2,106.7c1.4,0,2.8-0.3,4.1-0.8s2.4-1.3,3.3-2.2c1-0.9,1.7-2,2.3-3.3c0.6-1.3,0.8-2.6,0.8-4.1s-0.3-2.8-0.8-4.1
					c-0.6-1.3-1.3-2.4-2.2-3.3c-0.9-1-2-1.7-3.3-2.3c-1.3-0.6-2.6-0.8-4.1-0.8h-12c-0.5,0-0.8,0.3-0.8,0.8V106
					c0,0.5,0.3,0.7,0.8,0.7L31.2,106.7L31.2,106.7z"/>
				<path class="st0" d="M79.3,74.1h26.4v50.6H94.2v-5.9c0-0.4-0.2-0.6-0.6-0.6h-9.9c-0.3,0-0.5,0.1-0.6,0.4l-2.3,6.1H68.4l3-8
					c-3.7-1.4-6.8-3.6-9.2-6.6c-1.6-2-2.9-4.1-3.7-6.5c-0.9-2.4-1.3-4.8-1.3-7.4c0-3,0.6-5.9,1.7-8.6c1.2-2.7,2.7-5,4.8-7
					c2-2,4.4-3.6,7-4.7C73.4,74.7,76.2,74.1,79.3,74.1z M79.3,106.6h14.3c0.4,0,0.6-0.2,0.6-0.6V86.3c0-0.4-0.2-0.6-0.6-0.6H79.3
					c-1.4,0-2.8,0.3-4.1,0.8c-1.3,0.6-2.4,1.3-3.3,2.3c-1,1-1.7,2.1-2.2,3.3c-0.5,1.3-0.8,2.6-0.8,4.1s0.3,2.8,0.8,4.1
					c0.6,1.3,1.3,2.4,2.3,3.3s2.1,1.7,3.3,2.2C76.5,106.3,77.9,106.6,79.3,106.6z"/>
				<path class="st1" d="M159.5,113.2c0.5,0,0.7,0.2,0.7,0.6v14.8h-11.5v-3.5c0-0.3-0.1-0.4-0.4-0.4h-26.9c-0.3,0-0.4,0.1-0.4,0.4
					v3.5h-11.4v-14.8c0-0.4,0.2-0.6,0.7-0.6h5.4l13.9-38.7h15l12,38.7H159.5z M128.2,112.2c-0.1,0.2-0.1,0.5,0.1,0.6
					c0.1,0.2,0.3,0.3,0.6,0.3h14.8c0.6,0,0.8-0.3,0.7-0.9l-6.8-22.3c-0.1-0.3-0.3-0.5-0.6-0.5c-0.3,0-0.6,0.2-0.6,0.5L128.2,112.2z"
					/>
				<path class="st1" d="M202.1,81.7c1.4,2.5,2.2,5.2,2.4,8c0.2,2.9,0.4,5.9,0.4,9v4.9h-0.1c-0.1,2.2-0.3,4.2-0.7,6.3
					s-1,3.9-2.1,5.8c-1.8,3.1-4.3,5.4-7.6,6.8c-3,1.4-6.9,2.1-11.8,2.1c-4.8,0-8.7-0.7-11.8-2.1c-3.3-1.4-5.8-3.7-7.6-6.8
					c-1.4-2.5-2.2-5.2-2.4-8.1c-0.2-2.9-0.4-5.9-0.4-9v-4.9h0.1c0.1-2.2,0.3-4.2,0.6-6.3c0.3-2,1-3.9,2.1-5.8
					c1.8-3.1,4.3-5.3,7.6-6.8c3.1-1.4,7-2.1,11.8-2.1c4.9,0,8.8,0.7,11.8,2.1C197.8,76.3,200.3,78.6,202.1,81.7z M193.2,98.8
					c0-2.3,0-4.5-0.1-6.5s-0.5-3.6-1.2-4.8c-0.1-0.2-0.3-0.4-0.5-0.8c-0.3-0.3-0.7-0.6-1.4-0.9c-0.7-0.3-1.6-0.6-2.7-0.8
					c-1.2-0.2-2.7-0.4-4.6-0.4s-3.4,0.1-4.6,0.4c-1.2,0.2-2.1,0.5-2.7,0.8s-1.1,0.6-1.4,0.9s-0.4,0.6-0.5,0.8
					c-0.7,1.2-1.1,2.7-1.2,4.7s-0.1,4.1-0.1,6.3v0.1c0,2.3,0,4.5,0.1,6.5s0.5,3.6,1.2,4.8c0.1,0.1,0.3,0.4,0.5,0.7
					c0.3,0.3,0.7,0.7,1.4,1c0.6,0.3,1.6,0.6,2.7,0.8c1.2,0.2,2.7,0.4,4.6,0.4s3.5-0.1,4.6-0.4c1.2-0.2,2.1-0.5,2.7-0.8
					c0.7-0.3,1.1-0.6,1.4-1c0.3-0.3,0.4-0.6,0.5-0.7c0.7-1.2,1.1-2.7,1.2-4.7C193.2,103.3,193.2,101.1,193.2,98.8L193.2,98.8z"/>
				<path class="st1" d="M254.4,74.2v50.5h-11.5v-21c0-0.1-0.1-0.2-0.3-0.3c-0.2,0-0.3,0-0.4,0.1l-6.4,13.4h-9l-6.5-13.3
					c-0.1-0.2-0.2-0.3-0.4-0.2c-0.1,0-0.2,0.2-0.2,0.4v21h-11.5V74.3H219l12,24.9c0.1,0.1,0.2,0.1,0.3,0.1c0.1,0,0.2,0,0.3-0.1
					l12-24.9h10.8V74.2z"/>
			</g>
		</g>
	</g>
</g>
<g id="Слой_2">
</g>
</svg>
