<svg width="238" height="241" viewBox="0 0 238 241" fill="none" xmlns="http://www.w3.org/2000/svg">
<circle cx="118.313" cy="121" r="70" fill="#FF4A40"/>
<path d="M106.313 100.215L142.313 121L106.313 141.785V100.215Z" stroke="white" stroke-width="4"/>
<path d="M186.616 186.36C187.849 185.075 189.299 184.3 190.966 184.038L191.508 185.684C191.052 185.693 190.48 185.838 189.793 186.117C188.94 186.511 188.26 186.971 187.755 187.497C186.76 188.534 186.601 189.399 187.279 190.092C187.482 190.287 187.709 190.404 187.96 190.443C188.558 190.512 189.53 190.101 190.874 189.211C191.921 188.541 192.794 188.181 193.493 188.129C194.199 188.085 194.838 188.337 195.409 188.885C196.206 189.65 196.552 190.516 196.447 191.483C196.342 192.465 195.875 193.388 195.045 194.253C194.043 195.297 192.848 195.926 191.46 196.139L190.962 194.536C191.316 194.558 191.782 194.449 192.359 194.209C192.936 193.968 193.459 193.604 193.928 193.115C194.908 192.093 195.037 191.199 194.314 190.433C193.968 190.101 193.557 189.996 193.081 190.116C192.605 190.236 191.934 190.597 191.07 191.196C190.023 191.881 189.111 192.29 188.333 192.424C187.547 192.566 186.801 192.298 186.095 191.62C185.306 190.863 184.986 190.015 185.136 189.076C185.279 188.145 185.772 187.239 186.616 186.36Z" fill="black"/>
<path d="M175.597 196.396L176.99 195.236L180.2 199.09L184.594 195.43L181.384 191.576L182.764 190.426L190.035 199.154L188.654 200.304L185.614 196.654L181.22 200.315L184.26 203.964L182.868 205.124L175.597 196.396Z" fill="black"/>
<path d="M169.238 200.541L169.396 200.44C170.046 200.025 170.75 199.772 171.508 199.683C172.258 199.599 172.975 199.666 173.659 199.884C174.348 200.111 174.98 200.443 175.556 200.879C176.136 201.323 176.626 201.857 177.025 202.48C177.827 203.735 178.098 205.126 177.837 206.652C177.583 208.188 176.814 209.365 175.533 210.184L175.415 210.26C174.555 210.81 173.616 211.063 172.6 211.021C171.589 210.987 170.667 210.724 169.832 210.231C168.998 209.738 168.337 209.11 167.849 208.346L167.748 208.188C167.226 207.372 166.927 206.469 166.851 205.48C166.78 204.499 166.957 203.557 167.381 202.655C167.803 201.767 168.422 201.063 169.238 200.541ZM170.092 201.905C169.504 202.281 169.089 202.793 168.849 203.442C168.599 204.096 168.528 204.747 168.634 205.397C168.736 206.06 168.962 206.664 169.31 207.208L169.369 207.301C169.986 208.266 170.796 208.904 171.798 209.215C172.792 209.532 173.732 209.407 174.618 208.84C175.54 208.251 176.057 207.426 176.17 206.365C176.274 205.309 176.034 204.325 175.451 203.412C174.856 202.482 174.058 201.842 173.056 201.494C172.045 201.151 171.079 201.274 170.158 201.863L170.092 201.905Z" fill="black"/>
<path d="M152.382 209.158L153.841 208.516L160.36 215.291L159.689 205.939L161.133 205.303L169.002 214.249L167.429 214.942L161.17 207.711L162.138 217.273L160.608 217.947L154.163 210.798L155.275 220.297L153.702 220.99L152.382 209.158Z" fill="black"/>
<path d="M139.113 213.061L141.072 212.524L144.482 215.688L147.014 214.995L145.97 211.182L147.703 210.707L150.704 221.663L145.942 222.968C144.978 223.232 144.066 223.077 143.206 222.502C142.35 221.938 141.8 221.213 141.558 220.329C141.371 219.646 141.38 218.952 141.587 218.247C141.786 217.556 142.2 216.978 142.829 216.514L139.113 213.061ZM144.417 217.342C143.885 217.488 143.536 217.811 143.37 218.31C143.197 218.822 143.181 219.334 143.321 219.846C143.467 220.379 143.767 220.804 144.222 221.122C144.679 221.451 145.148 221.549 145.631 221.417L148.554 220.616L147.431 216.517L144.417 217.342Z" fill="black"/>
<path d="M130.088 214.531L137.779 213.249L139.647 224.453L132.11 225.71L131.851 224.153L137.615 223.192L137.083 220.002L132.09 220.834L131.845 219.37L136.839 218.538L136.266 215.101L130.348 216.087L130.088 214.531Z" fill="black"/>
<path d="M120.618 215.15L128.399 214.656L129.118 225.992L121.493 226.476L121.393 224.901L127.225 224.531L127.02 221.303L121.968 221.624L121.874 220.143L126.926 219.822L126.706 216.345L120.718 216.725L120.618 215.15Z" fill="black"/>
<path d="M110.838 214.824L118.724 215.098L118.329 226.451L116.533 226.388L116.873 216.613L110.783 216.401L110.838 214.824Z" fill="black"/>
<path d="M102.27 213.43C104.025 213.738 105.475 214.511 106.623 215.749L105.557 217.117C105.295 216.743 104.857 216.349 104.242 215.934C103.44 215.444 102.679 215.136 101.961 215.01C100.545 214.762 99.7384 215.112 99.5401 216.06C99.4915 216.338 99.521 216.591 99.6286 216.822C99.9049 217.357 100.787 217.934 102.275 218.555C103.415 219.051 104.201 219.575 104.632 220.127C105.063 220.689 105.209 221.36 105.072 222.14C104.881 223.227 104.355 223.997 103.493 224.448C102.619 224.908 101.592 225.035 100.412 224.828C98.9864 224.577 97.7982 223.935 96.8481 222.901L97.9023 221.595C98.0812 221.901 98.4312 222.227 98.9523 222.573C99.4733 222.918 100.067 223.149 100.734 223.266C102.13 223.511 102.944 223.12 103.177 222.093C103.26 221.621 103.119 221.22 102.753 220.892C102.388 220.563 101.715 220.207 100.736 219.824C99.5838 219.336 98.7355 218.806 98.1907 218.235C97.6357 217.662 97.4428 216.893 97.6121 215.928C97.8012 214.851 98.3273 214.113 99.1904 213.715C100.043 213.314 101.07 213.22 102.27 213.43Z" fill="black"/>
<path d="M87.9725 209.895L89.7121 210.404L88.3033 215.218L93.7919 216.824L95.2006 212.011L96.9252 212.515L93.7347 223.417L92.0101 222.913L93.3443 218.354L87.8557 216.748L86.5216 221.307L84.782 220.798L87.9725 209.895Z" fill="black"/>
<path d="M80.9974 206.906L81.1692 206.982C81.8755 207.29 82.4769 207.735 82.9733 208.316C83.4602 208.893 83.803 209.526 84.0018 210.215C84.1965 210.914 84.2727 211.624 84.2306 212.344C84.1843 213.074 84.013 213.778 83.7168 214.456C83.1201 215.821 82.1151 216.82 80.7017 217.452C79.2841 218.094 77.8785 218.111 76.485 217.502L76.3562 217.445C75.4208 217.036 74.6882 216.398 74.1583 215.53C73.6242 214.671 73.3299 213.758 73.2753 212.79C73.2207 211.823 73.375 210.924 73.738 210.094L73.8131 209.922C74.2011 209.034 74.7851 208.283 75.5651 207.669C76.3409 207.065 77.2218 206.688 78.2077 206.54C79.1798 206.396 80.1098 206.518 80.9974 206.906ZM80.3384 208.375C79.699 208.095 79.0428 208.036 78.3701 208.196C77.6878 208.353 77.1063 208.656 76.6257 209.105C76.1314 209.56 75.7549 210.083 75.4962 210.675L75.4524 210.775C74.9934 211.825 74.9135 212.853 75.2126 213.859C75.5022 214.861 76.129 215.573 77.093 215.994C78.0951 216.432 79.0685 216.403 80.0132 215.906C80.9483 215.406 81.6328 214.659 82.0667 213.666C82.509 212.655 82.5964 211.636 82.3289 210.609C82.0518 209.579 81.4122 208.844 80.41 208.406L80.3384 208.375Z" fill="black"/>
<path d="M64.3801 197.624L65.7234 198.481L63.699 207.663L71.1099 201.92L72.4401 202.769L69.3565 214.278L67.9078 213.353L70.4559 204.135L63.0349 210.242L61.6258 209.342L64.0027 200.015L56.7134 206.206L55.2647 205.281L64.3801 197.624Z" fill="black"/>
<path d="M53.8333 188.854L55.3728 190.179L54.6533 194.776L56.6429 196.488L59.2217 193.492L60.5836 194.664L53.1734 203.274L49.4311 200.053C48.6732 199.4 48.2925 198.557 48.2889 197.524C48.2786 196.498 48.5724 195.637 49.1704 194.943C49.6325 194.406 50.2134 194.026 50.9133 193.804C51.5984 193.583 52.309 193.603 53.0452 193.866L53.8333 188.854ZM53.2449 195.646C52.8265 195.286 52.364 195.176 51.8576 195.317C51.3364 195.46 50.9025 195.732 50.556 196.135C50.1958 196.554 50.0107 197.04 50.0005 197.595C49.9836 198.157 50.1646 198.602 50.5435 198.928L52.841 200.905L55.6134 197.684L53.2449 195.646Z" fill="black"/>
<path d="M47.2948 181.846L52.6218 187.539L44.327 195.3L39.1068 189.721L40.2592 188.643L44.2517 192.91L46.6135 190.7L43.1547 187.003L44.2386 185.989L47.6974 189.686L50.2418 187.305L46.1424 182.924L47.2948 181.846Z" fill="black"/>
<path d="M41.5755 174.378L46.3095 180.574L37.2835 187.47L32.6444 181.399L33.8984 180.441L37.4465 185.085L40.0164 183.121L36.9427 179.098L38.1222 178.197L41.1959 182.22L43.9645 180.104L40.3216 175.336L41.5755 174.378Z" fill="black"/>
<path d="M36.4467 166.044L40.5705 172.771L30.8859 178.708L29.9468 177.176L38.286 172.064L35.1013 166.869L36.4467 166.044Z" fill="black"/>
<path d="M32.8813 158.161C33.5934 159.794 33.7503 161.43 33.3518 163.07L31.6234 162.937C31.7903 162.512 31.8768 161.929 31.883 161.188C31.8483 160.248 31.6852 159.444 31.3937 158.776C30.819 157.458 30.0814 156.979 29.1809 157.338C28.9231 157.45 28.7279 157.615 28.5953 157.832C28.3018 158.357 28.3072 159.412 28.6114 160.995C28.8271 162.219 28.8242 163.164 28.6028 163.829C28.3718 164.498 27.8935 164.99 27.1679 165.307C26.1558 165.748 25.2235 165.734 24.3711 165.265C23.505 164.791 22.8325 164.004 22.3536 162.906C21.7747 161.579 21.654 160.234 21.9913 158.871L23.6624 159.029C23.5058 159.347 23.4274 159.819 23.4273 160.444C23.4272 161.069 23.5625 161.692 23.8332 162.312C24.3995 163.611 25.1753 164.074 26.1605 163.701C26.5997 163.509 26.8553 163.17 26.9275 162.684C26.9996 162.198 26.925 161.441 26.7037 160.412C26.4742 159.183 26.4473 158.183 26.6229 157.413C26.7944 156.634 27.3289 156.049 28.2264 155.657C29.229 155.22 30.1346 155.251 30.9435 155.751C31.7481 156.241 32.3941 157.044 32.8813 158.161Z" fill="black"/>
<path d="M27.9378 144.312L28.4742 146.043L23.6832 147.528L25.3756 152.99L30.1666 151.506L30.6983 153.222L19.8478 156.584L19.316 154.868L23.8533 153.462L22.1609 147.999L17.6236 149.405L17.0872 147.674L27.9378 144.312Z" fill="black"/>
<path d="M26.568 136.868L26.6009 137.052C26.7359 137.811 26.6996 138.558 26.4918 139.294C26.2823 140.019 25.9459 140.655 25.4826 141.203C25.0091 141.753 24.461 142.21 23.8382 142.575C23.2051 142.942 22.5245 143.19 21.7963 143.319C20.3298 143.58 18.9412 143.298 17.6306 142.473C16.3098 141.65 15.5161 140.49 15.2497 138.993L15.225 138.854C15.0462 137.849 15.1709 136.886 15.5992 135.963C16.0173 135.042 16.6136 134.291 17.3882 133.708C18.1627 133.126 18.9961 132.756 19.8884 132.597L20.073 132.564C21.0267 132.394 21.9754 132.464 22.919 132.772C23.8523 133.082 24.6544 133.606 25.3253 134.343C25.9841 135.073 26.3983 135.914 26.568 136.868ZM24.9808 137.134C24.8585 136.447 24.5439 135.868 24.037 135.398C23.5282 134.917 22.9536 134.601 22.3132 134.451C21.6606 134.292 21.0164 134.269 20.3806 134.382L20.2729 134.401C19.1448 134.602 18.2452 135.106 17.5742 135.913C16.9013 136.71 16.657 137.626 16.8413 138.662C17.0329 139.739 17.5974 140.533 18.5346 141.043C19.47 141.543 20.471 141.698 21.5376 141.508C22.6247 141.315 23.521 140.822 24.2264 140.03C24.9301 139.228 25.1861 138.288 24.9945 137.211L24.9808 137.134Z" fill="black"/>
<path d="M25.0557 117.942L25.093 119.535L16.343 122.975L25.2426 125.924L25.2795 127.502L14.0073 131.36L13.9671 129.642L23.0394 126.616L13.8318 123.862L13.7927 122.191L22.8602 118.962L13.6563 116.364L13.616 114.646L25.0557 117.942Z" fill="black"/>
<path d="M26.4975 104.298L26.2495 106.314L22.0264 108.266L21.7059 110.871L25.6294 111.354L25.41 113.137L14.1356 111.75L14.7385 106.85C14.8606 105.857 15.3507 105.073 16.2088 104.496C17.0565 103.918 17.9353 103.685 18.8451 103.797C19.5481 103.883 20.1863 104.156 20.7595 104.615C21.3237 105.062 21.7009 105.665 21.891 106.423L26.4975 104.298ZM20.5211 107.577C20.5885 107.029 20.4229 106.583 20.0243 106.24C19.6166 105.886 19.1491 105.676 18.6219 105.611C18.0739 105.544 17.5664 105.66 17.0992 105.959C16.6218 106.257 16.3525 106.655 16.2915 107.151L15.9214 110.159L20.1396 110.678L20.5211 107.577Z" fill="black"/>
<path d="M28.6227 95.2779L26.8523 102.871L15.7897 100.292L17.5246 92.8507L19.0615 93.209L17.7346 98.9001L20.8845 99.6346L22.034 94.7043L23.4796 95.0414L22.3301 99.9716L25.7234 100.763L27.0858 94.9196L28.6227 95.2779Z" fill="black"/>
<path d="M31.6394 86.3806L29.1169 93.7581L18.3684 90.0831L20.8403 82.8534L22.3336 83.3639L20.443 88.8934L23.5034 89.9398L25.1413 85.1496L26.5458 85.6298L24.908 90.42L28.2049 91.5473L30.1461 85.87L31.6394 86.3806Z" fill="black"/>
<path d="M35.6057 77.6435L32.3362 84.8249L21.9979 80.118L22.7424 78.4827L31.6445 82.5356L34.1695 76.9896L35.6057 77.6435Z" fill="black"/>
<path d="M40.1419 70.308C39.1833 71.8094 37.9123 72.8517 36.3288 73.435L35.4754 71.9262C35.9213 71.8278 36.4538 71.5745 37.0727 71.1664C37.8333 70.6138 38.4098 70.0303 38.8022 69.4157C39.5757 68.204 39.5626 67.3244 38.7629 66.7768C38.5259 66.6254 38.2803 66.5552 38.0262 66.566C37.4262 66.6154 36.5537 67.2077 35.4087 68.3429C34.5127 69.2044 33.727 69.7286 33.0516 69.9153C32.3674 70.0965 31.6917 69.974 31.0245 69.548C30.0938 68.9539 29.5856 68.1722 29.5 67.203C29.4111 66.2193 29.689 65.2227 30.3337 64.213C31.1128 62.9926 32.1622 62.1425 33.482 61.6627L34.2827 63.1379C33.9311 63.1853 33.4958 63.3832 32.9768 63.7316C32.4578 64.0799 32.0161 64.5395 31.6518 65.1101C30.8894 66.3042 30.9376 67.2063 31.7964 67.8163C32.2003 68.0742 32.624 68.0975 33.0678 67.8865C33.5115 67.6754 34.0986 67.1913 34.8291 66.4342C35.722 65.5583 36.537 64.9787 37.274 64.6954C38.0166 64.4033 38.8006 64.5207 39.6259 65.0476C40.5478 65.6361 41.0268 66.4054 41.063 67.3554C41.1047 68.2966 40.7977 69.2808 40.1419 70.308Z" fill="#FF4A40"/>
<path d="M48.9754 58.341L47.836 59.7506L43.9354 56.5976L40.3404 61.0451L44.2411 64.198L43.1115 65.5955L34.2773 58.4546L35.4068 57.0572L39.1009 60.0432L42.6959 55.5957L39.0018 52.6097L40.1412 51.2001L48.9754 58.341Z" fill="#FF4A40"/>
<path d="M54.6652 52.7599L54.5298 52.8896C53.973 53.4227 53.3311 53.8066 52.604 54.0413C51.8844 54.2689 51.1682 54.3417 50.4553 54.26C49.7352 54.1707 49.0508 53.9679 48.4019 53.6518C47.7459 53.3281 47.1621 52.8992 46.6506 52.365C45.6204 51.2892 45.0853 49.9772 45.0452 48.4292C44.9979 46.8736 45.5235 45.5699 46.6219 44.5181L46.7235 44.4208C47.4608 43.7148 48.3321 43.2843 49.3375 43.1293C50.3356 42.9668 51.2916 43.0465 52.2056 43.3683C53.1195 43.6902 53.8899 44.1785 54.5166 44.833L54.6463 44.9684C55.3163 45.6682 55.7846 46.4961 56.0512 47.4523C56.3106 48.4009 56.3193 49.3589 56.0773 50.3261C55.8356 51.2787 55.3649 52.0899 54.6652 52.7599ZM53.5634 51.5867C54.0675 51.104 54.3748 50.5213 54.4854 49.8385C54.6035 49.1485 54.5477 48.4953 54.318 47.8788C54.0885 47.2476 53.7505 46.6988 53.3038 46.2323L53.2282 46.1533C52.4357 45.3257 51.5176 44.8564 50.4738 44.7453C49.4376 44.6271 48.5395 44.9318 47.7796 45.6594C46.9896 46.4158 46.6421 47.3255 46.7369 48.3885C46.8392 49.4443 47.265 50.3634 48.0143 51.1458C48.7779 51.9434 49.6849 52.4161 50.7352 52.5642C51.7931 52.705 52.717 52.3972 53.507 51.6407L53.5634 51.5867Z" fill="#FF4A40"/>
<path d="M69.3841 41.1232L68.0783 42.037L60.3669 36.6582L62.8423 45.7009L61.5493 46.6057L52.0922 39.359L53.5004 38.3736L61.0453 44.2503L58.2372 35.0591L59.607 34.1005L67.3183 39.8608L64.3821 30.7591L65.7903 29.7737L69.3841 41.1232Z" fill="#FF4A40"/>
<path d="M81.5809 34.7164L79.764 35.6245L75.8024 33.1851L73.4543 34.3586L75.2216 37.8947L73.6143 38.698L68.5359 28.537L72.9526 26.3297C73.8471 25.8826 74.7718 25.8572 75.7267 26.2533C76.677 26.6401 77.357 27.2435 77.7668 28.0635C78.0835 28.6971 78.2091 29.3796 78.1438 30.1109C78.0831 30.8283 77.7895 31.4758 77.263 32.0534L81.5809 34.7164ZM75.5441 31.5499C76.0379 31.3031 76.3175 30.9189 76.3828 30.3971C76.4528 29.8614 76.369 29.3559 76.1315 28.8807C75.8847 28.3869 75.5074 28.0281 74.9997 27.8044C74.4873 27.5714 74.0075 27.5667 73.5602 27.7902L70.8488 29.1454L72.7488 32.947L75.5441 31.5499Z" fill="#FF4A40"/>
<path d="M89.9984 31.5711L82.6997 34.3133L78.7045 23.6797L85.857 20.9925L86.412 22.4698L80.9416 24.5251L82.0792 27.5528L86.8182 25.7723L87.3403 27.1618L82.6013 28.9423L83.8267 32.2041L89.4434 30.0938L89.9984 31.5711Z" fill="#FF4A40"/>
<path d="M99.4795 29.0246L91.9376 31.0021L89.0566 20.0141L96.4474 18.0763L96.8476 19.6028L91.1949 21.0849L92.0153 24.2135L96.9122 22.9295L97.2887 24.3654L92.3917 25.6494L93.2755 29.0198L99.0793 27.4981L99.4795 29.0246Z" fill="#FF4A40"/>
<path d="M108.976 27.4873L101.184 28.728L99.3975 17.51L101.172 17.2274L102.71 26.887L108.728 25.9288L108.976 27.4873Z" fill="#FF4A40"/>
<path d="M117.447 27.1773C115.666 27.2125 114.094 26.733 112.73 25.739L113.512 24.192C113.842 24.5084 114.348 24.811 115.031 25.0996C115.912 25.426 116.717 25.582 117.447 25.5676C118.884 25.5392 119.608 25.0404 119.62 24.0712C119.615 23.79 119.537 23.5467 119.387 23.3413C119.013 22.8694 118.036 22.472 116.457 22.149C115.243 21.8813 114.371 21.5182 113.841 21.0599C113.311 20.5911 113.038 19.9609 113.022 19.1694C113 18.0655 113.369 17.2091 114.128 16.6002C114.897 15.9807 115.881 15.6591 117.078 15.6354C118.526 15.6068 119.815 16.0085 120.947 16.8404L120.163 18.325C119.929 18.0587 119.523 17.8063 118.945 17.5676C118.367 17.329 117.74 17.2164 117.063 17.2298C115.646 17.2578 114.923 17.7982 114.891 18.8512C114.901 19.3302 115.116 19.6958 115.538 19.948C115.96 20.2001 116.688 20.4201 117.724 20.608C118.948 20.8651 119.882 21.2217 120.526 21.6778C121.181 22.1337 121.519 22.8511 121.538 23.8301C121.56 24.9236 121.185 25.7489 120.415 26.3059C119.655 26.8627 118.666 27.1532 117.447 27.1773Z" fill="black"/>
<path d="M132.095 27.8295L130.29 27.6675L130.738 22.672L125.042 22.1609L124.594 27.1564L122.804 26.9958L123.819 15.6819L125.609 15.8425L125.185 20.5735L130.88 21.0846L131.305 16.3536L133.11 16.5156L132.095 27.8295Z" fill="black"/>
<path d="M139.486 29.3386L139.303 29.2988C138.55 29.1348 137.873 28.8169 137.272 28.345C136.681 27.8753 136.221 27.322 135.89 26.6851C135.562 26.038 135.348 25.3571 135.247 24.6423C135.149 23.9174 135.179 23.1936 135.336 22.4709C135.653 21.0154 136.442 19.8386 137.704 18.9405C138.967 18.0322 140.342 17.7397 141.828 18.0631L141.966 18.093C142.963 18.3101 143.807 18.7923 144.497 19.5395C145.19 20.2765 145.658 21.1139 145.901 22.0518C146.145 22.9896 146.171 23.9013 145.978 24.7868L145.938 24.97C145.732 25.9166 145.307 26.7676 144.663 27.5229C144.021 28.268 143.231 28.8104 142.294 29.1501C141.369 29.4818 140.433 29.5446 139.486 29.3386ZM139.844 27.7694C140.526 27.9178 141.181 27.8471 141.809 27.5574C142.447 27.2699 142.958 26.8587 143.341 26.3237C143.736 25.7808 144.002 25.1938 144.14 24.5627L144.163 24.4558C144.407 23.3362 144.283 22.3125 143.792 21.3848C143.311 20.4593 142.557 19.8847 141.529 19.6609C140.46 19.4283 139.511 19.6483 138.683 20.3208C137.864 20.9955 137.34 21.8622 137.109 22.9207C136.874 23.9996 136.989 25.016 137.453 25.9698C137.927 26.9259 138.699 27.5202 139.768 27.7528L139.844 27.7694Z" fill="black"/>
<path d="M157.705 35.1569L156.22 34.5796L156.403 25.1794L150.263 32.2645L148.792 31.6929L149.557 19.8032L151.159 20.4258L150.47 29.9644L156.548 22.5201L158.106 23.1257L157.606 32.7379L163.539 25.237L165.141 25.8596L157.705 35.1569Z" fill="black"/>
<path d="M170.02 41.8282L168.255 40.8216L168.084 36.1723L165.804 34.8716L163.845 38.3052L162.284 37.4148L167.913 27.5482L172.201 29.9949C173.07 30.4904 173.605 31.2452 173.806 32.2593C174.012 33.2644 173.888 34.165 173.434 34.9612C173.083 35.5765 172.585 36.06 171.94 36.4119C171.31 36.7599 170.609 36.8754 169.836 36.7584L170.02 41.8282ZM169.3 35.0494C169.779 35.323 170.254 35.342 170.724 35.1065C171.209 34.8672 171.583 34.5168 171.846 34.0553C172.119 33.5758 172.208 33.0628 172.112 32.5163C172.021 31.9608 171.759 31.5592 171.324 31.3114L168.692 29.8093L166.586 33.5008L169.3 35.0494Z" fill="black"/>
<path d="M177.242 47.0271L170.905 42.4842L177.524 33.2522L183.733 37.704L182.814 38.9866L178.064 35.5817L176.18 38.2104L180.294 41.1601L179.43 42.3664L175.315 39.4168L173.285 42.2486L178.161 45.7445L177.242 47.0271Z" fill="black"/>
<path d="M184.83 53.6609L179 48.484L186.542 39.9899L192.256 45.063L191.208 46.243L186.838 42.363L184.691 44.7816L188.476 48.1429L187.491 49.2528L183.705 45.8915L181.392 48.497L185.878 52.4808L184.83 53.6609Z" fill="black"/>
<path d="M191.181 60.4641L185.812 54.6816L194.136 46.9526L195.359 48.2694L188.191 54.9246L192.337 59.3903L191.181 60.4641Z" fill="black"/>
<path d="M196.405 67.6464C195.39 66.1831 194.918 64.6085 194.99 62.9225L196.711 62.7168C196.63 63.1662 196.659 63.7552 196.797 64.4837C197.013 65.3985 197.329 66.1554 197.745 66.7544C198.565 67.9353 199.381 68.2624 200.195 67.7357C200.426 67.5753 200.586 67.3758 200.674 67.1373C200.859 66.5645 200.649 65.5311 200.043 64.037C199.594 62.878 199.413 61.951 199.501 61.2558C199.598 60.5548 199.972 59.9785 200.622 59.5271C201.529 58.8975 202.446 58.73 203.373 59.0247C204.315 59.322 205.128 59.9627 205.811 60.9468C206.636 62.1363 207.016 63.4323 206.95 64.835L205.28 65.005C205.372 64.6623 205.357 64.1844 205.236 63.5712C205.115 62.958 204.861 62.3733 204.475 61.817C203.667 60.6533 202.816 60.3499 201.922 60.907C201.528 61.1803 201.343 61.5623 201.367 62.053C201.391 62.5438 201.611 63.2722 202.028 64.2382C202.492 65.3997 202.712 66.3752 202.69 67.1645C202.673 67.9623 202.262 68.6404 201.458 69.1987C200.559 69.8224 199.665 69.9677 198.774 69.6348C197.89 69.3104 197.1 68.6476 196.405 67.6464Z" fill="black"/>
<path d="M203.88 80.0424L203.015 78.4493L207.424 76.0571L204.696 71.0307L200.288 73.423L199.431 71.8437L209.415 66.4257L210.272 68.005L206.097 70.2706L208.824 75.2969L212.999 73.0313L213.864 74.6244L203.88 80.0424Z" fill="black"/>
<path d="M206.807 87.2546L206.739 87.0798C206.46 86.3613 206.351 85.6213 206.413 84.8597C206.479 84.1079 206.686 83.4184 207.034 82.7913C207.393 82.1604 207.842 81.6058 208.383 81.1276C208.933 80.6457 209.553 80.2708 210.242 80.003C211.631 79.4637 213.048 79.4721 214.493 80.0282C215.948 80.5805 216.951 81.5655 217.502 82.9832L217.552 83.1143C217.922 84.0658 217.986 85.0356 217.744 86.0236C217.512 87.0078 217.072 87.8604 216.424 88.5812C215.777 89.3021 215.03 89.8266 214.186 90.1547L214.011 90.2226C213.108 90.5734 212.164 90.6887 211.178 90.5685C210.203 90.4446 209.315 90.0856 208.514 89.4915C207.727 88.9032 207.158 88.1576 206.807 87.2546ZM208.313 86.6865C208.565 87.337 208.986 87.8442 209.574 88.208C210.166 88.5814 210.791 88.7802 211.448 88.8042C212.119 88.8341 212.756 88.7321 213.358 88.4983L213.46 88.4587C214.528 88.0438 215.313 87.3756 215.816 86.4541C216.322 85.5422 216.385 84.5959 216.004 83.6152C215.608 82.5957 214.901 81.9261 213.882 81.6064C212.868 81.2964 211.856 81.3375 210.846 81.7297C209.817 82.1295 209.033 82.7861 208.494 83.6996C207.958 84.6228 207.888 85.5941 208.284 86.6136L208.313 86.6865Z" fill="black"/>
<path d="M211.982 105.48L211.64 103.924L219.569 98.8706L210.269 97.6818L209.93 96.1404L220.254 90.1933L220.623 91.8721L212.299 96.5801L221.863 97.5187L222.222 99.1517L213.941 104.058L223.472 104.844L223.841 106.523L211.982 105.48Z" fill="black"/>
<path d="M213.271 119.376L213.127 117.35L216.898 114.624L216.712 112.006L212.769 112.285L212.642 110.492L223.973 109.69L224.322 114.616C224.392 115.613 224.062 116.477 223.33 117.208C222.609 117.937 221.792 118.335 220.877 118.399C220.171 118.449 219.492 118.304 218.841 117.964C218.202 117.633 217.716 117.114 217.384 116.407L213.271 119.376ZM218.507 115.011C218.546 115.562 218.794 115.967 219.251 116.227C219.719 116.497 220.218 116.613 220.748 116.576C221.299 116.537 221.775 116.326 222.176 115.942C222.587 115.558 222.775 115.117 222.74 114.618L222.526 111.594L218.287 111.894L218.507 115.011Z" fill="black"/>
<path d="M212.946 128.763L213.218 120.971L224.57 121.366L224.304 129.002L222.727 128.947L222.93 123.107L219.698 122.994L219.522 128.054L218.038 128.002L218.215 122.943L214.732 122.821L214.524 128.818L212.946 128.763Z" fill="black"/>
<path d="M211.742 137.94L212.779 130.213L224.038 131.723L223.021 139.296L221.457 139.086L222.235 133.294L219.029 132.864L218.356 137.882L216.884 137.684L217.558 132.667L214.104 132.203L213.306 138.15L211.742 137.94Z" fill="black"/>
<path d="M209.534 147.403L211.354 139.725L222.407 142.346L221.993 144.094L212.475 141.838L211.069 147.767L209.534 147.403Z" fill="black"/>
</svg>
