<svg width="466" height="467" viewBox="0 0 466 467" fill="none" xmlns="http://www.w3.org/2000/svg">
<path d="M431.668 243.141V242.977C431.668 241.701 431.96 240.461 432.543 239.258C433.145 238.073 433.928 237.071 434.895 236.25C435.879 235.448 436.991 234.81 438.23 234.336C439.47 233.881 440.701 233.653 441.922 233.653C443.562 233.653 445.139 234.036 446.652 234.801C448.165 235.585 449.405 236.706 450.371 238.164C451.337 239.641 451.82 241.345 451.82 243.278C451.82 245.064 451.428 246.605 450.645 247.899C449.879 249.193 448.822 250.177 447.473 250.852L445.832 248.364C447.947 247.398 449.004 245.666 449.004 243.168C449.004 241.236 448.275 239.696 446.816 238.547C445.376 237.417 443.708 236.852 441.812 236.852C439.844 236.852 438.13 237.463 436.672 238.684C435.214 239.905 434.484 241.427 434.484 243.25C434.484 244.344 434.758 245.374 435.305 246.34C435.87 247.306 436.69 248.045 437.766 248.555L436.289 251.153C434.794 250.478 433.646 249.366 432.844 247.817C432.06 246.267 431.668 244.709 431.668 243.141Z" fill="black"/>
<path d="M428.608 274.86L428.926 271.704L443.018 273.121L432.912 266.224L433.095 264.401L444.376 259.627L430.283 258.209L430.598 255.081L450.377 257.07L450.04 260.417L437.304 265.731L448.724 273.503L448.387 276.849L428.608 274.86Z" fill="black"/>
<path d="M424.223 287.911L424.26 287.751C424.658 286.028 425.493 284.555 426.766 283.334C428.053 282.134 429.528 281.333 431.193 280.931C432.857 280.529 434.47 280.508 436.033 280.869L436.193 280.905C437.881 281.295 439.378 282.061 440.686 283.204C442.012 284.352 442.97 285.751 443.562 287.403C444.15 289.073 444.245 290.769 443.848 292.492L443.817 292.625C443.416 294.366 442.554 295.832 441.232 297.024C439.923 298.237 438.447 299.038 436.805 299.427C435.159 299.833 433.563 299.858 432.018 299.501L431.858 299.464C430.188 299.079 428.69 298.313 427.365 297.166C426.053 296.04 425.101 294.651 424.509 293C423.917 291.348 423.822 289.651 424.223 287.911ZM426.931 288.703C426.656 289.893 426.766 291.041 427.259 292.146C427.749 293.27 428.457 294.172 429.385 294.853C430.327 295.557 431.348 296.036 432.449 296.29L432.636 296.333C434.59 296.783 436.386 296.58 438.024 295.723C439.658 294.884 440.678 293.585 441.083 291.826C441.513 289.961 441.149 288.297 439.99 286.832C438.827 285.385 437.322 284.449 435.474 284.023C433.556 283.581 431.764 283.766 430.099 284.579C428.429 285.41 427.384 286.741 426.962 288.57L426.931 288.703Z" fill="black"/>
<path d="M416.998 308.936L418.057 305.946L434.193 311.657L436.41 305.393L439.014 306.315L433.539 321.781L430.936 320.859L433.135 314.647L416.998 308.936Z" fill="black"/>
<path d="M406.745 330.819L412.479 318.437L430.518 326.791L424.899 338.924L422.393 337.764L426.69 328.484L421.554 326.105L417.831 334.144L415.474 333.053L419.197 325.014L413.664 322.451L409.251 331.979L406.745 330.819Z" fill="black"/>
<path d="M402.666 336.616L404.236 333.891L421.462 343.812L417.3 351.039C416.426 352.555 415.122 353.487 413.387 353.834C411.642 354.197 410.051 353.964 408.614 353.136C407.113 352.272 406.079 351.035 405.513 349.425C404.946 347.816 405.104 346.245 405.986 344.713L408.661 340.068L402.666 336.616ZM408.475 345.925C408.002 346.746 407.957 347.573 408.341 348.404C408.725 349.235 409.344 349.896 410.197 350.387C411.192 350.961 412.137 351.127 413.034 350.885C413.927 350.685 414.584 350.221 415.002 349.495L417.499 345.159L411.054 341.447L408.475 345.925Z" fill="black"/>
<path d="M389.592 355.742L391.42 353.15L405.408 363.016L409.237 357.586L411.494 359.178L402.038 372.585L399.781 370.993L403.58 365.608L389.592 355.742Z" fill="black"/>
<path d="M377.727 369.504L382.78 363.571L397.914 376.46L395.875 378.854L390.296 374.102L387.424 377.475C385.958 379.196 384.421 380.101 382.812 380.192C381.203 380.282 379.697 379.73 378.296 378.536C377.393 377.768 376.741 376.889 376.339 375.9C375.924 374.924 375.815 373.886 376.011 372.784C376.221 371.694 376.793 370.6 377.727 369.504ZM380.006 370.834C379.155 371.834 378.804 372.78 378.953 373.673C379.104 374.592 379.583 375.394 380.388 376.08C381.206 376.777 382.062 377.122 382.953 377.115C383.859 377.121 384.749 376.61 385.624 375.583L388.318 372.418L382.718 367.649L380.006 370.834Z" fill="black"/>
<path d="M353.114 392.324L355.966 389.73L366.613 391.762L368.332 390.198L362.5 383.786L364.826 381.67L378.203 396.375L375.877 398.491L370.283 392.342L368.564 393.906L369.546 404.25L366.896 406.661L365.82 394.628L353.114 392.324Z" fill="black"/>
<path d="M338.908 401.935L349.823 393.748L361.751 409.652L351.054 417.674L349.397 415.465L357.578 409.329L354.182 404.801L347.094 410.116L345.536 408.038L352.623 402.723L348.965 397.844L340.565 404.144L338.908 401.935Z" fill="black"/>
<path d="M321.042 412.235L323.69 410.591L331.71 423.507L332.611 405.052L335.212 403.437L345.698 420.325L343.027 421.984L334.878 408.859L334.014 427.58L331.528 429.124L321.042 412.235ZM339.32 425.863C340.667 425.026 341.877 424.693 342.949 424.865C344.015 425.061 344.822 425.601 345.37 426.483L343.442 427.681C343.153 427.216 342.738 426.927 342.195 426.813C341.637 426.709 340.986 426.888 340.243 427.349C338.803 428.244 338.429 429.248 339.121 430.363L337.193 431.561C336.645 430.678 336.527 429.71 336.839 428.658C337.146 427.631 337.973 426.699 339.32 425.863Z" fill="black"/>
<path d="M307.931 417.222L308.079 417.152C309.233 416.607 310.478 416.342 311.815 416.356C313.144 416.394 314.385 416.674 315.539 417.198C316.685 417.746 317.737 418.479 318.694 419.397C319.636 420.324 320.367 421.339 320.889 422.443C321.589 423.927 321.916 425.516 321.87 427.211C321.807 428.914 321.323 430.514 320.416 432.01C319.494 433.514 318.159 434.679 316.411 435.504C314.796 436.267 313.236 436.57 311.731 436.414C310.233 436.274 308.892 435.738 307.706 434.806L309.256 432.26C311.032 433.76 313.049 433.977 315.308 432.91C317.055 432.085 318.137 430.768 318.552 428.959C318.96 427.174 318.758 425.425 317.949 423.71C317.108 421.93 315.825 420.641 314.098 419.844C312.37 419.047 310.683 419.037 309.034 419.816C308.045 420.283 307.231 420.97 306.591 421.877C305.958 422.8 305.641 423.857 305.638 425.048L302.659 424.822C302.631 423.182 303.146 421.669 304.205 420.282C305.271 418.911 306.513 417.892 307.931 417.222Z" fill="black"/>
<path d="M267.818 428.835L267.978 428.797C269.22 428.506 270.494 428.507 271.798 428.8C273.089 429.115 274.244 429.649 275.264 430.402C276.269 431.177 277.145 432.114 277.889 433.213C278.616 434.315 279.119 435.461 279.398 436.65C279.773 438.248 279.76 439.87 279.36 441.518C278.943 443.17 278.134 444.633 276.935 445.907C275.718 447.185 274.169 448.044 272.288 448.486C270.549 448.894 268.96 448.864 267.521 448.396C266.086 447.947 264.886 447.142 263.921 445.983L265.969 443.817C267.392 445.655 269.32 446.289 271.751 445.719C273.632 445.277 274.966 444.216 275.751 442.533C276.522 440.873 276.691 439.12 276.258 437.275C275.808 435.358 274.823 433.829 273.3 432.688C271.778 431.547 270.13 431.185 268.355 431.602C267.29 431.851 266.35 432.353 265.534 433.106C264.723 433.877 264.191 434.844 263.94 436.008L261.074 435.163C261.389 433.554 262.209 432.182 263.535 431.047C264.864 429.93 266.292 429.193 267.818 428.835Z" fill="black"/>
<path d="M236.039 433.005L239.185 432.603L240.981 446.652L245.423 435.251L247.24 435.019L254.434 444.932L252.638 430.883L255.757 430.484L258.278 450.202L254.942 450.629L246.893 439.418L241.896 452.297L238.56 452.723L236.039 433.005Z" fill="black"/>
<path d="M221.278 431.609L221.442 431.61C223.211 431.616 224.831 432.106 226.304 433.078C227.759 434.068 228.866 435.33 229.625 436.864C230.385 438.398 230.762 439.967 230.756 441.571L230.755 441.735C230.748 443.467 230.332 445.097 229.506 446.625C228.679 448.171 227.526 449.416 226.046 450.358C224.547 451.3 222.914 451.768 221.146 451.761L221.009 451.76C219.223 451.753 217.602 451.237 216.148 450.21C214.675 449.202 213.568 447.94 212.827 446.424C212.067 444.908 211.69 443.357 211.696 441.771L211.697 441.607C211.703 439.894 212.12 438.264 212.946 436.717C213.754 435.189 214.898 433.954 216.378 433.012C217.859 432.07 219.492 431.602 221.278 431.609ZM221.103 434.425C219.882 434.42 218.787 434.78 217.818 435.506C216.831 436.231 216.107 437.122 215.648 438.177C215.169 439.251 214.928 440.353 214.924 441.483L214.923 441.674C214.915 443.679 215.51 445.386 216.708 446.794C217.887 448.203 219.38 448.91 221.184 448.917C223.098 448.925 224.641 448.201 225.814 446.748C226.968 445.294 227.548 443.619 227.556 441.723C227.563 439.754 226.987 438.048 225.826 436.603C224.646 435.158 223.118 434.432 221.24 434.425L221.103 434.425Z" fill="black"/>
<path d="M199.248 429.259L202.398 429.625L200.423 446.628L207.024 447.394L206.705 450.137L190.408 448.245L190.727 445.501L197.273 446.262L199.248 429.259Z" fill="black"/>
<path d="M186.036 426.367L189.113 427.015L185.017 446.467L176.856 444.748C175.144 444.388 173.854 443.436 172.986 441.894C172.101 440.347 171.829 438.762 172.171 437.139C172.528 435.445 173.384 434.079 174.739 433.041C176.094 432.004 177.636 431.667 179.366 432.032L184.611 433.136L186.036 426.367ZM178.985 434.774C178.057 434.578 177.258 434.792 176.586 435.414C175.915 436.037 175.478 436.83 175.275 437.793C175.038 438.917 175.173 439.867 175.68 440.645C176.148 441.432 176.792 441.913 177.612 442.085L182.509 443.117L184.042 435.839L178.985 434.774Z" fill="black"/>
<path d="M158.395 418.184L171.435 422.199L165.585 441.198L152.806 437.263L153.619 434.624L163.392 437.633L165.058 432.224L156.591 429.616L157.355 427.134L165.822 429.741L167.617 423.913L157.582 420.823L158.395 418.184Z" fill="black"/>
<path d="M147.779 413.11L150.714 414.312L144.224 430.151L150.372 432.671L149.325 435.226L134.144 429.005L135.191 426.45L141.289 428.948L147.779 413.11Z" fill="black"/>
<path d="M131.75 404.66L138.669 408.247L129.52 425.895L126.729 424.448L130.101 417.942L126.168 415.904C124.162 414.863 122.933 413.57 122.483 412.022C122.032 410.474 122.231 408.883 123.078 407.249C123.623 406.197 124.333 405.363 125.206 404.748C126.063 404.125 127.05 403.785 128.168 403.727C129.277 403.687 130.471 403.997 131.75 404.66ZM130.967 407.18C129.802 406.576 128.801 406.448 127.964 406.794C127.103 407.149 126.429 407.795 125.943 408.734C125.448 409.689 125.304 410.6 125.511 411.467C125.711 412.35 126.409 413.102 127.607 413.723L131.297 415.636L134.681 409.106L130.967 407.18Z" fill="black"/>
<path d="M104.053 385.767L107.219 387.966L107.621 398.797L109.53 400.123L114.474 393.003L117.057 394.797L105.718 411.125L103.136 409.332L107.877 402.504L105.968 401.178L96.1056 404.45L93.1634 402.407L104.65 398.665L104.053 385.767Z" fill="black"/>
<path d="M91.4639 373.926L101.852 382.773L88.9632 397.907L78.7834 389.238L80.574 387.135L88.3598 393.766L92.0296 389.457L85.2847 383.712L86.9689 381.735L93.7138 387.479L97.6673 382.837L89.6733 376.029L91.4639 373.926Z" fill="black"/>
<path d="M77.4768 358.828L79.665 361.048L68.8369 371.72L87.0354 368.526L89.1852 370.707L75.0269 384.661L72.8196 382.422L83.8229 371.577L65.3723 374.865L63.3186 372.782L77.4768 358.828ZM68.2185 379.662C69.3317 380.792 69.9231 381.898 69.9925 382.981C70.0362 384.064 69.688 384.971 68.948 385.7L67.3549 384.084C67.7444 383.7 67.9347 383.231 67.9259 382.676C67.9042 382.109 67.5863 381.514 66.9721 380.89C65.782 379.683 64.7196 379.54 63.7848 380.461L62.1917 378.845C62.9318 378.115 63.8494 377.787 64.9445 377.859C66.0139 377.932 67.1052 378.532 68.2185 379.662Z" fill="black"/>
<path d="M69.8203 347.445L69.9221 347.573C70.7135 348.574 71.2535 349.727 71.5421 351.033C71.8052 352.336 71.8121 353.608 71.563 354.851C71.2883 356.091 70.8117 357.281 70.1333 358.421C69.4436 359.548 68.6197 360.49 67.6617 361.247C66.3747 362.265 64.9004 362.942 63.2387 363.28C61.5656 363.604 59.898 363.493 58.2356 362.948C56.5619 362.389 55.1259 361.352 53.9274 359.836C52.8194 358.435 52.1715 356.983 51.9837 355.482C51.7815 353.992 52.0004 352.564 52.6402 351.198L55.4704 352.133C54.4109 354.202 54.6556 356.216 56.2045 358.175C57.403 359.691 58.9303 360.447 60.7866 360.443C62.6172 360.437 64.2761 359.845 65.7632 358.67C67.3076 357.449 68.273 355.907 68.6594 354.044C69.0459 352.182 68.6738 350.535 67.5432 349.106C66.8649 348.248 66.0116 347.609 64.9834 347.191C63.9409 346.783 62.8395 346.713 61.6792 346.979L61.2264 344.026C62.8173 343.628 64.4078 343.788 65.998 344.506C67.5739 345.235 68.848 346.215 69.8203 347.445Z" fill="black"/>
<path d="M52.3323 317.385L52.4099 317.53C53.0138 318.654 53.3436 319.884 53.3991 321.22C53.43 322.548 53.214 323.803 52.7512 324.983C52.2636 326.155 51.586 327.243 50.7184 328.247C49.8421 329.236 48.866 330.019 47.7901 330.597C46.3449 331.373 44.7747 331.782 43.0795 331.824C41.3756 331.85 39.7531 331.449 38.2118 330.621C36.6619 329.778 35.4297 328.505 34.5151 326.803C33.6696 325.229 33.2859 323.687 33.3638 322.176C33.4257 320.673 33.8912 319.305 34.7603 318.073L37.3832 319.488C35.9777 321.34 35.8659 323.366 37.0479 325.566C37.9624 327.268 39.3338 328.28 41.162 328.602C42.9655 328.916 44.7023 328.624 46.3723 327.727C48.1066 326.795 49.3271 325.446 50.0337 323.68C50.7403 321.914 50.6622 320.228 49.7995 318.622C49.2818 317.659 48.5535 316.881 47.6145 316.288C46.6594 315.705 45.5874 315.443 44.3984 315.502L44.4697 312.515C46.1057 312.402 47.6436 312.838 49.0835 313.823C50.5074 314.817 51.5903 316.004 52.3323 317.385Z" fill="#FF4A40"/>
<path d="M40.1036 288.127L41.3173 291.057L28.2313 296.477L40.3987 297.771L41.0997 299.464L33.4211 309.007L46.5072 303.587L47.7104 306.493L29.3445 314.099L28.0575 310.992L36.7629 300.283L23.0247 298.841L21.7377 295.734L40.1036 288.127Z" fill="#FF4A40"/>
<path d="M37.7278 273.936L37.7701 274.095C38.2261 275.803 38.1778 277.495 37.6252 279.171C37.0502 280.834 36.1217 282.233 34.8397 283.367C33.5577 284.502 32.1417 285.276 30.5918 285.69L30.4333 285.732C28.7601 286.179 27.078 286.203 25.387 285.806C23.6784 285.413 22.1758 284.625 20.8791 283.443C19.5778 282.243 18.6991 280.789 18.2431 279.081L18.2078 278.949C17.7471 277.223 17.8218 275.524 18.432 273.851C19.0199 272.166 19.9484 270.767 21.2175 269.655C22.4819 268.525 23.8802 267.756 25.4125 267.347L25.571 267.304C27.2266 266.862 28.9087 266.838 30.6173 267.231C32.3036 267.611 33.7951 268.392 35.0918 269.574C36.3884 270.756 37.2671 272.21 37.7278 273.936ZM34.9644 274.504C34.6494 273.324 34.0151 272.361 33.0614 271.616C32.103 270.853 31.0543 270.388 29.9153 270.22C28.7539 270.04 27.6272 270.095 26.5352 270.386L26.3503 270.436C24.4129 270.953 22.9213 271.974 21.8754 273.498C20.8248 275.005 20.5322 276.63 20.9977 278.374C21.4913 280.223 22.593 281.523 24.3029 282.274C26.0081 283.008 27.7765 283.13 29.6083 282.641C31.5104 282.134 33.0067 281.13 34.0972 279.632C35.1831 278.116 35.4838 276.45 34.9996 274.636L34.9644 274.504Z" fill="#FF4A40"/>
<path d="M34.2986 252.498L34.7732 255.634L17.8487 258.195L18.8429 264.765L16.1122 265.178L13.6575 248.957L16.3881 248.543L17.3741 255.059L34.2986 252.498Z" fill="#FF4A40"/>
<path d="M33.0092 228.473L33.7984 242.094L13.9528 243.244L13.1794 229.896L15.9365 229.736L16.528 239.945L22.1787 239.618L21.6662 230.773L24.2595 230.623L24.772 239.468L30.8595 239.115L30.2521 228.632L33.0092 228.473Z" fill="#FF4A40"/>
<path d="M33.8537 221.047L33.7566 224.19L13.8872 223.576L14.1447 215.24C14.1987 213.491 14.9087 212.054 16.2749 210.929C17.6415 209.786 19.1539 209.24 20.812 209.291C22.5429 209.345 24.038 209.947 25.2974 211.098C26.5567 212.25 27.1591 213.709 27.1045 215.477L26.939 220.833L33.8537 221.047ZM24.3382 215.583C24.3674 214.635 24.0167 213.886 23.286 213.334C22.5553 212.783 21.698 212.492 20.714 212.461C19.5662 212.426 18.6541 212.726 17.9779 213.362C17.2846 213.96 16.925 214.679 16.8991 215.517L16.7447 220.519L24.1786 220.748L24.3382 215.583Z" fill="#FF4A40"/>
<path d="M36.3638 197.843L35.9736 200.99L18.9864 198.885L18.1691 205.479L15.4284 205.139L17.4464 188.858L20.1871 189.197L19.3766 195.737L36.3638 197.843Z" fill="#FF4A40"/>
<path d="M38.0918 179.482L35.4988 186.831L16.7526 180.216L17.7989 177.251L24.7095 179.689L26.1834 175.512C26.9355 173.38 28.0467 171.984 29.5169 171.324C30.9871 170.664 32.5903 170.64 34.3265 171.252C35.4439 171.647 36.3676 172.233 37.0978 173.013C37.834 173.775 38.3078 174.706 38.5192 175.805C38.7135 176.898 38.571 178.124 38.0918 179.482ZM35.4875 179.056C35.9242 177.818 35.913 176.809 35.4539 176.028C34.9836 175.225 34.25 174.647 33.2529 174.295C32.2387 173.937 31.3165 173.921 30.4863 174.247C29.639 174.566 28.9909 175.362 28.5421 176.634L27.1591 180.554L34.0955 183.001L35.4875 179.056Z" fill="#FF4A40"/>
<path d="M51.2297 148.68L49.9297 152.31L39.5749 155.514L38.7912 157.702L46.9515 160.625L45.8912 163.585L27.1765 156.882L28.2368 153.922L36.0625 156.725L36.8462 154.536L31.1228 145.864L32.3307 142.492L38.9301 152.611L51.2297 148.68Z" fill="#FF4A40"/>
<path d="M59.694 132.774L53.8226 145.091L35.8783 136.536L41.6321 124.467L44.1251 125.655L39.7244 134.886L44.8337 137.322L48.646 129.325L50.9909 130.443L47.1785 138.44L52.6828 141.064L57.2011 131.585L59.694 132.774Z" fill="#FF4A40"/>
<path d="M70.2842 115.94L68.7086 118.63L55.5905 110.945L63.4014 127.69L61.8534 130.332L44.7008 120.284L46.2902 117.571L59.6206 125.38L51.6527 108.417L53.1315 105.892L70.2842 115.94ZM47.7601 112.411C46.9585 113.78 46.0436 114.638 45.0156 114.987C43.981 115.31 43.0154 115.209 42.1188 114.684L43.266 112.726C43.7379 113.002 44.2403 113.064 44.7733 112.912C45.3156 112.743 45.8078 112.282 46.2501 111.527C47.107 110.064 46.9692 109.001 45.8367 108.337L46.9838 106.379C47.8804 106.904 48.4359 107.705 48.6504 108.781C48.8585 109.833 48.5617 111.043 47.7601 112.411Z" fill="#FF4A40"/>
<path d="M79.6294 105.165L79.5309 105.296C78.7653 106.317 77.7882 107.134 76.5997 107.746C75.4075 108.333 74.1789 108.665 72.9138 108.742C71.645 108.793 70.3726 108.636 69.0966 108.271C67.8315 107.892 66.7104 107.336 65.7333 106.603C64.4208 105.619 63.389 104.367 62.6379 102.846C61.8978 101.311 61.5788 99.6709 61.6809 97.9245C61.7939 96.1636 62.4301 94.5102 63.5894 92.9643C64.6613 91.5352 65.8991 90.538 67.3027 89.9729C68.6918 89.3969 70.1282 89.2437 71.6121 89.5135L71.4316 92.4885C69.1603 91.9927 67.2754 92.7437 65.777 94.7417C64.6176 96.2875 64.2767 97.9573 64.7543 99.751C65.2283 101.519 66.2236 102.972 67.7403 104.11C69.3153 105.291 71.0525 105.83 72.952 105.728C74.8515 105.626 76.3481 104.846 77.4419 103.388C78.0981 102.513 78.4973 101.525 78.6395 100.424C78.7671 99.3116 78.5538 98.2288 77.9996 97.1752L80.7395 95.983C81.5306 97.4194 81.7822 98.9981 81.4942 100.719C81.1916 102.429 80.57 103.911 79.6294 105.165Z" fill="#FF4A40"/>
<path d="M109.141 76.4064L109.018 76.5146C108.059 77.356 106.934 77.9541 105.645 78.3088C104.358 78.6378 103.087 78.7096 101.833 78.5241C100.581 78.3129 99.3683 77.8976 98.1947 77.2782C97.0347 76.6467 96.052 75.8719 95.2467 74.9536C94.1649 73.7202 93.413 72.2823 92.991 70.6399C92.5827 68.9856 92.6082 67.3144 93.0676 65.6265C93.5406 63.9265 94.5035 62.4395 95.9563 61.1654C97.2993 59.9874 98.7158 59.2664 100.206 59.0023C101.684 58.7246 103.121 58.8704 104.517 59.4398L103.728 62.314C101.608 61.3612 99.6087 61.7082 97.7311 63.3549C96.2783 64.629 95.6011 66.1929 95.6992 68.0465C95.7991 69.8745 96.474 71.5011 97.7241 72.9264C99.0222 74.4066 100.611 75.2922 102.491 75.5832C104.371 75.8743 105.996 75.4189 107.366 74.2169C108.189 73.4957 108.783 72.611 109.149 71.5628C109.502 70.5009 109.517 69.3974 109.191 68.2522L112.118 67.6495C112.596 69.2181 112.517 70.8147 111.881 72.4394C111.233 74.0504 110.32 75.3727 109.141 76.4064Z" fill="black"/>
<path d="M135.153 57.6969L132.568 59.5345L124.362 47.9897L125.818 60.1387L124.325 61.2001L113.307 55.8471L121.513 67.3919L118.95 69.2137L107.433 53.0108L110.175 51.0623L122.557 57.1559L120.895 43.4425L123.636 41.494L135.153 57.6969Z" fill="black"/>
<path d="M148.265 52.1554L148.12 52.2325C146.559 53.0636 144.9 53.3998 143.143 53.2411C141.393 53.0576 139.82 52.4701 138.425 51.4784C137.029 50.4867 135.954 49.2829 135.2 47.867L135.123 47.7221C134.309 46.1936 133.905 44.5607 133.909 42.8236C133.905 41.0704 134.331 39.4284 135.189 37.8977C136.063 36.3585 137.28 35.1733 138.841 34.3422L138.962 34.2779C140.538 33.4382 142.21 33.1262 143.977 33.3418C145.752 33.5327 147.325 34.1203 148.695 35.1044C150.082 36.0801 151.149 37.2678 151.894 38.6676L151.971 38.8124C152.777 40.3249 153.181 41.9577 153.186 43.711C153.197 45.4395 152.774 47.0691 151.917 48.5998C151.059 50.1305 149.842 51.3157 148.265 52.1554ZM147.086 49.5924C148.164 49.0183 148.958 48.1824 149.468 47.0847C149.994 45.9784 150.21 44.8516 150.115 43.7042C150.028 42.5321 149.719 41.4472 149.187 40.4497L149.098 40.2807C148.155 38.5108 146.823 37.2891 145.101 36.6157C143.396 35.9337 141.746 36.0168 140.153 36.8651C138.464 37.7647 137.447 39.1323 137.103 40.9679C136.775 42.7949 137.056 44.5451 137.947 46.2184C138.872 47.9562 140.188 49.1864 141.895 49.9092C143.618 50.6233 145.308 50.5392 146.965 49.6566L147.086 49.5924Z" fill="black"/>
<path d="M168.197 43.9874L165.249 45.1571L158.936 29.2465L152.76 31.697L151.742 29.1299L166.991 23.0794L168.01 25.6465L161.885 28.0768L168.197 43.9874Z" fill="black"/>
<path d="M181.635 40.0962L178.616 40.9761L173.054 21.8912L181.061 19.5577C182.741 19.068 184.327 19.2988 185.82 20.2499C187.33 21.196 188.317 22.4653 188.781 24.0579C189.265 25.7205 189.155 27.3287 188.45 28.8824C187.744 30.4361 186.543 31.4603 184.845 31.955L179.7 33.4546L181.635 40.0962ZM183.889 29.3572C184.799 29.092 185.403 28.5266 185.701 27.6612C186 26.7957 186.011 25.8904 185.736 24.9454C185.414 23.8428 184.847 23.0683 184.033 22.6219C183.25 22.1478 182.455 22.028 181.65 22.2627L176.846 23.6627L178.927 30.8032L183.889 29.3572Z" fill="black"/>
<path d="M210.772 34.1069L197.369 36.6634L193.644 17.1365L206.779 14.6313L207.296 17.3441L197.251 19.2601L198.311 24.8201L207.013 23.1602L207.5 25.7118L198.798 27.3717L199.94 33.3614L210.254 31.3941L210.772 34.1069Z" fill="black"/>
<path d="M221.405 33.6291L218.25 33.9587L216.472 16.9342L209.863 17.6246L209.576 14.8778L225.893 13.1731L226.18 15.9199L219.626 16.6046L221.405 33.6291Z" fill="black"/>
<path d="M240.126 33.4482L232.333 33.5384L232.103 13.6608L235.247 13.6244L235.332 20.952L239.762 20.9008C242.022 20.8746 243.715 21.4383 244.84 22.5921C245.965 23.7458 246.539 25.2431 246.56 27.0842C246.574 28.269 246.34 29.3382 245.859 30.2917C245.396 31.2451 244.685 32.0098 243.725 32.5861C242.765 33.1441 241.566 33.4315 240.126 33.4482ZM239.631 30.8561C240.943 30.8409 241.887 30.4836 242.462 29.7841C243.056 29.0663 243.346 28.1787 243.334 27.1215C243.321 26.0461 243.02 25.1745 242.428 24.5068C241.837 23.8209 240.867 23.4858 239.518 23.5014L235.362 23.5495L235.447 30.9045L239.631 30.8561Z" fill="black"/>
<path d="M274.488 37.1139L270.66 36.6544L265.232 27.2726L262.925 26.9955L261.891 35.6017L258.769 35.2269L261.139 15.4897L264.261 15.8645L263.27 24.1178L265.578 24.3948L272.758 16.8846L276.315 17.3116L267.919 25.9978L274.488 37.1139Z" fill="black"/>
<path d="M290.435 41.4211L277.106 38.5074L281.351 19.087L294.413 21.9423L293.823 24.6403L283.833 22.4565L282.624 27.9861L291.279 29.878L290.724 32.4157L282.069 30.5239L280.767 36.4809L291.025 38.7231L290.435 41.4211Z" fill="black"/>
<path d="M309.741 48.0599L306.765 47.1313L311.294 32.6184L296.742 44.0033L293.818 43.091L299.74 24.1147L302.742 25.0514L298.14 39.7992L312.869 28.2119L315.662 29.0835L309.741 48.0599ZM308.1 25.3201C306.586 24.8476 305.544 24.1499 304.973 23.2269C304.424 22.2919 304.305 21.3284 304.614 20.3365L306.781 21.0126C306.618 21.5347 306.671 22.0381 306.94 22.523C307.226 23.0134 307.786 23.3889 308.622 23.6495C310.24 24.1546 311.245 23.7806 311.636 22.5277L313.802 23.2038C313.493 24.1957 312.838 24.9175 311.837 25.3692C310.86 25.8089 309.614 25.7925 308.1 25.3201Z" fill="black"/>
<path d="M323.064 55.0568L322.915 54.9901C321.749 54.4712 320.735 53.7006 319.873 52.6784C319.035 51.647 318.438 50.5232 318.081 49.3069C317.749 48.0815 317.618 46.8061 317.689 45.4809C317.777 44.1631 318.069 42.9463 318.566 41.8305C319.233 40.3317 320.224 39.0468 321.539 37.9759C322.87 36.9124 324.399 36.2359 326.124 35.9463C327.866 35.6641 329.619 35.9159 331.385 36.7017C333.017 37.4281 334.264 38.4126 335.128 39.6551C335.999 40.8808 336.469 42.2471 336.536 43.7537L333.596 44.2407C333.573 41.9159 332.421 40.2458 330.139 39.2302C328.374 38.4444 326.67 38.4841 325.028 39.3494C323.41 40.2055 322.215 41.4995 321.444 43.2315C320.644 45.0301 320.505 46.8439 321.027 48.6728C321.55 50.5018 322.644 51.787 324.31 52.5283C325.309 52.9731 326.361 53.1421 327.466 53.0354C328.579 52.912 329.587 52.4628 330.49 51.6878L332.263 54.0931C331.039 55.1845 329.556 55.7815 327.814 55.8841C326.08 55.9701 324.497 55.6943 323.064 55.0568Z" fill="black"/>
<path d="M358.055 77.8025L357.922 77.706C356.89 76.9554 356.06 75.9903 355.43 74.8109C354.825 73.6274 354.476 72.4037 354.381 71.1398C354.311 69.872 354.449 68.5974 354.795 67.3162C355.156 66.0457 355.695 64.9166 356.414 63.9289C357.379 62.6022 358.616 61.5522 360.125 60.779C361.649 60.0166 363.285 59.6737 365.033 59.7502C366.795 59.8375 368.458 60.4495 370.02 61.5861C371.465 62.637 372.48 63.8601 373.066 65.2553C373.662 66.6358 373.836 68.0699 373.588 69.5575L370.61 69.4205C371.073 67.1422 370.295 65.2685 368.275 63.7994C366.712 62.6627 365.038 62.3462 363.251 62.85C361.49 63.3497 360.052 64.3662 358.937 65.8993C357.779 67.4914 357.264 69.2363 357.394 71.1341C357.524 73.0319 358.326 74.5169 359.8 75.5893C360.685 76.2327 361.678 76.6174 362.781 76.7435C363.895 76.8549 364.975 76.6258 366.02 76.0563L367.252 78.7784C365.828 79.5905 364.253 79.8651 362.528 79.6022C360.814 79.3246 359.323 78.7247 358.055 77.8025Z" fill="black"/>
<path d="M382.03 99.1065L379.669 96.9892L389.124 86.4429L377.593 90.5381L376.229 89.3152L379.025 77.3895L369.57 87.9358L367.229 85.8367L380.499 71.0353L383.003 73.2804L379.785 86.7007L392.796 82.06L395.3 84.305L382.03 99.1065Z" fill="black"/>
<path d="M390.166 110.54L390.059 110.416C388.902 109.078 388.207 107.535 387.972 105.786C387.764 104.039 387.988 102.375 388.646 100.794C389.304 99.2139 390.24 97.8992 391.453 96.8502L391.578 96.743C392.888 95.6106 394.39 94.8541 396.085 94.4735C397.794 94.0809 399.49 94.1333 401.172 94.6307C402.867 95.1418 404.292 96.0663 405.449 97.4041L405.538 97.5076C406.706 98.8592 407.381 100.42 407.562 102.191C407.769 103.964 407.545 105.628 406.888 107.183C406.244 108.751 405.322 110.054 404.122 111.091L403.998 111.198C402.702 112.319 401.199 113.075 399.491 113.468C397.808 113.862 396.125 113.811 394.442 113.313C392.759 112.816 391.334 111.892 390.166 110.54ZM392.404 108.823C393.203 109.747 394.194 110.336 395.377 110.59C396.572 110.858 397.719 110.819 398.817 110.472C399.941 110.127 400.93 109.586 401.785 108.847L401.93 108.721C403.447 107.41 404.343 105.841 404.619 104.012C404.906 102.198 404.459 100.608 403.279 99.2429C402.028 97.7947 400.469 97.1061 398.603 97.177C396.748 97.2617 395.104 97.9238 393.67 99.1635C392.18 100.451 391.272 102.007 390.945 103.831C390.63 105.669 391.087 107.299 392.315 108.719L392.404 108.823Z" fill="black"/>
<path d="M402.407 127.973L400.608 125.361L414.703 115.649L410.933 110.177L413.207 108.611L422.516 122.121L420.241 123.687L416.503 118.261L402.407 127.973Z" fill="black"/>
<path d="M414.089 148.922L407.411 137.024L424.745 127.294L431.29 138.954L428.882 140.305L423.876 131.388L418.94 134.158L423.277 141.884L421.012 143.155L416.675 135.43L411.358 138.414L416.497 147.57L414.089 148.922Z" fill="black"/>
<path d="M416.564 155.887L415.275 153.019L433.405 144.868L436.825 152.474C437.543 154.07 437.534 155.673 436.799 157.283C436.071 158.909 434.95 160.063 433.438 160.743C431.858 161.453 430.25 161.566 428.614 161.083C426.977 160.6 425.796 159.551 425.071 157.939L422.874 153.051L416.564 155.887ZM427.512 156.632C427.9 157.496 428.544 158.016 429.442 158.192C430.341 158.368 431.239 158.254 432.137 157.85C433.184 157.379 433.873 156.71 434.202 155.842C434.563 155 434.572 154.197 434.228 153.432L432.176 148.868L425.393 151.918L427.512 156.632Z" fill="black"/>
<path d="M424.49 177.947L423.465 174.945L439.665 169.416L437.519 163.128L440.133 162.236L445.432 177.763L442.818 178.655L440.69 172.418L424.49 177.947Z" fill="black"/>
<path d="M428.565 195.201L426.727 187.627L446.046 182.94L446.787 185.996L439.666 187.724L440.71 192.028C441.243 194.225 441.074 196.001 440.203 197.357C439.331 198.713 438.001 199.608 436.211 200.042C435.06 200.321 433.966 200.334 432.928 200.079C431.895 199.842 430.99 199.32 430.213 198.515C429.454 197.705 428.905 196.6 428.565 195.201ZM430.98 194.136C431.289 195.412 431.849 196.251 432.66 196.655C433.493 197.072 434.423 197.156 435.451 196.906C436.496 196.653 437.277 196.163 437.795 195.437C438.331 194.707 438.44 193.686 438.121 192.375L437.141 188.336L429.993 190.071L430.98 194.136Z" fill="black"/>
<path d="M432.611 228.948L432.196 225.115L440.112 217.712L439.862 215.401L431.244 216.335L430.905 213.208L450.669 211.067L451.007 214.193L442.743 215.089L442.994 217.399L451.929 222.702L452.315 226.263L441.96 220.042L432.611 228.948Z" fill="black"/>
<path d="M432.003 246.199L431.845 232.556L451.722 232.325L451.877 245.696L449.115 245.728L448.997 235.502L443.337 235.567L443.44 244.426L440.842 244.456L440.74 235.597L434.643 235.668L434.764 246.167L432.003 246.199Z" fill="black"/>
</svg>
