<svg width="468" height="106" viewBox="0 0 468 106" fill="none" xmlns="http://www.w3.org/2000/svg">
<path d="M13.3569 30.5381V56.2709C13.3569 57.5732 14.0499 58.7644 15.1647 59.4206L37.3294 72.2819C38.4441 72.928 39.8301 72.928 40.9448 72.2819L63.1095 59.4206C64.2243 58.7745 64.9173 57.5732 64.9173 56.2709V30.5381C64.9173 29.2358 64.2243 28.0446 63.1095 27.3884L40.9448 14.5271C39.8301 13.881 38.4441 13.881 37.3294 14.5271L15.1647 27.3884C14.0499 28.0345 13.3569 29.2358 13.3569 30.5381Z" fill="url(#paint0_linear_1062_3691)"/>
<path d="M28.2407 56.271V82.0038C28.2407 83.3061 28.9337 84.4973 30.0485 85.1535L52.2132 98.0148C53.3279 98.6609 54.7139 98.6609 55.8286 98.0148L77.9934 85.1535C79.1081 84.5074 79.8011 83.3061 79.8011 82.0038V56.271C79.8011 54.9687 79.1081 53.7775 77.9934 53.1213L55.8286 40.26C54.7139 39.6139 53.3279 39.6139 52.2132 40.26L30.0485 53.1213C28.9337 53.7674 28.2407 54.9687 28.2407 56.271Z" fill="#979797"/>
<path d="M93.4993 56.2608V30.5281C93.4993 29.2258 92.8064 28.0346 91.6916 27.3784L69.5269 14.517C68.4121 13.8709 67.0262 13.8709 65.9114 14.517L43.7467 27.3784C42.6319 28.0245 41.939 29.2258 41.939 30.5281V56.2608C41.939 57.5631 42.6319 58.7544 43.7467 59.4106L65.9114 72.2719C67.0262 72.918 68.4121 72.918 69.5269 72.2719L76.8984 67.9915L91.6916 59.4106C92.8064 58.7645 93.4993 57.5631 93.4993 56.2608Z" fill="url(#paint1_linear_1062_3691)"/>
<path d="M85.5957 12.8108L101.293 22.8455L101.654 39.8458" stroke="#D7D7D7" stroke-width="1.71429" stroke-miterlimit="10"/>
<path d="M90.6373 70.2327L90.4967 88.9391L76.3362 98.247" stroke="#979797" stroke-width="1.71429" stroke-miterlimit="10"/>
<path d="M18.6597 73.0492L2.96262 63.0145L2.60107 46.0142" stroke="#C2C2C2" stroke-width="1.71429" stroke-miterlimit="10"/>
<path d="M94.052 8.56079L109.749 18.5955L110.111 35.5958" stroke="#D7D7D7" stroke-width="1.71429" stroke-miterlimit="10"/>
<path d="M78.0031 53.1213L55.8384 40.26C54.7236 39.6139 53.3377 39.6139 52.2229 40.26L41.939 46.2262V56.2609C41.939 57.5632 42.6319 58.7544 43.7467 59.4106L65.9114 72.272C67.0262 72.918 68.4121 72.918 69.5269 72.272L76.8984 67.9916L79.8008 66.3057V56.271C79.8008 54.9687 79.1078 53.7775 77.9931 53.1213H78.0031Z" fill="url(#paint2_linear_1062_3691)"/>
<path d="M55.8286 40.26C54.7139 39.6139 53.3279 39.6139 52.2132 40.26L30.0485 53.1213C28.9337 53.7674 28.2407 54.9687 28.2407 56.271V67.0022L37.3296 72.2821C38.4443 72.9282 39.8303 72.9282 40.945 72.2821L63.1097 59.4207C64.2245 58.7746 64.9175 57.5733 64.9175 56.271V45.5398L55.8286 40.26Z" fill="#979797"/>
<path d="M41.939 30.5381V56.2709C41.939 57.5732 42.6319 58.7644 43.7467 59.4206L53.4281 65.0437L63.1094 59.4206C64.2242 58.7745 64.9172 57.5732 64.9172 56.2709V30.5381C64.9172 29.2359 64.2242 28.0446 63.1094 27.3884L53.4281 21.7654L43.7467 27.3884C42.6319 28.0345 41.939 29.2359 41.939 30.5381Z" fill="url(#paint3_linear_1062_3691)"/>
<path d="M52.2132 40.2598L41.9292 46.2261V56.2608C41.9292 57.563 42.6222 58.7543 43.7369 59.4105L53.4183 65.0335L63.0997 59.4105C64.2144 58.7644 64.9074 57.563 64.9074 56.2608V45.5295L55.8186 40.2497C54.7038 39.6036 53.3179 39.6036 52.2031 40.2497L52.2132 40.2598Z" fill="white"/>
<path d="M139.586 53.222V31.9312H149.449C151.909 31.9312 153.827 32.4056 155.193 33.3647C156.569 34.3136 157.252 35.6765 157.252 37.4431C157.252 39.2098 156.609 40.5424 155.314 41.5014C154.018 42.4605 152.311 42.945 150.172 42.945L150.744 41.663C153.124 41.663 154.972 42.1374 156.278 43.0965C157.593 44.0454 158.246 45.4285 158.246 47.2355C158.246 49.0426 157.543 50.567 156.147 51.627C154.741 52.687 152.703 53.222 150.021 53.222H139.576H139.586ZM144.457 40.7544H149.027C150.091 40.7544 150.905 40.5424 151.447 40.0982C151.989 39.6641 152.261 39.018 152.261 38.17C152.261 37.322 151.989 36.6759 151.447 36.2418C150.905 35.8077 150.091 35.5856 149.027 35.5856H144.457V40.7544ZM144.457 49.5776H149.84C150.965 49.5776 151.829 49.3555 152.411 48.9113C152.994 48.4671 153.285 47.7807 153.285 46.8418C153.285 45.903 152.994 45.2871 152.411 44.853C151.829 44.419 150.965 44.1969 149.84 44.1969H144.457V49.5776Z" fill="#606060"/>
<path d="M167.004 49.2647H178.533V53.222H162.133V31.9312H178.141V35.8885H167.004V49.2748V49.2647ZM166.642 40.502H176.836V44.3382H166.642V40.502Z" fill="#606060"/>
<path d="M187.401 53.222H182.5V31.9312H187.401V53.222ZM197.383 44.4896H187.039V40.3203H197.383V44.4896ZM197.022 31.9312H201.923V53.222H197.022V31.9312Z" fill="#606060"/>
<path d="M219.86 45.2772C218.815 45.7012 217.801 46.0242 216.837 46.2362C215.872 46.4482 214.939 46.5592 214.055 46.5592C211.213 46.5592 209.033 45.8728 207.517 44.5099C206 43.137 205.247 41.1684 205.247 38.5941V31.9312H210.088V38.049C210.088 39.5128 210.479 40.6132 211.273 41.3501C212.066 42.0871 213.181 42.4606 214.627 42.4606C215.551 42.4606 216.455 42.3495 217.319 42.1375C218.182 41.9255 218.996 41.6126 219.739 41.2088L219.86 45.2872V45.2772ZM219.167 53.212V31.9211H224.007V53.212H219.167Z" fill="#606060"/>
<path d="M236.481 49.8402L226.92 31.9211H232.152L239.172 46.216L236.481 49.8301V49.8402ZM230.003 49.2042C231.178 49.5474 232.152 49.6484 232.955 49.497C233.749 49.3455 234.462 48.7802 235.085 47.8111L236.109 46.2564L236.561 45.7415L243.581 31.9312H248.391L239.373 48.7802C238.569 50.3046 237.615 51.4655 236.511 52.2731C235.406 53.0808 234.211 53.5451 232.895 53.6562C231.58 53.7672 230.224 53.5351 228.808 52.9394L229.983 49.1941L230.003 49.2042Z" fill="#606060"/>
<path d="M250.731 53.222V31.9312H259.901C261.799 31.9312 263.436 32.2441 264.802 32.8599C266.177 33.4757 267.232 34.3641 267.975 35.5251C268.718 36.6759 269.1 38.059 269.1 39.6641C269.1 41.2692 268.728 42.6119 267.975 43.7729C267.232 44.9237 266.167 45.8121 264.802 46.438C263.426 47.0538 261.799 47.3668 259.901 47.3668H253.453L255.632 45.1458V53.2321H250.731V53.222ZM255.632 45.6809L253.453 43.3388H259.629C261.146 43.3388 262.271 43.0157 263.014 42.3696C263.757 41.7235 264.139 40.815 264.139 39.6641C264.139 38.5132 263.767 37.5744 263.014 36.9283C262.271 36.2822 261.136 35.9591 259.629 35.9591H253.453L255.632 33.6171V45.691V45.6809Z" fill="#606060"/>
<path d="M277.235 53.222H272.334V31.9312H277.235V53.222ZM287.217 44.4896H276.873V40.3203H287.217V44.4896ZM286.856 31.9312H291.757V53.222H286.856V31.9312Z" fill="#606060"/>
<path d="M307.313 38.9172C309.874 38.9172 311.853 39.4926 313.248 40.6333C314.644 41.7842 315.337 43.5004 315.337 45.792C315.337 48.225 314.564 50.0724 313.028 51.3242C311.481 52.5861 309.352 53.212 306.63 53.212H297.069V31.9211H301.94V38.9172H307.323H307.313ZM306.349 49.5676C307.604 49.5676 308.589 49.2547 309.312 48.6288C310.035 48.0029 310.396 47.0842 310.396 45.893C310.396 44.7017 310.035 43.8739 309.322 43.349C308.609 42.8341 307.614 42.5716 306.339 42.5716H301.92V49.5676H306.339H306.349ZM318.029 53.2221V31.9312H322.9V53.2221H318.029Z" fill="#606060"/>
<path d="M328.162 53.2221V31.9313H333.033V45.8021L343.136 31.9313H347.736V53.2221H342.895V39.3815L332.792 53.2221H328.162ZM337.934 30.5583C335.915 30.5583 334.439 30.1545 333.505 29.3368C332.571 28.5291 332.089 27.3783 332.069 25.8943H335.423C335.443 26.6211 335.664 27.1764 336.076 27.5499C336.488 27.9234 337.111 28.1153 337.934 28.1153C338.758 28.1153 339.36 27.9234 339.782 27.5499C340.204 27.1764 340.425 26.6211 340.445 25.8943H343.799C343.779 27.3783 343.297 28.5191 342.343 29.3368C341.389 30.1545 339.923 30.5583 337.924 30.5583H337.934Z" fill="#606060"/>
<path d="M372.763 51.8795C370.021 51.8795 367.691 51.5161 365.783 50.7893C363.875 50.0624 362.429 49.0024 361.445 47.6093C360.46 46.2161 359.958 44.5201 359.958 42.5112C359.958 40.5022 360.45 38.8062 361.445 37.4131C362.429 36.0199 363.875 34.9599 365.783 34.2331C367.691 33.5062 370.011 33.1428 372.763 33.1428H374.008C376.73 33.1428 379.04 33.5062 380.918 34.2331C382.796 34.9599 384.232 36.03 385.196 37.4232C386.16 38.8264 386.652 40.5123 386.652 42.5011C386.652 44.4898 386.17 46.1555 385.216 47.5689C384.262 48.9822 382.856 50.0523 381.008 50.7792C379.16 51.506 376.911 51.8695 374.249 51.8695H372.763V51.8795ZM373.215 48.0736H373.667C375.525 48.0736 377.061 47.8616 378.276 47.4477C379.492 47.0338 380.406 46.418 381.018 45.5902C381.631 44.7624 381.922 43.7327 381.922 42.4708C381.922 41.2089 381.611 40.1792 380.988 39.3716C380.365 38.5639 379.452 37.9582 378.246 37.5645C377.041 37.1708 375.535 36.9689 373.727 36.9689H373.215C371.297 36.9689 369.72 37.1607 368.465 37.5443C367.209 37.9279 366.275 38.5336 365.653 39.3514C365.03 40.1691 364.719 41.219 364.719 42.5011C364.719 43.7832 365.05 44.823 365.713 45.6508C366.376 46.4786 367.34 47.0843 368.605 47.478C369.871 47.8717 371.407 48.0736 373.215 48.0736ZM371.066 54.1611V31.0127H375.575V54.1611H371.066Z" fill="#606060"/>
<path d="M400.451 53.5855C398.774 53.5855 397.227 53.3129 395.811 52.7678C394.385 52.2226 393.16 51.4453 392.116 50.456C391.071 49.4666 390.268 48.2956 389.695 46.963C389.123 45.6204 388.832 44.1666 388.832 42.5817C388.832 40.9967 389.123 39.543 389.695 38.2004C390.268 36.8577 391.081 35.6967 392.126 34.7074C393.17 33.7181 394.405 32.9407 395.821 32.3956C397.237 31.8504 398.764 31.5779 400.421 31.5779C402.078 31.5779 403.635 31.8504 405.031 32.3956C406.437 32.9407 407.652 33.7181 408.696 34.7074C409.741 35.6967 410.544 36.8577 411.137 38.1903C411.719 39.5228 412.011 40.9866 412.011 42.5817C412.011 44.1767 411.719 45.6305 411.137 46.9731C410.554 48.3259 409.741 49.4868 408.696 50.4661C407.652 51.4453 406.437 52.2125 405.031 52.7577C403.625 53.3028 402.098 53.5754 400.451 53.5754V53.5855ZM400.421 49.3859C401.365 49.3859 402.239 49.2244 403.042 48.9013C403.836 48.5783 404.539 48.1139 405.141 47.4981C405.744 46.8823 406.216 46.1655 406.547 45.3377C406.879 44.5099 407.049 43.5811 407.049 42.5716C407.049 41.5621 406.879 40.6333 406.547 39.8055C406.216 38.9777 405.754 38.2508 405.151 37.6451C404.559 37.0394 403.856 36.575 403.052 36.2419C402.249 35.9188 401.365 35.7573 400.421 35.7573C399.477 35.7573 398.603 35.9188 397.8 36.2419C397.006 36.5649 396.304 37.0293 395.701 37.6451C395.098 38.2508 394.626 38.9777 394.295 39.8055C393.963 40.6333 393.793 41.5621 393.793 42.5716C393.793 43.5811 393.963 44.4796 394.295 45.3276C394.626 46.1655 395.088 46.8924 395.691 47.4981C396.283 48.1038 396.986 48.5682 397.79 48.9013C398.593 49.2244 399.477 49.3859 400.421 49.3859Z" fill="#606060"/>
<path d="M420.688 53.222H415.787V31.9312H420.688V53.222ZM430.67 44.4896H420.326V40.3203H430.67V44.4896ZM430.309 31.9312H435.21V53.222H430.309V31.9312Z" fill="#606060"/>
<path d="M438.183 57.6338L438.213 49.2043H462.205V57.6338H457.666V53.2222H442.722V57.6338H438.183ZM454.402 51.0315V35.9492H447.141L447.051 39.0484C446.99 40.3709 446.9 41.6126 446.789 42.7938C446.679 43.9749 446.508 45.0349 446.287 46.0041C446.066 46.9732 445.775 47.7808 445.424 48.4471C445.072 49.1134 444.63 49.5879 444.108 49.8806L438.876 49.2144C439.599 49.2345 440.201 48.9822 440.673 48.4572C441.145 47.9323 441.527 47.1852 441.808 46.2262C442.089 45.2671 442.3 44.1364 442.431 42.8342C442.561 41.5319 442.662 40.1287 442.722 38.6043L442.963 31.9414H459.243V51.0416H454.402V51.0315Z" fill="#606060"/>
<path d="M140.681 82.095V68.3149H145.813C146.978 68.3149 147.972 68.5067 148.805 68.8803C149.639 69.2538 150.282 69.7888 150.734 70.4955C151.186 71.2022 151.407 72.0502 151.407 73.0496C151.407 74.049 151.186 74.8567 150.734 75.5633C150.282 76.27 149.639 76.805 148.805 77.1887C147.972 77.5723 146.968 77.7641 145.813 77.7641H141.484L142.127 77.0776V82.1151H140.681V82.095ZM142.127 77.1685L141.484 76.4618H145.772C147.138 76.4618 148.183 76.169 148.896 75.5633C149.609 74.9677 149.96 74.1197 149.96 73.0294C149.96 71.9391 149.609 71.0709 148.896 70.4652C148.183 69.8595 147.138 69.5567 145.772 69.5567H141.484L142.127 68.8702V77.1584V77.1685Z" fill="#606060"/>
<path d="M155.826 80.833H164.071V82.095H154.379V68.3149H163.78V69.5768H155.826V80.833ZM155.665 74.473H162.916V75.7148H155.665V74.473Z" fill="#606060"/>
<path d="M173.23 82.2161C172.195 82.2161 171.241 82.0444 170.368 81.6911C169.494 81.3378 168.741 80.8532 168.098 80.2273C167.455 79.6014 166.963 78.8543 166.601 78.0063C166.24 77.1482 166.059 76.2195 166.059 75.21C166.059 74.2004 166.24 73.2717 166.601 72.4136C166.963 71.5656 167.465 70.8185 168.108 70.1926C168.751 69.5667 169.514 69.0721 170.388 68.7288C171.261 68.3856 172.215 68.2039 173.25 68.2039C174.284 68.2039 175.178 68.3755 176.052 68.7086C176.926 69.0418 177.669 69.5465 178.261 70.2128L177.337 71.1416C176.775 70.5661 176.152 70.1421 175.479 69.8898C174.796 69.6374 174.073 69.5062 173.29 69.5062C172.466 69.5062 171.703 69.6475 171 69.9302C170.297 70.2128 169.685 70.6166 169.162 71.1315C168.64 71.6463 168.228 72.2521 167.937 72.9385C167.646 73.625 167.495 74.3821 167.495 75.21C167.495 76.0378 167.646 76.7949 167.937 77.4814C168.228 78.1679 168.64 78.7736 169.162 79.2884C169.685 79.8033 170.297 80.2071 171 80.4898C171.703 80.7724 172.466 80.9138 173.29 80.9138C174.113 80.9138 174.806 80.7825 175.479 80.52C176.162 80.2576 176.775 79.8336 177.337 79.2581L178.261 80.1869C177.659 80.8532 176.926 81.3579 176.052 81.7012C175.178 82.0444 174.234 82.2161 173.23 82.2161Z" fill="#606060"/>
<path d="M181.264 82.095V68.3149H192.803V82.095H191.377V69.1831L191.749 69.5768H182.329L182.7 69.1831V82.095H181.274H181.264Z" fill="#606060"/>
<path d="M201.45 79.6116L195.515 68.315H197.062L202.234 78.4103L201.45 79.6116ZM197.182 80.7322C197.845 80.9946 198.478 81.0552 199.06 80.924C199.643 80.7927 200.185 80.3284 200.687 79.5308L201.35 78.4708L201.49 78.2891L206.743 68.3049H208.189L201.962 79.8438C201.541 80.6413 201.049 81.2369 200.486 81.6306C199.914 82.0244 199.321 82.2364 198.688 82.2565C198.056 82.2868 197.423 82.1657 196.78 81.9032L197.192 80.7221L197.182 80.7322Z" fill="#606060"/>
<path d="M210.439 82.095V68.3149H220.462V69.5567H211.865V74.0692H216.354C217.971 74.0692 219.206 74.4024 220.05 75.0586C220.893 75.7249 221.315 76.694 221.315 77.9862C221.315 79.2784 220.863 80.3283 219.949 81.0349C219.046 81.7416 217.74 82.095 216.043 82.095H210.439ZM211.865 80.934H216.013C217.278 80.934 218.232 80.6917 218.885 80.197C219.538 79.7024 219.859 78.9856 219.859 78.0468C219.859 76.169 218.584 75.2302 216.023 75.2302H211.875V80.9441L211.865 80.934Z" fill="#606060"/>
<path d="M223.284 82.216C223.103 82.216 222.922 82.216 222.751 82.1857C222.581 82.1554 222.39 82.1252 222.179 82.0747L222.299 80.7724C222.52 80.8229 222.741 80.8531 222.942 80.8531C223.525 80.8531 224.007 80.621 224.358 80.1566C224.72 79.6922 224.991 78.9653 225.172 77.9962C225.352 77.017 225.473 75.7651 225.523 74.2307L225.724 68.325H235.024V82.105H233.598V69.1931L233.969 69.5869H226.648L227 69.173L226.819 74.1903C226.769 75.5733 226.668 76.7545 226.528 77.764C226.387 78.7735 226.176 79.6013 225.905 80.2676C225.634 80.9339 225.282 81.4185 224.85 81.7415C224.419 82.0646 223.896 82.2261 223.284 82.2261V82.216Z" fill="#606060"/>
<path d="M239.654 82.095V68.3149H241.08V79.7327L249.857 68.3149H251.173V82.095H249.747V70.6974L240.969 82.095H239.654Z" fill="#606060"/>
<path d="M255.793 82.095V68.3149H257.199V82.095H255.793ZM256.777 75.7753V74.4932H261.065V75.7753H256.777ZM261.206 75.3614L259.87 75.1292L264.982 68.3149H266.549L261.206 75.3614ZM265.183 82.095L259.91 75.2201L261.085 74.5134L266.84 82.095H265.173H265.183Z" fill="#606060"/>
<path d="M269.069 82.095V68.3149H270.495V79.7327L279.273 68.3149H280.589V82.095H279.162V70.6974L270.385 82.095H269.069Z" fill="#606060"/>
<path d="M290.34 82.095V68.3149H300.363V69.5567H291.766V74.0692H296.256C297.873 74.0692 299.108 74.4024 299.951 75.0586C300.795 75.7249 301.217 76.694 301.217 77.9862C301.217 79.2784 300.765 80.3283 299.861 81.0349C298.957 81.7416 297.652 82.095 295.954 82.095H290.35H290.34ZM291.766 80.934H295.914C297.18 80.934 298.134 80.6917 298.786 80.197C299.439 79.7024 299.761 78.9856 299.761 78.0468C299.761 76.169 298.485 75.2302 295.924 75.2302H291.776V80.9441L291.766 80.934Z" fill="#606060"/>
<path d="M302.542 82.095L308.809 68.3149H310.235L316.502 82.095H314.976L309.221 69.1629H309.804L304.049 82.095H302.542ZM305.013 78.4102L305.445 77.229H313.419L313.851 78.4102H305.023H305.013Z" fill="#606060"/>
<path d="M327.178 80.833L326.826 81.2268V68.3149H328.252V81.2268L327.861 80.833H334.891L334.499 81.2268V68.3149H335.925V82.095H319.123V68.3149H320.549V81.2268L320.178 80.833H327.168H327.178Z" fill="#606060"/>
<path d="M340.555 82.095V68.3149H341.961V82.095H340.555ZM341.539 75.7753V74.4932H345.827V75.7753H341.539ZM345.968 75.3614L344.632 75.1292L349.744 68.3149H351.311L345.968 75.3614ZM349.945 82.095L344.673 75.2201L345.848 74.5134L351.602 82.095H349.935H349.945Z" fill="#606060"/>
<path d="M359.827 82.2161C358.793 82.2161 357.839 82.0444 356.955 81.6911C356.071 81.3479 355.308 80.8532 354.665 80.2172C354.022 79.5812 353.52 78.8341 353.159 77.9962C352.797 77.1482 352.616 76.2195 352.616 75.21C352.616 74.2004 352.797 73.2717 353.159 72.4237C353.52 71.5757 354.022 70.8387 354.665 70.2027C355.308 69.5667 356.071 69.0721 356.945 68.7288C357.819 68.3856 358.783 68.2039 359.827 68.2039C360.872 68.2039 361.816 68.3755 362.69 68.7288C363.563 69.0721 364.327 69.5667 364.969 70.1926C365.612 70.8185 366.114 71.5656 366.476 72.4136C366.837 73.2616 367.018 74.2004 367.018 75.21C367.018 76.2195 366.837 77.1482 366.476 78.0063C366.114 78.8543 365.612 79.6014 364.969 80.2273C364.327 80.8532 363.563 81.3479 362.69 81.6911C361.816 82.0343 360.862 82.2161 359.827 82.2161ZM359.827 80.9138C360.651 80.9138 361.414 80.7724 362.107 80.4898C362.81 80.2071 363.413 79.8033 363.925 79.2884C364.437 78.7736 364.839 78.1679 365.13 77.4814C365.421 76.7949 365.562 76.0378 365.562 75.21C365.562 74.3821 365.421 73.625 365.13 72.9385C364.839 72.2521 364.437 71.6463 363.925 71.1315C363.413 70.6166 362.8 70.2128 362.107 69.9302C361.404 69.6475 360.651 69.5062 359.827 69.5062C359.004 69.5062 358.241 69.6475 357.538 69.9302C356.835 70.2128 356.222 70.6166 355.71 71.1315C355.198 71.6463 354.786 72.2521 354.495 72.9385C354.203 73.625 354.053 74.3821 354.053 75.21C354.053 76.0378 354.203 76.7747 354.495 77.4713C354.786 78.1679 355.198 78.7736 355.71 79.2884C356.222 79.8033 356.835 80.2071 357.538 80.4898C358.241 80.7724 359.004 80.9138 359.827 80.9138Z" fill="#606060"/>
<path d="M370.473 82.095V68.3149H375.605C376.77 68.3149 377.764 68.5067 378.597 68.8803C379.431 69.2538 380.074 69.7888 380.526 70.4955C380.978 71.2022 381.198 72.0502 381.198 73.0496C381.198 74.049 380.978 74.8567 380.526 75.5633C380.074 76.27 379.431 76.805 378.597 77.1887C377.764 77.5723 376.76 77.7641 375.605 77.7641H371.276L371.919 77.0776V82.1151H370.473V82.095ZM371.919 77.1685L371.276 76.4618H375.564C376.94 76.4618 377.975 76.169 378.688 75.5633C379.401 74.9677 379.752 74.1197 379.752 73.0294C379.752 71.9391 379.401 71.0709 378.688 70.4652C377.975 69.8595 376.93 69.5567 375.564 69.5567H371.276L371.919 68.8702V77.1584V77.1685Z" fill="#606060"/>
<path d="M386.441 82.095V69.1831L386.833 69.5768H381.62V68.3149H392.688V69.5768H387.496L387.867 69.1831V82.095H386.441Z" fill="#606060"/>
<path d="M401.043 82.2161C400.009 82.2161 399.055 82.0444 398.171 81.6911C397.287 81.3479 396.524 80.8532 395.881 80.2172C395.239 79.5812 394.736 78.8341 394.375 77.9962C394.013 77.1482 393.833 76.2195 393.833 75.21C393.833 74.2004 394.013 73.2717 394.375 72.4237C394.736 71.5757 395.239 70.8387 395.881 70.2027C396.524 69.5667 397.287 69.0721 398.161 68.7288C399.035 68.3856 399.999 68.2039 401.043 68.2039C402.088 68.2039 403.032 68.3755 403.906 68.7288C404.779 69.0721 405.543 69.5667 406.185 70.1926C406.828 70.8185 407.33 71.5656 407.692 72.4136C408.053 73.2616 408.234 74.2004 408.234 75.21C408.234 76.2195 408.053 77.1482 407.692 78.0063C407.33 78.8543 406.828 79.6014 406.185 80.2273C405.543 80.8532 404.779 81.3479 403.906 81.6911C403.032 82.0343 402.078 82.2161 401.043 82.2161ZM401.043 80.9138C401.867 80.9138 402.63 80.7724 403.323 80.4898C404.026 80.2071 404.629 79.8033 405.141 79.2884C405.653 78.7736 406.055 78.1679 406.346 77.4814C406.637 76.7949 406.778 76.0378 406.778 75.21C406.778 74.3821 406.637 73.625 406.346 72.9385C406.055 72.2521 405.653 71.6463 405.141 71.1315C404.629 70.6166 404.016 70.2128 403.323 69.9302C402.62 69.6475 401.867 69.5062 401.043 69.5062C400.22 69.5062 399.457 69.6475 398.754 69.9302C398.051 70.2128 397.438 70.6166 396.926 71.1315C396.414 71.6463 396.002 72.2521 395.711 72.9385C395.419 73.625 395.269 74.3821 395.269 75.21C395.269 76.0378 395.419 76.7747 395.711 77.4713C396.002 78.1679 396.414 78.7736 396.926 79.2884C397.438 79.8033 398.051 80.2071 398.754 80.4898C399.457 80.7724 400.22 80.9138 401.043 80.9138Z" fill="#606060"/>
<path d="M417.695 82.2161C416.66 82.2161 415.706 82.0444 414.832 81.6911C413.959 81.3378 413.205 80.8532 412.563 80.2273C411.92 79.6014 411.428 78.8543 411.066 78.0063C410.705 77.1482 410.524 76.2195 410.524 75.21C410.524 74.2004 410.705 73.2717 411.066 72.4136C411.428 71.5555 411.93 70.8185 412.573 70.1926C413.215 69.5667 413.979 69.0721 414.852 68.7288C415.726 68.3856 416.68 68.2039 417.715 68.2039C418.749 68.2039 419.643 68.3755 420.517 68.7086C421.39 69.0418 422.134 69.5465 422.726 70.2128L421.802 71.1416C421.24 70.5661 420.617 70.1421 419.944 69.8898C419.261 69.6374 418.538 69.5062 417.755 69.5062C416.931 69.5062 416.168 69.6475 415.465 69.9302C414.762 70.2128 414.149 70.6166 413.627 71.1315C413.105 71.6463 412.693 72.2521 412.402 72.9385C412.111 73.625 411.96 74.3821 411.96 75.21C411.96 76.0378 412.111 76.7949 412.402 77.4814C412.693 78.1679 413.105 78.7736 413.627 79.2884C414.149 79.8033 414.762 80.2071 415.465 80.4898C416.168 80.7724 416.931 80.9138 417.755 80.9138C418.578 80.9138 419.271 80.7825 419.944 80.52C420.627 80.2576 421.24 79.8336 421.802 79.2581L422.726 80.1869C422.123 80.8532 421.39 81.3579 420.517 81.7012C419.643 82.0444 418.699 82.2161 417.695 82.2161Z" fill="#606060"/>
<path d="M428.27 82.095V69.1831L428.661 69.5768H423.449V68.3149H434.516V69.5768H429.324L429.696 69.1831V82.095H428.27Z" fill="#606060"/>
<path d="M434.356 82.095L440.622 68.3149H442.049L448.315 82.095H446.789L441.034 69.1629H441.617L435.862 82.095H434.356ZM436.826 78.4102L437.258 77.229H445.232L445.664 78.4102H436.836H436.826Z" fill="#606060"/>
<path d="M452.393 82.095H450.947V68.3149H452.393V82.095ZM461.11 75.7349H452.242V74.4528H461.11V75.7349ZM460.969 68.3149H462.395V82.095H460.969V68.3149Z" fill="#606060"/>
<defs>
<linearGradient id="paint0_linear_1062_3691" x1="49.4813" y1="12.2051" x2="28.264" y2="75.5472" gradientUnits="userSpaceOnUse">
<stop stop-color="#D6D6D6"/>
<stop offset="1" stop-color="#AEAEAE"/>
</linearGradient>
<linearGradient id="paint1_linear_1062_3691" x1="85.1034" y1="19.3728" x2="66.5189" y2="44.7916" gradientUnits="userSpaceOnUse">
<stop stop-color="#A8A8A8"/>
<stop offset="1" stop-color="#787878"/>
</linearGradient>
<linearGradient id="paint2_linear_1062_3691" x1="41.939" y1="56.271" x2="79.8108" y2="56.271" gradientUnits="userSpaceOnUse">
<stop stop-color="#8D8D8D"/>
<stop offset="1" stop-color="#989898"/>
</linearGradient>
<linearGradient id="paint3_linear_1062_3691" x1="62.4767" y1="15.1732" x2="43.3162" y2="74.3337" gradientUnits="userSpaceOnUse">
<stop stop-color="#A4A4A4"/>
<stop offset="1" stop-color="#E3E3E3"/>
</linearGradient>
</defs>
</svg>
