<svg width="24" height="15" viewBox="0 0 24 15" fill="none" xmlns="http://www.w3.org/2000/svg">
<path d="M23.4033 1.70361C23.5643 1.1543 23.4033 0.75 22.6289 0.75H20.0662C19.4135 0.75 19.1133 1.09717 18.9523 1.48389C18.9523 1.48389 17.6471 4.69629 15.8023 6.7793C15.2062 7.38135 14.9321 7.57471 14.6057 7.57471C14.4448 7.57471 14.1968 7.38135 14.1968 6.83203V1.70361C14.1968 1.04443 14.014 0.75 13.4745 0.75H9.44553C9.03654 0.75 8.79289 1.05762 8.79289 1.34326C8.79289 1.96729 9.71529 2.1123 9.81101 3.87012V7.68457C9.81101 8.51953 9.66308 8.67334 9.33676 8.67334C8.46657 8.67334 6.35201 5.44775 5.09894 1.75635C4.84659 1.04004 4.59858 0.75 3.94159 0.75H1.37889C0.647932 0.75 0.5 1.09717 0.5 1.48389C0.5 2.16943 1.37019 5.5752 4.55072 10.0752C6.66963 13.147 9.65438 14.8125 12.3694 14.8125C14.001 14.8125 14.2011 14.4434 14.2011 13.8062C14.2011 10.8706 14.0532 10.5938 14.8712 10.5938C15.2497 10.5938 15.9023 10.7871 17.4252 12.2681C19.1655 14.0259 19.4527 14.8125 20.4273 14.8125H22.99C23.721 14.8125 24.0908 14.4434 23.8776 13.7139C23.3903 12.1802 20.0966 9.0249 19.9487 8.81397C19.5702 8.32178 19.6789 8.10205 19.9487 7.6626C19.9531 7.6582 23.0814 3.21094 23.4033 1.70361Z" fill="white"/>
</svg>
